<svg width="48" height="48" xmlns="http://www.w3.org/2000/svg" xmlns:xlink="http://www.w3.org/1999/xlink"><defs><path d="M1.123 39.97a.87.87 0 0 1-.87-.861 1.279 1.279 0 0 1 .438-.977 1.282 1.282 0 0 1-.02-1.946 1.282 1.282 0 0 1-.02-1.947 1.282 1.282 0 0 1-.02-1.946 1.282 1.282 0 0 1-.02-1.946 1.282 1.282 0 0 1-.02-1.946 1.282 1.282 0 0 1-.02-1.946 1.282 1.282 0 0 1-.02-1.947 1.282 1.282 0 0 1-.02-1.948 1.279 1.279 0 0 1-.458-.972c0-.415.216-.698.444-.911-.219-.22-.422-.516-.403-.922.02-.407.249-.68.486-.88-.207-.23-.395-.535-.355-.941.04-.406.284-.67.534-.856-.195-.242-.367-.558-.304-.963.063-.405.325-.655.587-.828-.18-.255-.332-.58-.244-.985.088-.405.37-.636.645-.789-.166-.27-.294-.609-.174-1.005.121-.397.423-.61.71-.746-.141-.283-.248-.635-.087-1.023.162-.389.481-.573.783-.679-.114-.298-.183-.662.016-1.036.198-.375.551-.523.86-.594-.076-.31-.104-.69.14-1.039.244-.348.62-.452.94-.483-.036-.318-.012-.706.283-1.019.266-.282.604-.344.901-.341 0-.297.068-.634.355-.895.288-.26.636-.297.935-.267.026-.298.124-.631.438-.866.314-.236.666-.236.962-.176.057-.296.19-.62.53-.822.34-.202.69-.166.979-.07.09-.29.258-.599.62-.762.363-.163.703-.083.98.04.12-.276.322-.563.699-.686.377-.122.704-.007.963.144.15-.261.378-.524.763-.607.385-.084.694.06.936.233.172-.248.421-.483.808-.532.387-.05.68.116.906.306.189-.229.453-.445.838-.467.385-.022.663.16.876.363.201-.215.476-.414.858-.414.375.313.914.334 1.312.052.349.341.885.403 1.303.151a.947.947 0 0 1 .6.345.964.964 0 0 1 1.258.292.964.964 0 0 1 1.23.382.964.964 0 0 1 1.197.466.937.937 0 0 1 .684.05c.216.1.386.278.478.498a.935.935 0 0 1 .676.093.956.956 0 0 1 .446.521c.23-.04.467.008.663.135a.967.967 0 0 1 .384.451.87.87 0 0 1 .528 1.543c-.797.857-1.441.639-1.754.432A.91.91 0 0 1 27.912 5a.962.962 0 0 1-.604-.134.93.93 0 0 1-.396-.454.952.952 0 0 1-.6-.095.936.936 0 0 1-.425-.426.948.948 0 0 1-.602-.056.938.938 0 0 1-.45-.396.974.974 0 0 1-1.077-.376.974.974 0 0 1-1.1-.3.974.974 0 0 1-1.116-.216 2.252 2.252 0 0 0-1.703.03.956.956 0 0 1-.655-.29c-.191.178-.44.281-.702.29-.305.003-.6-.117-.816-.332a1.092 1.092 0 0 1-1.592.15 1.092 1.092 0 0 1-1.563.272 1.092 1.092 0 0 1-1.519.415 1.091 1.091 0 0 1-1.458.563 1.09 1.09 0 0 1-1.386.72 1.092 1.092 0 0 1-1.303.868 1.091 1.091 0 0 1-1.22 1.002A1.093 1.093 0 0 1 6.474 7.35a1.127 1.127 0 0 1-1.037 1.257 1.129 1.129 0 0 1-.869 1.408 1.13 1.13 0 0 1-.71 1.513 1.13 1.13 0 0 1-.564 1.589c.173.272.228.602.154.916-.095.359-.34.58-.59.725.166.24.292.543.223.91-.07.369-.302.603-.542.769.178.23.331.526.28.898-.05.372-.266.622-.496.802.192.22.359.51.331.884-.027.375-.234.638-.457.828.204.212.386.492.377.87-.01.377-.213.662-.432.866a1.281 1.281 0 0 1-.005 1.924 1.282 1.282 0 0 1 .02 1.947 1.282 1.282 0 0 1 .021 1.946 1.282 1.282 0 0 1 .02 1.946 1.282 1.282 0 0 1 .02 1.947 1.282 1.282 0 0 1 .02 1.946 1.282 1.282 0 0 1 .02 1.946 1.282 1.282 0 0 1 .021 1.946c.287.24.454.594.457.968.008.717-.533 1.077-.763 1.226l-.017.01a.87.87 0 0 1-.828.623l-.005.01z" id="a"/><path d="M1.265 33.526a.87.87 0 0 1-.872-.856 1.258 1.258 0 0 1 .346-.897 1.28 1.28 0 0 1-.03-1.781 1.28 1.28 0 0 1-.03-1.782 1.28 1.28 0 0 1-.03-1.782 1.28 1.28 0 0 1-.03-1.782 1.28 1.28 0 0 1-.03-1.781 1.28 1.28 0 0 1-.03-1.783A1.28 1.28 0 0 1 .53 19.3a1.258 1.258 0 0 1-.377-.89v-.011c.008-.314.14-.611.365-.829a1.126 1.126 0 0 1 .087-1.656 1.125 1.125 0 0 1 .188-1.656 1.126 1.126 0 0 1 .3-1.646 1.126 1.126 0 0 1 .432-1.626 1.126 1.126 0 0 1 .59-1.586 1.188 1.188 0 0 1 .03-.937c.171-.344.471-.504.739-.593-.056-.276-.065-.617.152-.936.217-.32.544-.44.828-.49-.014-.285.028-.629.298-.91.211-.218.5-.342.802-.345a1.09 1.09 0 0 1 1.205-1.061 1.09 1.09 0 0 1 1.325-.933 1.09 1.09 0 0 1 1.432-.77 1.09 1.09 0 0 1 1.515-.585 1.09 1.09 0 0 1 1.561-.403c.176-.25.445-.418.746-.467.298-.04.6.041.837.225a3.675 3.675 0 0 0 2.373-.446c.356.25.825.27 1.202.054.332.281.796.346 1.192.166a.944.944 0 0 1 .547.307.972.972 0 0 1 1.14.318.972.972 0 0 1 1.106.414.936.936 0 0 1 .616.074c.194.09.352.243.448.434a.933.933 0 0 1 .605.124.948.948 0 0 1 .414.467.923.923 0 0 1 .589.165.966.966 0 0 1 .348.424.87.87 0 0 1 .393 1.566c-.797.732-1.423.414-1.656.249a.911.911 0 0 1-.324-.423.961.961 0 0 1-.516-.154.932.932 0 0 1-.35-.391.953.953 0 0 1-.517-.112.938.938 0 0 1-.38-.362.95.95 0 0 1-.521-.069.94.94 0 0 1-.407-.331.97.97 0 0 1-.955-.314 2.123 2.123 0 0 0-1.491-.157.834.834 0 0 0-.984-.09.952.952 0 0 1-.588-.234c-.18.143-.402.225-.632.233a1.134 1.134 0 0 1-.74-.259 1.117 1.117 0 0 1-.692.354 1.129 1.129 0 0 1-.746-.197c-.33.434-.93.556-1.403.285-.28.458-.854.642-1.349.431a1.083 1.083 0 0 1-1.28.588c-.161.51-.67.827-1.2.745-.1.533-.576.91-1.117.884a1.086 1.086 0 0 1-1.045 1.004 1.123 1.123 0 0 1-.922 1.142 1.124 1.124 0 0 1-.756 1.288c.19.55-.07 1.153-.6 1.393a1.121 1.121 0 0 1-.46 1.461 1.122 1.122 0 0 1-.332 1.51c.351.49.252 1.17-.225 1.54a1.123 1.123 0 0 1-.129 1.557c.193.218.3.5.298.791a1.196 1.196 0 0 1-.349.787 1.28 1.28 0 0 1 .007 1.758 1.28 1.28 0 0 1 .03 1.782 1.28 1.28 0 0 1 .03 1.783 1.28 1.28 0 0 1 .03 1.78 1.28 1.28 0 0 1 .03 1.783 1.28 1.28 0 0 1 .03 1.781 1.28 1.28 0 0 1 .029 1.782c.237.233.373.551.376.884.01.649-.426.994-.631 1.148a.87.87 0 0 1-.823.637l-.033-.002z" id="c"/><path d="M1.496 25.5a.87.87 0 0 1-.868-.854c-.008-.3.09-.592.276-.828a1.316 1.316 0 0 1-.031-1.652 1.316 1.316 0 0 1-.032-1.652 1.316 1.316 0 0 1-.031-1.652 1.316 1.316 0 0 1-.03-1.652 1.316 1.316 0 0 1-.031-1.657 1.317 1.317 0 0 1-.03-1.656 1.154 1.154 0 0 1 .043-1.56 1.154 1.154 0 0 1 .161-1.548 1.154 1.154 0 0 1 .291-1.541 1.154 1.154 0 0 1 .449-1.52 1.154 1.154 0 0 1 .643-1.472 1.153 1.153 0 0 1 .88-1.374 1.217 1.217 0 0 1 .311-.839c.194-.198.452-.32.728-.347.038-.276.175-.528.385-.71.219-.18.495-.272.777-.263.148-.574.72-.93 1.3-.812a1.111 1.111 0 0 1 1.407-.607c.155-.238.39-.412.663-.49a1.16 1.16 0 0 1 .807.096 1.17 1.17 0 0 1 .711-.394c.272-.033.548.032.776.185.2-.188.46-.3.735-.313.24-.008.477.062.674.2a.982.982 0 0 1 1.207.016.959.959 0 0 1 .588-.078c.303.273.724.374 1.118.268a.969.969 0 0 1 .49.331.958.958 0 0 1 .585.057.972.972 0 0 1 .449.384.976.976 0 0 1 .978.543.947.947 0 0 1 .55.17c.151.104.27.247.345.415a.87.87 0 0 1 .297 1.607c-.745.53-1.306.224-1.516.065a.934.934 0 0 1-.298-.376.984.984 0 0 1-.795-.491.97.97 0 0 1-.827-.405.97.97 0 0 1-.86-.312 1.951 1.951 0 0 0-1.35-.153.794.794 0 0 0-.88-.052 1.16 1.16 0 0 1-.674-.225c-.18.157-.407.255-.645.277a1.16 1.16 0 0 1-.679-.16c-.161.169-.37.284-.6.33a1.16 1.16 0 0 1-.677-.082 1.11 1.11 0 0 1-1.21.414 1.111 1.111 0 0 1-1.13.592c-.15.448-.567.753-1.04.759a1.113 1.113 0 0 1-.963.91 1.15 1.15 0 0 1-.815 1.047 1.15 1.15 0 0 1-.636 1.202A1.151 1.151 0 0 1 3 8.948a1.15 1.15 0 0 1-.332 1.373c.265.46.18 1.041-.203 1.408a1.152 1.152 0 0 1-.096 1.432c.157.205.244.454.249.712.005.297-.092.588-.277.821.4.476.414 1.166.032 1.657.398.474.41 1.162.031 1.652.398.475.411 1.163.032 1.652.398.475.411 1.163.031 1.652.398.475.411 1.163.032 1.652.195.23.304.52.307.821a1.35 1.35 0 0 1-.468 1.04.87.87 0 0 1-.833.68h-.009z" id="e"/><path d="M1.578 17.521a.87.87 0 0 1-.87-.853c-.008-.284.07-.565.226-.804a1.452 1.452 0 0 1-.03-1.599 1.452 1.452 0 0 1-.03-1.6 1.452 1.452 0 0 1-.03-1.6 1.453 1.453 0 0 1-.028-1.602 1.275 1.275 0 0 1 .067-1.536 1.273 1.273 0 0 1 .244-1.525 1.272 1.272 0 0 1 .468-1.505c-.119-.6.207-1.199.774-1.425.022-.302.143-.588.343-.815a1.31 1.31 0 0 1 .702-.371 1.29 1.29 0 0 1 .444-.663c.227-.161.5-.246.778-.242.257-.516.842-.78 1.399-.63.18-.211.421-.36.69-.425a1.29 1.29 0 0 1 .782.095c.208-.17.463-.273.73-.294.237-.01.472.047.677.165a1.03 1.03 0 0 1 1.202.058 1.027 1.027 0 0 1 1.098.284 1.024 1.024 0 0 1 1.03.453h.005a1.02 1.02 0 0 1 .551.155c.161.102.292.245.38.414a.87.87 0 0 1 .176 1.68c-.619.264-1.077.038-1.297-.123a.989.989 0 0 1-.288-.331 1.056 1.056 0 0 1-.76-.403 1.042 1.042 0 0 1-.795-.276 1.041 1.041 0 0 1-.822-.14 1.04 1.04 0 0 1-.414.087 1.318 1.318 0 0 1-.639-.177 1.291 1.291 0 0 1-.594.248 1.314 1.314 0 0 1-.628-.083 1.277 1.277 0 0 1-.52.332c-.197.06-.405.073-.608.038-.214.36-.598.586-1.017.598-.07.2-.187.379-.341.523a1.294 1.294 0 0 1-.57.289c-.054.43-.322.804-.712.994.06.455-.127.909-.492 1.188.151.455.036.955-.298 1.299.218.44.165.964-.135 1.352.124.204.192.437.198.676.007.282-.072.559-.225.795a1.45 1.45 0 0 1 .03 1.6c.33.479.342 1.108.031 1.6.33.478.341 1.107.03 1.598.164.233.253.51.255.795a1.42 1.42 0 0 1-.3.911.87.87 0 0 1-.848.78l-.02.015z" id="g"/></defs><g fill="none" fill-rule="evenodd"><g transform="translate(9 4)"><mask id="b" fill="#fff"><use xlink:href="#a"/></mask><path fill="#000" mask="url(#b)" d="M-4.927 44.97h40.286v-49.9H-4.927z"/></g><g transform="translate(13 8)"><mask id="d" fill="#fff"><use xlink:href="#c"/></mask><path fill="#000" mask="url(#d)" d="M-4.847 38.528h34.765v-42.78H-4.847z"/></g><g transform="translate(17 13)"><mask id="f" fill="#fff"><use xlink:href="#e"/></mask><path fill="#000" mask="url(#f)" d="M-4.563 30.5h29.06V-4.613h-29.06z"/></g><g transform="translate(21 18)"><mask id="h" fill="#fff"><use xlink:href="#g"/></mask><path fill="#000" mask="url(#h)" d="M-4.41 22.521h23.342V-4.875H-4.41z"/></g></g></svg>