<svg width="48" height="48" xmlns="http://www.w3.org/2000/svg" xmlns:xlink="http://www.w3.org/1999/xlink"><defs><path d="M17.751 26.084c1.105.155 3.932-6.32 4.135-6.464.203-.144 4.274.17 3.736-1.943-1.224 1.01-1.798-.084-1.742-.878.055-.797 1.091-2.487 1.364-2.373.272.115.742 1.057 1.72.184-1.482.138-1.132-1.976-.672-2.229.462-.252 2.252-1.023 2.771-1.514.519-.49.559-2.037 1.617-1.696 1.057.34.277 2.534.592 3.272.316.738 3.176 3.093 3.128 3.835-.047.744-1.25.61-1.223 1.649 0 .42.75.733.77 1.224.02.49-.81.859-.81.859s.712.19.574.927c-.142.735-1.055.513-1.347.666-.137.073 1.402 1.719.255 2.96-1.034 1.186-6.212-.063-7.208.313-1.873.71-3.425 3.171-2.392 4.336 1.032 1.165 4.595 4.922 5.52 8.043 1.588 4.092-2.302 11.235-4.478 6.054-3.079 2.02 3.36 9.434 12.39-1.724 6.92-9.074 3.536-25.593 1.492-29.305C35.9 8.572 26.384-4.244 16.172 1.428 3.468 8.19 9.51 24.55 17.75 26.083z" id="a"/></defs><g fill="none" fill-rule="evenodd"><mask id="b" fill="#fff"><use xlink:href="#a"/></mask><path fill="#000" mask="url(#b)" d="M3.858 52.595h41.736V-5H3.858z"/></g></svg>