<svg width="48" height="48" xmlns="http://www.w3.org/2000/svg" xmlns:xlink="http://www.w3.org/1999/xlink"><defs><path d="M14.968 4.99a10.693 10.693 0 0 0-7.818-.196C1.566 6.826-1.312 13.055.735 18.679a10.871 10.871 0 0 0 7.717 6.868c1.897 2.95 4.328 5.64 6.638 8.03 2.087 2.148 4.918 4.766 7.863 2.231 2.459-2.116 1.416-4.958-.357-7.035-1.36-1.593-3.066-3.605-4.464-5.737a10.835 10.835 0 0 0 2.95-4.548l10.786-6.652 4.846-1.17L33.11.767l-4.464 2.219L14.968 4.99zM8.001 9.12c-.16.28-.33.604-.508.99-.602 1.304-.746 2.077-.873 2.759-.12.639-.222 1.19-.712 2.25-.468 1.013-.81 1.455-1.197 1.93-1.047-3.124.395-6.517 3.29-7.93zm-.727 11.294a6.536 6.536 0 0 1-1.432-1.305c.16-.228.316-.42.481-.624.436-.537.93-1.145 1.532-2.45.603-1.303.747-2.077.874-2.759.12-.639.222-1.19.712-2.25s.842-1.494 1.25-1.996c.14-.172.285-.351.437-.558a6.47 6.47 0 0 1 2.023.428 9.252 9.252 0 0 1-.61.814c-.436.537-.93 1.145-1.533 2.45-.602 1.303-.746 2.076-.874 2.759-.119.638-.222 1.19-.711 2.25-.49 1.06-.842 1.494-1.25 1.996-.273.336-.568.7-.899 1.245zm4.454.45a13.2 13.2 0 0 0-.505.65 6.445 6.445 0 0 1-1.966-.205c.195-.295.382-.525.581-.77.436-.537.93-1.146 1.532-2.45.603-1.304.747-2.077.874-2.759.12-.638.222-1.19.712-2.25s.842-1.494 1.25-1.996c.246-.303.511-.63.803-1.09.446.372.845.806 1.183 1.295l-.096.12c-.436.536-.93 1.145-1.532 2.449-.603 1.304-.747 2.077-.874 2.76-.12.638-.222 1.19-.712 2.25-.49 1.059-.842 1.493-1.25 1.996zm2.95-.573c.08-.157.163-.324.247-.507.603-1.304.747-2.077.874-2.76.12-.638.222-1.19.712-2.25a8.92 8.92 0 0 1 .673-1.233 6.535 6.535 0 0 1-2.505 6.75zm8.356-14.223a.583.583 0 0 1-.48.67l-4.06.654a.585.585 0 0 1-.19-1.156l4.061-.653a.586.586 0 0 1 .67.485zm4.196-.675a.583.583 0 0 1-.48.67l-1.827.294a.586.586 0 0 1-.19-1.156l1.828-.293a.585.585 0 0 1 .669.485z" id="a"/><path d="M1.455 4.27c.636-.232.979-.216 1.376-.197.438.021.934.045 1.75-.252.817-.297 1.182-.634 1.504-.932.292-.27.544-.503 1.18-.734.636-.232.98-.215 1.377-.196.437.02.933.044 1.75-.253a.484.484 0 0 0 .287-.622.484.484 0 0 0-.62-.291c-.635.231-.978.215-1.376.196-.437-.021-.933-.045-1.75.252-.817.298-1.182.635-1.504.932-.292.27-.544.503-1.18.735-.635.23-.979.214-1.376.195-.438-.02-.934-.044-1.75.253a.484.484 0 0 0-.288.622c.092.252.37.382.62.291z" id="c"/><path d="M10.168.837c-.636.232-.98.215-1.377.196-.437-.02-.933-.044-1.75.253s-1.182.634-1.504.932c-.292.27-.544.503-1.18.734-.635.232-.979.215-1.376.196-.438-.02-.934-.045-1.75.253a.484.484 0 0 0-.288.621c.092.253.37.383.62.292.636-.231.979-.215 1.376-.196.438.021.934.045 1.75-.252.817-.298 1.182-.635 1.504-.932.292-.27.544-.503 1.18-.735.636-.231.98-.215 1.377-.196.437.021.933.045 1.75-.252a.484.484 0 0 0 .287-.622.484.484 0 0 0-.62-.292z" id="e"/><path d="M9.276.882c-.636.231-.98.215-1.377.196-.437-.02-.933-.045-1.75.253-.817.297-1.182.634-1.503.931-.293.27-.545.504-1.18.735-.636.231-.98.215-1.377.196-.437-.021-.933-.045-1.75.252a.484.484 0 0 0-.287.622.485.485 0 0 0 .62.292c.635-.232.978-.215 1.375-.196.438.02.934.045 1.75-.253.818-.297 1.182-.634 1.504-.931.292-.27.545-.504 1.18-.735.636-.231.98-.215 1.377-.196.437.021.933.045 1.75-.252a.484.484 0 0 0 .287-.622.484.484 0 0 0-.619-.292z" id="g"/></defs><g fill="none" fill-rule="evenodd"><g transform="translate(1 8)"><mask id="b" fill="#fff"><use xlink:href="#a"/></mask><path fill="#000" mask="url(#b)" d="M-9.386 5.491l43.743-15.92L49.7 31.726 5.958 47.648z"/></g><g transform="translate(35 6)"><mask id="d" fill="#fff"><use xlink:href="#c"/></mask><path fill="#000" mask="url(#d)" d="M-5.74.533L13.28-6.39l3.974 10.92-19.019 6.922z"/></g><g transform="translate(36 9)"><mask id="f" fill="#fff"><use xlink:href="#e"/></mask><path fill="#000" mask="url(#f)" d="M-5.631.577l19.019-6.922 3.974 10.92-19.02 6.922z"/></g><g transform="translate(38 12)"><mask id="h" fill="#fff"><use xlink:href="#g"/></mask><path fill="#000" mask="url(#h)" d="M-6.523.622L12.496-6.3 16.47 4.619-2.549 11.54z"/></g></g></svg>