<svg xmlns="http://www.w3.org/2000/svg" width="12" height="14" viewBox="0 0 12 14">
    <g fill="none" fill-rule="evenodd">
        <path fill-rule="nonzero" d="M-6-5h24v24H-6z"/>
        <g fill="#000" fill-rule="nonzero">
            <path d="M.241 12.817h3.386v1H.241zM.241 12.638h3.387V3.78H.24v8.858zM.66 4.403h.428v7.7H.66v-7.7zM.241.333v3.224h3.387V.333H.24zm.846 3.07H.66V.513h.428v2.89z"/>
            <g transform="translate(4.138 1.583)">
                <path d="M4.444 8.653v3.224H7.83V8.653H4.444zm.846 3.07h-.428v-2.89h.428v2.89zM.39 11.244h3.386v1H.39zM3.45 2.207v-.729h-.186V1.24H2.7V.263H1.636v.977h-.64v.238H.794v.73H.391v8.857h3.386V2.207h-.328zM1.236 10.53H.81v-7.7h.428v7.7zm.94-9.527a.25.25 0 0 1-.25-.251.25.25 0 0 1 .25-.252.25.25 0 0 1 .25.252.25.25 0 0 1-.25.25z"/>
                <circle cx="2.198" cy=".773" r="1"/>
            </g>
        </g>
    </g>
</svg>
