<svg xmlns="http://www.w3.org/2000/svg" width="24" height="24" viewBox="0 0 24 24">
    <g fill="none" fill-rule="evenodd">
        <path fill-rule="nonzero" d="M0 0h24v24H0z"/>
        <g fill="#000" fill-rule="nonzero">
            <path d="M9.323 8.33a3.564 3.564 0 0 0-2.606-.065c-1.862.677-2.821 2.753-2.139 4.628a3.624 3.624 0 0 0 2.573 2.29c.632.983 1.442 1.88 2.212 2.676.696.716 1.64 1.589 2.621.744.82-.706.472-1.653-.119-2.345-.453-.531-1.022-1.202-1.488-1.913.454-.415.79-.94.983-1.516l3.596-2.217 1.615-.39-1.2-3.3-1.489.74-4.56.668zM7 9.707c-.053.093-.11.2-.169.33a3.4 3.4 0 0 0-.291.92c-.04.212-.074.396-.237.75a2.63 2.63 0 0 1-.4.643A2.174 2.174 0 0 1 7 9.707zm-.242 3.764a2.179 2.179 0 0 1-.477-.435c.053-.076.105-.14.16-.208.145-.179.31-.381.51-.816a3.4 3.4 0 0 0 .292-.92c.04-.213.074-.397.237-.75.163-.353.28-.498.417-.665.046-.058.095-.117.146-.186.232.01.46.06.674.142a3.084 3.084 0 0 1-.203.272c-.146.179-.31.381-.511.816-.201.435-.25.692-.292.92-.04.213-.074.397-.237.75a2.66 2.66 0 0 1-.416.665c-.091.112-.19.234-.3.415zm1.485.15a4.615 4.615 0 0 0-.169.217 2.148 2.148 0 0 1-.655-.068c.065-.099.127-.175.194-.257.145-.18.31-.382.51-.817.201-.434.25-.692.292-.92.04-.212.074-.396.237-.75.163-.353.28-.497.417-.665.082-.1.17-.21.267-.363.149.124.282.269.395.432l-.032.04c-.146.178-.31.381-.511.816-.2.435-.249.692-.291.92-.04.213-.074.396-.238.75-.163.353-.28.498-.416.665zm.983-.19a4.76 4.76 0 0 0 .082-.17c.201-.434.25-.692.292-.92.04-.212.074-.396.237-.75.084-.181.156-.308.224-.41.2.859-.142 1.746-.835 2.25zm2.785-4.742a.194.194 0 0 1-.16.224l-1.353.218a.195.195 0 0 1-.063-.386l1.353-.217a.195.195 0 0 1 .223.161zm1.399-.225a.194.194 0 0 1-.16.224l-.61.098a.195.195 0 0 1-.062-.386l.609-.097a.195.195 0 0 1 .223.161zM16.152 7.423a.994.994 0 0 1 .458-.065c.146.007.312.015.584-.084.272-.1.394-.212.5-.31a.994.994 0 0 1 .394-.246.995.995 0 0 1 .46-.065c.145.007.31.015.583-.084a.161.161 0 0 0 .095-.208.161.161 0 0 0-.206-.097.995.995 0 0 1-.459.066c-.146-.007-.311-.015-.583.084-.273.099-.394.211-.502.31a.994.994 0 0 1-.393.245.994.994 0 0 1-.459.065c-.146-.007-.31-.014-.583.085a.161.161 0 0 0-.096.207c.03.084.123.127.207.097zM19.39 7.28a.994.994 0 0 1-.46.064c-.145-.007-.31-.014-.583.085-.272.099-.394.211-.501.31a.994.994 0 0 1-.394.245.994.994 0 0 1-.458.065c-.146-.007-.312-.015-.584.085a.161.161 0 0 0-.096.207c.031.084.124.127.207.097a.994.994 0 0 1 .459-.065c.146.007.31.015.583-.084.272-.1.394-.212.501-.311a.995.995 0 0 1 .394-.245.995.995 0 0 1 .459-.065c.145.007.31.015.583-.084a.161.161 0 0 0 .096-.208.161.161 0 0 0-.207-.097zM19.759 8.294a.994.994 0 0 1-.46.065c-.145-.007-.31-.015-.583.085-.272.099-.394.211-.5.31a.994.994 0 0 1-.394.245.994.994 0 0 1-.459.065c-.146-.007-.311-.015-.583.084a.161.161 0 0 0-.096.208c.03.084.123.127.206.097a.994.994 0 0 1 .46-.065c.145.007.31.015.583-.085.272-.099.393-.211.5-.31a.995.995 0 0 1 .394-.245.995.995 0 0 1 .459-.065c.146.007.311.015.583-.084a.161.161 0 0 0 .096-.208.161.161 0 0 0-.206-.097z"/>
        </g>
    </g>
</svg>
