<svg xmlns="http://www.w3.org/2000/svg" width="14" height="14" viewBox="0 0 14 14">
    <g fill="none" fill-rule="evenodd">
        <path d="M-5-5h24v24H-5z"/>
        <g fill="#000" fill-rule="nonzero">
            <path d="M13.528 11.747c-.104-.102-2.664-2.63-5.31-5.247 1.213-1.753 3.9-5.726 3.9-5.726l.07-.352L7.41 5.601l.005.106L2.312.665C2.182.537 1.999.65 1.87.78 1.74.912.512 2.207.333 2.387c.192.23.357.194.496.053.14-.14 1.068-1.08 1.068-1.08l.126.125L.91 2.612l.15.15 1.115-1.128.126.125-1.114 1.127.15.15L2.45 1.907l.13.13-1.113 1.127.151.149 1.114-1.128.127.125-1.114 1.127.15.15L3.01 2.458l.105.105-1.114 1.128.151.149 1.114-1.128.126.125-1.114 1.128.151.149 1.114-1.128.134.132-1.115 1.128.151.148 1.114-1.128.127.125L2.84 4.52l.15.149L4.104 3.54l.131.13-1.114 1.127.15.15L4.385 3.82l.127.124-1.114 1.128.151.149 1.114-1.128.106.105-1.114 1.128.15.149L4.92 4.347l.126.125-1.114 1.127.151.149L5.197 4.62l.106.105L4.19 5.852l.151.15 1.114-1.128.126.124-1.115 1.129.151.149L5.73 5.148l.13.13-1.113 1.127.15.149 1.115-1.128.126.125-1.114 1.127.115.113a6.249 6.249 0 0 1-2.198.139c-.612-.165-1.332.017-1.858.534-.753.74-.826 1.89-.165 2.563.662.672 1.813.616 2.566-.125l.006-.007c0 .006-.002.01-.002.01l3.656-3.361.061.06L6.091 7.73l.15.148.066-.066-2.427 2.571c-.025.023-.05.043-.074.067-.753.741-.827 1.891-.165 2.563.661.672 1.812.616 2.565-.125.537-.529.726-1.265.552-1.887-.016-.129-.184-1.68.55-3.133l.581-.59 5.086 5.026c.154.155.77-.344.553-.558zM7.812 5.633a.292.292 0 1 1 .41.415.292.292 0 0 1-.41-.415zM3.095 9.507c-.535.527-1.335.585-1.782.13-.447-.453-.376-1.252.159-1.779.535-.526 1.334-.585 1.78-.13.449.455.378 1.253-.157 1.78zM6.672 6.08l-.12.12a4.5 4.5 0 0 1-.535.29l.529-.535.126.125zM6.289 5.7l.106.105-.86.87c-.1.034-.2.064-.299.09L6.29 5.7zm-.472 6.796c-.535.526-1.335.584-1.782.13-.447-.454-.376-1.252.16-1.78.534-.526 1.333-.584 1.78-.13.447.455.376 1.253-.158 1.78z"/>
            <path d="M9 5.752l4.56-4.186-.367.084s-1.218.827-2.601 1.77C10.055 4.21 9.48 5.051 9 5.751z"/>
        </g>
    </g>
</svg>
