<svg xmlns="http://www.w3.org/2000/svg" width="14" height="14" viewBox="0 0 14 14">
    <g fill="none" fill-rule="evenodd">
        <path d="M-5-5h24v24H-5z"/>
        <g fill="#000" fill-rule="nonzero">
            <path d="M11.606 2.417c.391-.487.129-.931.129-.931l-.197.185-.248-.231-5.455 4.824.167.176-3.67 3.178 3.28-3.594.172.169L10.746.869l-.228-.25.19-.193s-.44-.27-.94.11c-.498.38-8.2 8.896-8.412 9.164-.09.114-.05.254.025.376l-.692.65.43.453.684-.643c.13.092.287.155.418.058.273-.204 8.994-7.69 9.385-8.177zM13.617 3.937c.063-.104.01-.277-.13-.408-.141-.13-.32-.17-.42-.1l-.003-.003-.409.436-.132-.122-.158.17-.32-.296-.102.11.319.295-.076.082-.32-.296-.102.11.319.294-.118.126-.32-.295-.101.109.32.296-.078.082-.319-.296-.103.11.32.295-.092.098-.32-.296-.102.11.32.295-.077.082-.32-.295-.102.11.32.295-.093.098-.32-.296-.102.11.32.295-.078.082-.32-.295-.102.109.32.296-.087.092-.32-.295-.102.11.32.295-.077.082-.32-.296-.102.11.32.295-.098.104-.32-.296-.102.11.32.295-.078.082-.32-.296-.101.11.319.295-.107.115-.327-.302-.102.11.325.302-.076.082-.327-.302-.101.109.325.301-.843.9-.092-.066-.451.481s-.562-.255-.493-.11c.194.385-.863 1.446-1.172 1.568-.59.311-2.205 2.12-2.51 2.675-.3.55-.638.784-.069 1.301.56.528.773.176 1.303-.161.535-.341 2.238-2.07 2.508-2.676.101-.315 1.093-1.438 1.492-1.273.151.059-.145-.48-.145-.48l.114-.121c.196.263.887 1.377-.125 2.847-.002.085.077.214.13.201 1.1-1.042.912-3.328.912-3.328s.162-.084.16-.169c-.004-.078-.17-.427-.195-.481l.314-.335.313.29.102-.11-.313-.29.077-.08.313.288.103-.109-.314-.29.107-.114.32.296.103-.11-.32-.295.077-.082.32.296.102-.109-.32-.296.098-.104.32.296.102-.11-.32-.295.077-.082.32.296.103-.11-.32-.295.087-.093.32.296.102-.11-.32-.295.078-.083.32.296.102-.11-.32-.295.092-.098.32.295.102-.11-.32-.295.078-.082.32.296.102-.109-.32-.296.093-.098.32.296.102-.11-.32-.296.077-.08.32.295.102-.11-.319-.296.118-.125.32.296.102-.11-.32-.295.077-.082.32.296.102-.11-.32-.296.16-.169-.15-.137.41-.436-.006-.003z"/>
        </g>
    </g>
</svg>
