<svg xmlns="http://www.w3.org/2000/svg" width="24" height="26"><path fill="#323232" fill-rule="evenodd" stroke="#323232" stroke-width=".3" d="M23.496 10.96c-.051-.384-.627-.996-.727-1.369-.1-.374.092-1.19-.056-1.548-.149-.357-.863-.798-1.058-1.134-.194-.335-.22-1.173-.456-1.48-.236-.307-1.04-.548-1.315-.822-.275-.274-.517-1.076-.825-1.312-.308-.236-1.148-.262-1.484-.455-.336-.194-.779-.906-1.137-1.054-.36-.149-1.177.043-1.552-.057s-.987-.674-1.372-.725c-.385-.05-1.126.346-1.514.346-.388 0-1.128-.396-1.513-.346-.385.05-.993.646-1.373.725-.38.079-1.193-.092-1.551.057-.359.147-.801.86-1.138 1.054-.336.194-1.175.22-1.484.455-.307.236-.566 1.023-.824 1.312-.259.288-1.08.515-1.316.823-.236.306-.263 1.144-.456 1.48-.194.334-.909.776-1.058 1.133-.148.358.044 1.174-.056 1.548-.1.374-.676.985-.727 1.369-.05.383.347 1.122.347 1.509 0 .387-.397 1.125-.347 1.51.051.383.627.994.727 1.368.1.373-.092 1.19.056 1.547.149.358.863.799 1.058 1.134.194.336.22 1.173.456 1.48.236.307 1.04.55 1.316.823.274.273.517 1.076.824 1.312.309.235 1.148.261 1.484.454.337.194.78.907 1.138 1.055.358.148 1.176-.044 1.551.056.066.018.14.05.217.092.639 1.053 1.586 1.696 2.669 1.7 1.083-.004 2.03-.647 2.669-1.7.078-.041.151-.074.217-.092.374-.1 1.193.092 1.551-.056.36-.148.801-.86 1.138-1.055.336-.193 1.176-.219 1.484-.454.307-.236.55-1.039.825-1.312.274-.274 1.079-.516 1.315-.823.236-.307.262-1.144.456-1.48.195-.335.91-.776 1.057-1.134.149-.358-.043-1.173.057-1.547.1-.374.676-.985.726-1.369.051-.384-.346-1.122-.346-1.51 0-.386.397-1.125.347-1.508m-.575.097c-.048-.366-.595-.948-.69-1.304-.096-.356.087-1.133-.054-1.474-.14-.34-.82-.76-1.004-1.08-.185-.319-.21-1.117-.434-1.409-.224-.293-.988-.523-1.25-.784-.26-.26-.49-1.024-.783-1.249-.293-.224-1.09-.249-1.41-.433-.32-.185-.74-.863-1.08-1.004-.341-.142-1.118.04-1.474-.054-.357-.096-.938-.642-1.304-.69-.365-.049-1.07.33-1.438.33-.369 0-1.072-.378-1.437-.33-.366.048-.943.614-1.304.69-.361.075-1.134-.088-1.474.054-.341.14-.761.82-1.081 1.004-.32.184-1.117.209-1.41.433-.292.225-.538.974-.783 1.25-.246.274-1.026.49-1.25.783-.224.292-.25 1.09-.434 1.41-.184.318-.863.739-1.004 1.08-.141.34.042 1.117-.054 1.473-.095.356-.642.938-.69 1.304-.048.365.33 1.069.33 1.437 0 .369-.378 1.072-.33 1.438.048.365.595.947.69 1.303.096.356-.087 1.133.054 1.473.141.341.82.761 1.004 1.08.185.32.21 1.118.434 1.41.224.292.989.523 1.25.784.26.26.491 1.025.783 1.25.293.223 1.09.248 1.41.432.32.185.74.863 1.08 1.004.341.141 1.118-.04 1.475.054.062.017.132.048.206.087.606 1.003 1.506 1.615 2.535 1.62 1.03-.005 1.929-.617 2.535-1.62a1 1 0 0 1 .206-.087c.356-.095 1.134.087 1.474-.054.341-.14.761-.82 1.081-1.004.32-.184 1.117-.209 1.41-.433.292-.224.523-.989.784-1.25.26-.26 1.025-.49 1.25-.783.223-.292.248-1.09.432-1.41.185-.319.864-.739 1.005-1.08.14-.34-.042-1.117.053-1.473.096-.356.643-.938.69-1.303.049-.366-.329-1.07-.329-1.438 0-.368.378-1.072.33-1.437m-7.791 9.197c-.083 1.46-.623 2.7-1.412 3.44-.493.464-1.083.732-1.718.735-.636-.003-1.226-.271-1.72-.735-.787-.74-1.328-1.98-1.41-3.44-.099-1.746.197-2.988.878-3.691.504-.52 1.24-.774 2.251-.775 1.011.001 1.748.255 2.252.775.682.703.977 1.945.879 3.691"/></svg>