<svg xmlns="http://www.w3.org/2000/svg" xmlns:xlink="http://www.w3.org/1999/xlink" width="20" height="20"><defs><path id="a" d="M0 0h20v20H0z"/><path id="c" d="M.946.333H10v20H5.834l-.14-3.241c-.288-1.312-1.38-2.355-2.565-2.832l-1.686-.402c-.084-.055-.972.16-1.044-.003l-.039-.086a.26.26 0 0 1-.006-.136h2.775c.07-.004 1.75-.102 2.565-.851a.57.57 0 0 0 .07-.734c-.644-.922-2.751-4.19-2.813-7.541C2.95 4.47 2.793 1.827.946.333z"/></defs><g fill="none" fill-rule="evenodd"><mask id="b" fill="#fff"><use xlink:href="#a"/></mask><path stroke="#000" d="M14.79 19.5l-.558-2.397a3.161 3.161 0 0 0-1.961-2.244l-2.256-.865c-.177-.11-.254-.236-.387-.513l-.03-.065-.038-.08a.694.694 0 0 1-.043-.44L9.6 12.5h3.061c.755-.04 1.69-.236 2.17-.645-1.537-2.07-2.766-4.61-2.814-7.123a4.578 4.578 0 0 0-.107-.669 5.59 5.59 0 0 0-.549-1.473C10.643 1.288 9.467.515 7.668.5c-1.805.015-2.98.788-3.697 2.09a5.631 5.631 0 0 0-.548 1.477 4.71 4.71 0 0 0-.106.656C3.268 7.246 2.04 9.783.502 11.855c.482.41 1.443.61 2.16.645h3.074l.083.399a.69.69 0 0 1-.046.437l-.038.08-.03.065c-.132.276-.21.402-.473.556l-2.17.822a3.162 3.162 0 0 0-1.961 2.244L.543 19.5H14.79zm-9.925-6.583l.007-.014a.55.55 0 0 0-.007.014z" mask="url(#b)"/><g mask="url(#b)"><g transform="translate(10 -.333)"><mask id="d" fill="#fff"><use xlink:href="#c"/></mask><path stroke="#000" d="M-2.961 15.764a1.679 1.679 0 0 1-.232-.042c.103.043.193.132.193.365 0-.049.012-.152.039-.323zm-.232-.042a.311.311 0 0 1 .015.006zm1.075-4.747l.003-.079h-.5l.48.137.017-.058zm1.536-6.07c.02-.238.003-.363-.151-.525a.51.51 0 0 0-.692-.056.716.716 0 0 0-.17.18c-.017.023-.017.023-.058.108-.092.393-.092.393.587.67.202-.094.202-.094.215-.113.042-.038.042-.038.085-.08a8.24 8.24 0 0 0 .184-.185zm1.756-3.007a.764.764 0 0 0-.006-.003c.045.023.033-.018-.035.061a.685.685 0 0 1 .041-.058zm-.04.058a.62.62 0 0 0 0-.004zM9.46 15.587v.172c0-.095.077-.172.172-.172H9.46z" mask="url(#d)"/></g></g></g></svg>