<svg width="48" height="48" xmlns="http://www.w3.org/2000/svg" xmlns:xlink="http://www.w3.org/1999/xlink"><defs><path d="M20.8 17.34C17.95 13.09 19.66.899 17.095.164 14.815-.518 7.743 4.13 4.265 10.31c-3.478 6.181-7.754 15.421.913 21.263C9.91 35.2 3.811 36.902 2.726 34.01c-.1 5.88 5.708 6.032 6.557 1.871.591-2.897-2.95-8.973-4.047-11.907C2.555 16.832 10.48 7.25 10.48 7.25S3.41 18.817 6.26 24.43c9.752 14.289 3.261 13.948.741 15.65 9.523.454 12.796-7.897 13.343-9.015 1.253-3.346.484-9.3-2.623-12.132-.741-.653-1.425.14-4.006 0-2.58-.144-1.182-2.552-1.182-2.552s-.89-.752-.913-1.077c-.022-.325.797-.567.797-.567s-.798-.427-.855-.794c-.056-.371.857-1.25.857-1.25s-1.205-.552-1.227-1.105c-.022-.553 1.314-1.465 2.594-4.11.968-2 .912-5.33 2.451-6.096.913 1.56-2.849 13.466 3.308 17.266 1.14.623 8.438 6.293 2.45 13.606 6.616-4.592.598-12.294-1.195-14.912z" id="a"/><path d="M8.646.368c2.851 3.347-.057 15.99 6.671 20.185 9.121 6.464 2.692 15.178 1.368 17.52 2.281-6.576 2.11-9.979 1.026-12.643-1.084-2.664-7.924-9.751-9.008-13.325C7.62 8.532 7.278-1.33 2.03.465c4.85 6.085 1.913 11.664 8.527 20.03 6.613 8.367 5.272 20.129-.255 22.849 8.637-11.367 1.026-20.24-1.198-23.757-1.176-1.86-3.648-3.401-3.877-7.71C4.998 7.568 1.986.112.779.54 3.915 6.72.665 15.394 7.677 23.73c4.789 5.216 6.9 16.556-1.195 22.168 8.495-.34 13.398-9.354 15.45-15.196 2.737-8.107-5.075-15.08-6.556-17.916C13.893 9.95 13.093.426 8.646.368z" id="c"/><path d="M8.593 8.524C5.856 4.187 2.06 1.644.643.573c3.888 6.676 3.63 9.652 5.041 11.695 1.411 2.04 3.891 2.51 6.244 9.806.085-1.037-.599-9.21-3.335-13.55z" id="e"/><path d="M4.026 5.188c.192 1.061 1.132 6.548 1.86 7.57-.47-6.719.173-6.337-.385-8.846C4.944 1.402 3.961.042.711 0c3.25 2.721 3.123 4.128 3.315 5.188z" id="g"/></defs><g fill="none" fill-rule="evenodd"><g transform="translate(4 2)"><mask id="b" fill="#fff"><use xlink:href="#a"/></mask><path fill="#000" mask="url(#b)" d="M-4.916 45.097h34.94v-50h-34.94z"/></g><g transform="translate(21 1)"><mask id="d" fill="#fff"><use xlink:href="#c"/></mask><path fill="#000" mask="url(#d)" d="M-4.22 50.897h31.729V-4.751h-31.73z"/></g><g transform="translate(32 2)"><mask id="f" fill="#fff"><use xlink:href="#e"/></mask><path fill="#000" mask="url(#f)" d="M-4.358 27.074h21.293V-4.427H-4.358z"/></g><g transform="translate(25 1)"><mask id="h" fill="#fff"><use xlink:href="#g"/></mask><path fill="#000" mask="url(#h)" d="M-4.288 17.758h15.173V-5H-4.288z"/></g></g></svg>