<svg width="48" height="48" xmlns="http://www.w3.org/2000/svg" xmlns:xlink="http://www.w3.org/1999/xlink"><defs><path d="M39.584 34.242C39.27 33.935 31.59 26.35 23.65 18.5c3.642-5.258 11.704-17.177 11.704-17.177l.21-1.055-14.337 15.534.013.318C13.463 8.432 6.12 1.177 5.935.996c-.391-.386-.938-.048-1.326.345C4.219 1.736.535 5.62 0 6.16c.574.694 1.07.584 1.486.161L4.69 3.08l.38.375-3.343 3.383.452.446L5.52 3.9l.379.375L2.557 7.66l.453.447 3.341-3.382.391.387-3.34 3.383.453.447L7.197 5.56l.38.373-3.343 3.383.452.446L8.03 6.378l.317.314-3.342 3.383.452.448L8.8 7.139l.379.375-3.343 3.384.452.446L9.63 7.96l.4.395-3.342 3.384.452.446 3.343-3.383.378.374L7.52 12.56l.452.446 3.341-3.382.393.388-3.342 3.383.45.446 3.343-3.382c.127.123.253.248.38.373l-3.342 3.383.454.447 3.34-3.382c.104.104.213.209.32.314l-3.343 3.383.453.447 3.342-3.384c.125.125.251.25.379.375l-3.343 3.383.454.446 3.342-3.383.318.314-3.342 3.383.452.446 3.343-3.383c.126.125.25.249.378.374l-3.345 3.385.453.448 3.342-3.384.392.387-3.342 3.384.453.446 3.341-3.382.379.373-3.342 3.383.344.339c-3.471.861-6.472.432-6.594.415-1.836-.495-3.994.051-5.572 1.603-2.259 2.222-2.48 5.672-.495 7.688 1.986 2.016 5.439 1.849 7.696-.374l.02-.022a.268.268 0 0 1-.006.034L20.433 18.63c.06.06.12.12.182.179l-3.342 3.383.45.444.198-.198-7.28 7.713c-.075.068-.151.13-.223.2-2.258 2.224-2.48 5.674-.495 7.69 1.985 2.015 5.437 1.85 7.696-.376 1.611-1.585 2.178-3.793 1.655-5.661-.048-.385-.552-5.036 1.647-9.398l1.747-1.77c7.716 7.625 15.04 14.864 15.258 15.077.462.465 2.309-1.03 1.658-1.672zM22.436 15.9a.875.875 0 1 1 1.228 1.25.875.875 0 1 1-1.228-1.25zM8.284 27.52c-1.605 1.58-4.003 1.756-5.345.393-1.342-1.363-1.128-3.758.476-5.339 1.605-1.58 4.003-1.755 5.344-.39 1.343 1.364 1.13 3.758-.475 5.336zm10.731-10.285l-.358.363c-.527.331-1.064.623-1.606.869l1.587-1.605c.126.123.252.248.377.373zM17.866 16.1l.319.316-2.58 2.611c-.301.1-.6.19-.896.27l3.157-3.197zM16.45 36.487c-1.605 1.58-4.002 1.754-5.344.392-1.342-1.364-1.129-3.758.476-5.339 1.605-1.581 4.003-1.755 5.344-.392 1.341 1.365 1.128 3.76-.476 5.34z" id="a"/><path d="M0 13.256L13.68.697 12.579.95S8.924 3.43 4.775 6.258C3.164 8.628 1.442 11.155 0 13.256z" id="c"/></defs><g fill="none" fill-rule="evenodd"><g transform="translate(4 4)"><mask id="b" fill="#fff"><use xlink:href="#a"/></mask><path fill="#000" mask="url(#b)" d="M-5 44.45h49.721V-4.732H-5z"/></g><g transform="translate(30 7)"><mask id="d" fill="#fff"><use xlink:href="#c"/></mask><path fill="#000" mask="url(#d)" d="M-5 18.256h23.68V-4.303H-5z"/></g></g></svg>