<svg width="48" height="48" xmlns="http://www.w3.org/2000/svg" xmlns:xlink="http://www.w3.org/1999/xlink"><defs><path d="M32.818 6.25c1.173-1.461.386-2.793.386-2.793l-.591.557-.743-.695-16.365 14.474.501.526-11.01 9.534 9.838-10.78.517.506L30.237 1.606l-.683-.75.571-.578s-1.324-.807-2.819.33C25.811 1.746 2.702 27.296 2.07 28.098c-.27.345-.15.764.073 1.129L.066 31.179l1.292 1.357 2.05-1.927c.39.276.862.465 1.254.174.82-.612 26.982-23.07 28.156-24.533z" id="a"/><path d="M29.852 1.812c.187-.312.029-.833-.393-1.224-.422-.39-.957-.511-1.258-.301l-.008-.009-1.227 1.31-.396-.367-.475.507-.958-.886-.307.327.956.888-.23.245-.958-.887-.307.327.958.886-.354.378-.958-.887-.306.327.96.888-.233.246-.956-.888-.309.328.96.887-.277.295-.958-.887-.31.327.961.888-.23.246-.96-.887-.307.329.96.886-.278.294-.96-.886-.307.327.959.888-.232.246-.958-.887-.307.327.96.888-.26.278-.96-.886-.308.327.96.888-.23.245-.96-.887-.308.328.959.887-.29.312-.96-.89-.307.33.958.887-.233.245-.957-.886-.307.328.957.887-.321.345-.98-.907-.307.33.977.905-.23.246-.979-.906-.305.327.977.905-2.53 2.697-.276-.196-1.354 1.443s-1.684-.764-1.478-.329c.583 1.153-2.588 4.338-3.517 4.704-1.769.933-6.613 6.361-7.527 8.025-.902 1.646-1.917 2.35-.208 3.903 1.68 1.584 2.317.527 3.907-.485 1.607-1.023 6.715-6.208 7.526-8.027.302-.945 3.277-4.313 4.475-3.818.453.176-.436-1.442-.436-1.442l.342-.363c.59.791 2.663 4.132-.373 8.541-.007.256.23.642.388.605 3.301-3.126 2.737-9.984 2.737-9.984s.485-.254.478-.507c-.01-.235-.508-1.282-.584-1.444l.942-1.006.939.869.308-.327-.94-.869.23-.244.94.867.308-.328-.94-.869.321-.343.96.888.308-.327-.958-.888.23-.247.958.888.307-.326-.958-.889.292-.31.96.887.306-.328-.96-.887.232-.246.96.888.308-.328-.96-.886.262-.28.959.887.307-.328-.958-.887.23-.247.959.887.307-.327-.96-.887.278-.296.96.887.306-.328-.959-.888.231-.245.96.888.308-.328-.96-.888.278-.294.958.887.309-.327-.96-.889.23-.244.96.887.307-.33-.958-.886.353-.377.959.888.308-.328-.959-.887.23-.246.96.888.306-.329-.959-.887.477-.508-.447-.412 1.227-1.308-.015-.007z" id="c"/></defs><g fill="none" fill-rule="evenodd"><g transform="translate(5 4)"><mask id="b" fill="#fff"><use xlink:href="#a"/></mask><path fill="#000" mask="url(#b)" d="M-4.934 37.536h43.397V-5H-4.934z"/></g><g transform="translate(14 13)"><mask id="d" fill="#fff"><use xlink:href="#c"/></mask><path fill="#000" mask="url(#d)" d="M-4.42 35.996h39.35V-4.815H-4.42z"/></g></g></svg>