<svg width="48" height="48" xmlns="http://www.w3.org/2000/svg" xmlns:xlink="http://www.w3.org/1999/xlink"><defs><path d="M15.92.566H3.936C1.79.566.04 2.278.04 4.385V30.13c0 2.103 1.747 3.82 3.897 3.82H15.92c2.146 0 3.898-1.712 3.898-3.82V4.385c0-2.107-1.747-3.82-3.898-3.82zM2.206 4.385c0-.938.777-1.695 1.73-1.695H15.92c.957 0 1.73.761 1.73 1.695v5.123H2.206V4.385z" id="a"/><path d="M8.911 1.703C8.911.761 8.135 0 7.173 0h-4.49C1.722 0 .945.761.945 1.703v3.26h7.962v-3.26h.004z" id="c"/><path d="M6.373 3.012h6.708c.49 0 .885-.387.885-.867V.866A.874.874 0 0 0 13.08 0H4.947C2.574 0 .651 1.889.651 4.215v31.537c0 2.326 1.923 4.21 4.296 4.21h8.13c.49 0 .884-.387.884-.866v-1.283a.874.874 0 0 0-.884-.867H6.373a.874.874 0 0 1-.885-.866v-.77c0-.48.395-.866.885-.866h6.708c.49 0 .885-.387.885-.867v-1.013a.874.874 0 0 0-.885-.867H6.373a.874.874 0 0 1-.885-.866v-.77c0-.48.395-.867.885-.867h6.708c.49 0 .885-.387.885-.866v-1.014a.874.874 0 0 0-.885-.866H6.373a.874.874 0 0 1-.885-.867v-.77c0-.479.395-.866.885-.866h6.708c.49 0 .885-.387.885-.866v-1.014a.874.874 0 0 0-.885-.866H6.373a.874.874 0 0 1-.885-.867v-.77c0-.479.395-.866.885-.866h6.708c.49 0 .885-.387.885-.866v-1.014a.874.874 0 0 0-.885-.867H6.373a.874.874 0 0 1-.885-.866v-.77c0-.48.395-.866.885-.866h6.708c.49 0 .885-.387.885-.867v-1.013a.874.874 0 0 0-.885-.867H6.373a.874.874 0 0 1-.885-.866v-.77c0-.48.395-.866.885-.866h6.708c.49 0 .885-.387.885-.867V6.318a.874.874 0 0 0-.885-.867H6.373a.874.874 0 0 1-.885-.866v-.77c0-.416.395-.803.885-.803z" id="e"/></defs><g fill="none" fill-rule="evenodd"><g transform="translate(6 10)"><mask id="b" fill="#fff"><use xlink:href="#a"/></mask><path fill="#000" mask="url(#b)" d="M-4.961 38.95h29.779V-4.434h-29.78z"/></g><g transform="translate(11 4)"><mask id="d" fill="#fff"><use xlink:href="#c"/></mask><path fill="#000" mask="url(#d)" d="M-4.055 9.963H13.91V-5H-4.055z"/></g><g transform="translate(29 4)"><mask id="f" fill="#fff"><use xlink:href="#e"/></mask><path fill="#000" mask="url(#f)" d="M-4.35 44.962h23.316V-5H-4.35z"/></g></g></svg>