<?xml version="1.0" encoding="UTF-8"?>
<svg width="526px" height="448px" viewBox="0 0 526 448" version="1.1" xmlns="http://www.w3.org/2000/svg" xmlns:xlink="http://www.w3.org/1999/xlink">
    <!-- Generator: Sketch 51.2 (57519) - http://www.bohemiancoding.com/sketch -->
    <title>3</title>
    <desc>Created with Sketch.</desc>
    <defs>
        <polygon id="path-1" points="0.333158824 0.291188333 55.8081176 0.291188333 55.8081176 10.1257994 0.333158824 10.1257994"></polygon>
        <polygon id="path-3" points="0.333158824 0.216027778 55.8081176 0.216027778 55.8081176 10.0506389 0.333158824 10.0506389"></polygon>
        <polygon id="path-5" points="0.333158824 0.253629444 55.8081176 0.253629444 55.8081176 10.0882406 0.333158824 10.0882406"></polygon>
    </defs>
    <g id="3" stroke="none" stroke-width="1" fill="none" fill-rule="evenodd">
        <g id="1" transform="translate(22.000000, 38.000000)">
            <polygon id="Shape-Copy-12" fill="#FDF0E9" fill-rule="nonzero" points="348 166.865546 374.61 166.865546 374.61 196.565546 348 196.565546"></polygon>
            <polygon id="Shape-Copy-13" fill="#FFDCCE" fill-rule="nonzero" points="114.178927 240.177733 142.002184 240.177733 142.002184 268.813464 113.19693 270.377834"></polygon>
            <polygon id="Shape" fill="#FFB6A3" fill-rule="nonzero" points="269.526185 166 299.331439 166 299.331439 194.200101 269.526185 194.200101"></polygon>
            <polygon id="Shape" fill="#FF9282" fill-rule="nonzero" points="230.546262 164.499899 258.877701 164.499899 258.877701 192.7 230.546262 192.7"></polygon>
            <polygon id="Shape-Copy-11" fill="#FFDCCE" fill-rule="nonzero" points="309 165.920803 337.331439 165.920803 337.331439 194.120904 309 194.120904"></polygon>
            <path d="M378.9,269.97 C381.84,268.67 384.22,267.78 386.41,266.53 C387.143752,265.846521 387.55117,264.88254 387.53,263.88 C387.62,254.52 387.46,245.15 387.64,235.79 C387.802949,229.278426 388.303622,222.779692 389.14,216.32 C392,232.44 390.43,248.71 391.01,265.21 C398.01,263.85 404.45,266.57 411.15,267.27 C419.86,268.18 428.06,266.33 435.15,261.01 C439.068929,257.928008 442.777214,254.587211 446.25,251.01 C452.8,244.52 461.71,243.01 468.89,247.34 C476.74,252.1 479.39,262.34 474.64,270.79 C469.49,279.96 461.05,284.66 451.14,287.05 C441.8,289.3 432.94,288.36 424.75,282.94 C422.031393,281.119997 419.202642,279.47017 416.28,278 C409.9,274.84 405.81,275.62 400.8,280.65 C398.678628,283.022306 396.417966,285.266272 394.03,287.37 C390.85,289.87 390.41,292.94 391.23,296.99 C392.46,295.78 393.52,294.76 394.56,293.71 C398.22,290.04 401.84,286.33 405.56,282.71 C408.3,280.01 410.48,279.71 413.93,281.45 C414.5,281.73 415.06,282.04 415.62,282.33 C420.27,284.81 420.62,285.49 420.12,290.85 C419.59,296.85 417.18,302.24 414.12,307.33 C408.35,316.79 400.87,324.84 393.28,332.82 C392.184085,334.06056 391.542327,335.636748 391.46,337.29 C391.29,344.65 391.46,352.01 391.46,359.38 C391.46,362.56 390.82,363.19 387.59,363.2 C377.05,363.2 366.5,363.14 355.96,363.32 C353.721762,363.348813 351.520727,363.896504 349.53,364.92 C335.75,372.38 321.33,378.35 306.71,383.92 C306.130136,384.076343 305.542714,384.203173 304.95,384.3 L325.58,363.44 C321.88,363 319.13,362.77 316.63,365.56 C312.39,370.29 307.73,374.66 303.25,379.17 C302.60903,379.886726 301.770611,380.398127 300.84,380.64 L307.72,363.31 C272.14,362.6 236.84,364.9 201.72,361.19 L201.67,360.13 C204.67,359.65 207.67,358.99 210.67,358.73 C215.28,358.33 219.91,358 224.54,357.99 C252.086667,357.99 279.63,358.053333 307.17,358.18 C309.3,358.18 310.37,357.61 311.22,355.62 C316.558532,343.193183 322.927412,331.234807 330.26,319.87 C332.06,317.09 333.91,314.34 336.01,311.17 C334.66,311.07 333.72,310.96 332.78,310.95 C326.24,310.95 319.69,310.84 313.15,310.95 C311.33,310.95 310.58,310.6 310.59,308.57 C310.63,300.03 310.563333,291.49 310.39,282.95 C310.39,280.6 310.84,279.95 313.44,280.03 C321.78,280.32 330.13,280.27 338.44,280.12 C341,280.12 341.75,280.81 341.63,283.34 C341.36,288.97 341.36,294.61 341.3,300.24 C341.3,301.24 341.46,302.3 341.58,303.68 C345.58,300.11 348.44,296.68 347.76,291.26 C347.41,288.48 347.61,285.63 347.45,282.82 C347.34,281 348.1,280.42 349.85,280.46 C353.38,280.55 356.92,280.46 360.46,280.46 L360.46,281.58 C357.68,281.58 354.9,281.67 352.12,281.58 C349.68,281.48 348.63,282.44 348.7,284.91 C348.8,288.17 348.7,291.43 348.7,295.19 L371.11,274.78 C370.43,274.71 369.7,274.58 368.98,274.58 C362.89,274.58 356.8,274.46 350.71,274.58 C348.78,274.58 347.89,274.12 347.9,272.04 C347.9,263.31 347.9,254.59 347.81,245.86 C347.81,244.31 348.19,243.51 349.94,243.56 C359.02,243.83 368.11,243.99 377.19,244.34 C377.74,244.34 378.67,245.74 378.68,246.5 C378.82,253.22 378.79,259.95 378.81,266.68 C378.9,267.57 378.9,268.53 378.9,269.97 Z M324.58,358.2 L386.47,358.2 L387.34,295.06 L386.63,294.76 C384.89,296.56 383.28,298.51 381.37,300.11 C378.86,302.22 377.63,304.7 378.19,307.96 C378.68,310.79 376.96,311.66 374.73,311.35 C371.11,310.86 368.64,312.35 366.59,315.08 C365.94571,315.95259 365.247692,316.7842 364.5,317.57 C356.286667,325.89 348.063333,334.196667 339.83,342.49 C338.12,344.22 336.32,345.87 334.63,347.62 C331.35,351.02 328.13,354.46 324.57,358.2 L324.58,358.2 Z M312.19,295.04 L311.9,295.04 C311.9,298.95 311.95,302.85 311.9,306.76 C311.9,308.84 312.65,309.68 314.79,309.63 C321.06,309.5 327.33,309.51 333.6,309.47 C338.52,309.47 340.25,307.74 340.23,302.71 C340.23,296.44 340,290.18 339.98,283.91 C339.98,282.2 339.43,281.42 337.65,281.43 C329.85,281.47 322.053333,281.47 314.26,281.43 C312.7,281.43 312.26,282.15 312.26,283.6 C312.21,287.42 312.18,291.23 312.18,295.04 L312.19,295.04 Z M349.78,272.82 C349.91,272.9 350.07,273.07 350.23,273.07 C358.03,273.07 365.83,273.19 373.62,272.95 C375.83,272.88 377.52,271.57 377.48,268.68 C377.39,261.79 377.58,254.89 377.69,247.99 C377.75,244.59 377.41,244.28 374.08,244.45 C366.93,244.82 359.77,245.11 352.62,245.45 C351.76,245.45 350.9,245.57 349.79,245.65 L349.78,272.82 Z M440.44,270.37 C440.31,276.97 445.44,281.32 452.36,280.43 C460.06,279.43 467.88,272.54 469.81,265.04 C471.6,258.04 467.69,252.26 460.9,251.76 C451.61,251.08 440.61,261.08 440.43,270.37 L440.44,270.37 Z M376.76,309.59 L376.76,304.87 L372.21,309.63 L376.76,309.59 Z" id="Shape" fill="#000000" fill-rule="nonzero"></path>
            <path d="M386.99,136.66 L386.99,109.44 C353.56,108.02 320.21,109.44 286.99,107.2 L286.94,106.32 C289.47,106.05 292,105.65 294.54,105.53 C299.89,105.26 305.25,105.01 310.61,104.97 C332.15,104.8 353.7,104.57 375.24,104.7 C380.79,104.7 386.33,106.01 392.24,106.76 C391.56,126.76 392.98,146.96 389.24,167.04 C388.88,164.18 388.47,161.33 388.17,158.47 C387.87,155.61 387.57,152.69 387.45,149.79 C387.33,146.89 387.45,143.79 387.45,140.74 C385.16,140.74 383.3,140.74 381.45,140.74 C356.64,140.47 331.83,140 307.02,139.95 C251.3,139.83 195.576667,139.83 139.85,139.95 C129.85,139.95 119.85,140.1 109.95,137.41 C113.55,136.93 117.14,136.07 120.74,136.04 C135.82,135.93 150.9,136.04 165.98,136.11 C213.88,136.28 261.79,136.53 309.69,136.59 C331.41,136.59 353.13,136.25 374.85,136.14 C378.79,136.12 382.77,136.47 386.99,136.66 Z" id="Shape" fill="#000000" fill-rule="nonzero"></path>
            <path d="M101.15,329.43 C100.63,323.84 99.67,318.25 99.67,312.66 C99.5766667,250.66 99.5766667,188.66 99.67,126.66 C99.67,120.12 100,113.58 100.07,107.04 C100.07,104.73 100.98,103.76 103.32,103.78 C131.13,104.02 158.94,104.14 186.76,104.47 C191.88005,104.635911 196.971303,105.305812 201.96,106.47 C199.66,106.81 197.37,107.29 195.05,107.47 C190.52,107.8 185.98,108.14 181.45,108.15 C157,108.22 132.55,108.15 108.1,108.15 L104.56,108.15 C104.56,113.27 104.56,118.15 104.56,123.02 C104.56,131.29 104.75,139.56 104.71,147.82 C104.49,199.446667 104.226667,251.073333 103.92,302.7 C103.86,310.76 102.92,318.81 102.29,326.86 C102.172843,327.662141 101.995679,328.454364 101.76,329.23 L101.15,329.43 Z" id="Shape" fill="#000000" fill-rule="nonzero"></path>
            <path d="M396.77,244.29 C396.9,233.29 399.32,224.47 405.33,216.92 C409.61,211.54 414.96,207.72 422.1,207.42 C428.236587,207.001967 434.106219,209.990999 437.377407,215.199817 C440.648594,220.408634 440.791746,226.993952 437.75,232.34 C436.432623,234.721595 434.744879,236.878532 432.75,238.73 C426.1,245.01 420.56,251.93 418.25,261.03 C417.884858,261.847104 417.133288,262.425813 416.25,262.57 C412.36,262.46 408.47,262.18 404.59,261.79 C403.723401,261.602926 402.96331,261.086638 402.47,260.35 C398.9,255.06 396.27,249.44 396.77,244.29 Z M432.38,223.82 C432.38,216.63 426.55,212.13 419.65,214.37 C411.22,217.11 406.22,223.25 404.65,231.82 C403.22,239.69 408.91,245.32 416.15,243.82 C424.66,241.94 432.38,232.45 432.38,223.81 L432.38,223.82 Z" id="Shape" fill="#000000" fill-rule="nonzero"></path>
            <path d="M165.96,194.87 C161.32,194.87 156.69,194.79 152.05,194.87 C149.96,194.92 149.16,194.3 149.19,192.1 C149.33,182.766667 149.373333,173.403333 149.32,164.01 C149.32,161.8 150.32,161.41 152.15,161.49 C160.59,161.88 169.04,162.1 177.47,162.62 C183.18,162.97 183.14,163.14 183.1,168.88 C183.05,176.06 183.1,183.24 183.02,190.42 C183.02,195.02 182.94,195.02 178.5,195 C174.32,195 170.14,195 165.96,195 L165.96,194.87 Z M179.29,191.92 L179.29,163.35 L152.1,164.35 L152.1,191.97 L179.29,191.92 Z" id="Shape" fill="#000000" fill-rule="nonzero"></path>
            <path d="M189.24,193.87 C188.97,183.5 188.73,173.53 188.45,163.56 C188.45,161.9 189.21,161.24 190.75,161.26 L220.17,161.63 C222.11,161.63 221.96,163.05 221.95,164.33 C221.95,172.6 221.87,180.86 221.85,189.13 C221.85,195.45 221.85,195.59 215.47,195.34 C206.96,195.04 198.46,194.44 189.24,193.87 Z M190.72,193.26 C191.72,193.19 192.72,193.12 193.72,193.07 C201.34,192.69 208.95,192.19 216.57,192 C218.81,191.94 219.4,191.15 219.37,189.17 C219.25,182.63 219.2,176.09 219.13,169.55 C219.13,167.95 219.13,166.35 219.13,164.5 C217.79,164.5 216.82,164.5 215.84,164.5 C208.75,164.64 201.67,164.89 194.58,164.87 C192.58,164.87 191.89,165.3 191.83,167.36 C191.52,175.87 191.1,184.43 190.72,193.31 L190.72,193.26 Z" id="Shape" fill="#000000" fill-rule="nonzero"></path>
            <path d="M112.37,230.81 C112.15,227.3 111.83,223.81 111.74,220.27 C111.59,214.37 111.65,208.46 111.51,202.56 C111.51,200.73 112.03,199.87 113.95,199.88 C123.12,199.88 132.3,199.88 141.47,199.88 C143.04,199.88 143.76,200.68 143.75,202.26 C143.696667,211.526667 143.656667,220.793333 143.63,230.06 C143.732849,230.754641 143.493203,231.456111 142.986834,231.942623 C142.480464,232.429135 141.769973,232.640541 141.08,232.51 C132.56,232.07 124.08,231.58 115.54,231.09 C114.56,231.06 113.58,230.93 112.37,230.81 Z M114.28,203.06 L113.36,230.31 L140.64,228.87 L140.64,203.06 L114.28,203.06 Z" id="Shape" fill="#000000" fill-rule="nonzero"></path>
            <path d="M143.79,176.8 C143.79,181.43 143.73,186.07 143.79,190.7 C143.79,192.7 143.18,193.44 141.12,193.41 C131.853333,193.29 122.586667,193.25 113.32,193.29 C111.32,193.29 110.4,192.77 110.44,190.5 C110.59,181.33 110.61,172.15 110.57,162.97 C110.57,160.86 111.25,160.15 113.42,160.13 C121.853333,160.07 130.283333,159.896667 138.71,159.61 C144.16,159.43 144.25,159.45 144.17,164.8 C144.11,168.8 144.17,172.8 144.17,176.8 L143.79,176.8 Z M140.68,190.51 C140.68,181.63 140.68,172.94 140.6,164.24 C140.6,163.77 139.46,162.98 138.78,162.91 C135.99,162.6 133.17,162.39 130.36,162.36 C124.58,162.28 118.81,162.36 112.89,162.36 L112.89,190.53 L140.68,190.51 Z" id="Shape" fill="#000000" fill-rule="nonzero"></path>
            <path d="M189.36,360.73 C184.08,361.09 178.79,361.73 173.51,361.73 C151.72,361.85 129.93,361.79 108.14,361.73 C106.33,361.73 104.52,361.43 102.71,361.4 C100.71,361.4 99.94,360.53 100.24,358.52 C100.560431,355.61761 101.064778,352.738488 101.75,349.9 L102.85,358.11 C131.85,358.93 160.62,357.34 189.35,359.72 L189.36,360.73 Z" id="Shape" fill="#000000" fill-rule="nonzero"></path>
            <path d="M141.61,267.87 L141.61,241.55 L115.23,241.55 L114.06,266.45 L113.18,266.45 C112.91,257.98 112.65,249.51 112.36,241.04 C112.3,239.26 113.13,238.61 114.82,238.63 C123.906667,238.743333 132.99,238.833333 142.07,238.9 C143.82,238.9 144.52,239.77 144.51,241.41 C144.44,250.5 144.42,259.58 144.23,268.67 C143.981241,269.596287 143.26944,270.327019 142.35,270.6 C133.75,270.5 125.15,270.23 116.55,269.99 L116.55,268.99 L141.61,267.87 Z" id="Shape" fill="#000000" fill-rule="nonzero"></path>
            <path d="M299.9,179.45 C299.9,183.81 299.81,188.17 299.9,192.52 C299.96,194.52 299.38,195.27 297.32,195.22 C289.43,195.04 281.53,195.03 273.63,194.86 C268.85,194.75 268.8,194.67 268.7,189.99 C268.52,182.1 268.45,174.21 268.22,166.32 C268.15,164.07 268.92,163.27 271.22,163.32 C279.933333,163.473333 288.646667,163.546667 297.36,163.54 C299.46,163.54 300.19,164.2 300.09,166.4 C299.9,170.75 300.03,175.11 300.03,179.47 L299.9,179.45 Z M270.9,166.17 L270.9,192.87 L297.51,192.87 L297.51,166.17 L270.9,166.17 Z" id="Shape" fill="#000000" fill-rule="nonzero"></path>
            <path d="M349.71,196 L374.81,195 L374.81,168.6 L347.81,168.6 L347.81,196.6 L347.15,196.91 C346.84,196.39 346.26,195.91 346.24,195.35 C345.99,186.19 345.76,177.02 345.69,167.86 C345.946905,166.962315 346.650943,166.262062 347.55,166.01 C356.9,165.86 366.24,165.87 375.55,165.82 C377.07,165.82 377.65,166.58 377.63,168.02 C377.51,177.28 377.38,186.54 377.32,195.8 C377.32,198.27 375.46,197.98 374.06,197.95 C368.16,197.84 362.27,197.59 356.37,197.34 C354.13,197.24 351.9,197.01 349.66,196.84 L349.71,196 Z" id="Shape" fill="#000000" fill-rule="nonzero"></path>
            <path d="M151.1,217.01 C151.1,212.65 151.16,208.29 151.1,203.93 C151.1,202.1 151.57,201.4 153.55,201.41 C162.256667,201.443333 170.963333,201.37 179.67,201.19 C181.93,201.19 182.67,201.84 182.67,204.13 C182.56,212.85 182.58,221.58 182.67,230.3 C182.67,232.48 181.91,233.16 179.81,233.11 C171.09,232.91 162.37,232.76 153.64,232.73 C151.45,232.73 150.85,231.95 150.93,229.84 C151.09,225.58 150.93,221.3 150.93,217.03 L151.1,217.01 Z M179.9,203.25 L153.21,203.25 L153.21,230.07 L179.9,230.07 L179.9,203.25 Z" id="Shape" fill="#000000" fill-rule="nonzero"></path>
            <path d="M206.83,202.08 C211.18,202.08 215.54,202.17 219.89,202.08 C222.04,202.02 222.79,202.79 222.75,204.92 C222.58,213.63 222.47,222.35 222.47,231.06 C222.47,233.12 221.75,233.69 219.77,233.67 C211.056667,233.563333 202.343333,233.54 193.63,233.6 C191.63,233.6 190.83,232.9 190.84,230.93 C190.84,222.13 190.84,213.32 190.84,204.51 C190.84,202.73 191.5,201.95 193.45,202.01 C197.89,202.15 202.34,202.01 206.78,202.01 L206.83,202.08 Z M193.6,231.29 C202.14,231.29 210.48,231.29 218.81,231.19 C219.36,231.19 220.32,229.8 220.35,229.03 C220.52,224.31 220.47,219.59 220.49,214.86 C220.49,211.44 220.49,208.03 220.49,204.38 L193.61,204.38 L193.6,231.29 Z" id="Shape" fill="#000000" fill-rule="nonzero"></path>
            <path d="M284.38,235.43 C279.84,235.43 275.3,235.5 270.77,235.35 C269.892692,235.122587 269.196161,234.456339 268.93,233.59 C268.85,224.33 268.93,215.07 268.93,205.81 C268.93,204.31 269.65,203.7 271.12,203.73 C280.28,203.93 289.45,204.06 298.61,204.36 C299.443624,204.612018 300.087037,205.278139 300.31,206.12 C300.4,215.29 300.31,224.46 300.31,233.63 C300.31,235.21 299.42,235.34 298.2,235.33 C293.57,235.33 288.94,235.33 284.31,235.33 L284.38,235.43 Z M271.73,233.2 L298.33,233.2 C298.33,224.57 298.33,216.15 298.33,207.72 C298.33,205.97 297.23,205.94 295.95,205.98 L273.95,206.54 C273.25,206.54 272.56,206.67 271.74,206.76 L271.73,233.2 Z" id="Shape" fill="#000000" fill-rule="nonzero"></path>
            <path d="M309.13,219.62 C309.13,215.17 309.13,210.73 309.13,206.28 C309.13,204.64 309.74,203.99 311.36,204.03 C320.52,204.22 329.67,204.33 338.83,204.63 C339.42,204.63 340.44,205.95 340.46,206.68 C340.63,211.3 340.58,215.93 340.59,220.56 C340.59,224.64 340.52,228.73 340.59,232.81 C340.65,234.81 340,235.43 337.94,235.43 C329.24,235.43 320.53,235.59 311.83,235.81 C309.65,235.87 308.97,235.09 309.03,232.97 C309.15,228.53 309.03,224.08 309.03,219.63 L309.13,219.62 Z M311.98,206.27 C311.69,206.85 311.54,207.01 311.54,207.17 C311.54,215.35 311.49,223.52 311.41,231.7 C311.41,233.47 312.51,233.53 313.75,233.55 C318.56,233.63 323.38,233.72 328.19,233.77 C331.61,233.77 335.02,233.77 338.68,233.77 L338.68,206.27 L311.98,206.27 Z" id="Shape" fill="#000000" fill-rule="nonzero"></path>
            <path d="M230.03,257.76 C230.03,253.4 230.11,249.04 230.03,244.69 C229.98,242.81 230.61,242.09 232.49,242.12 C241.49,242.27 250.49,242.32 259.43,242.54 C260.244725,242.802825 260.865267,243.468773 261.07,244.3 C261.14,253.3 261.07,262.3 261.07,271.3 C261.07,273.02 260.07,273.38 258.61,273.38 C249.81,273.38 241,273.38 232.2,273.38 C230.46,273.38 230.05,272.66 230.07,271.1 C230.07,266.66 230.03,262.21 230.03,257.76 Z M259.16,271.57 L259.16,244.24 C258.27,244.15 257.56,244.02 256.86,244.02 C249.15,244.08 241.43,244.13 233.72,244.33 C233.19,244.33 232.26,245.57 232.25,246.25 C232.11,253.88 232.14,261.52 232.05,269.15 C232.05,270.86 232.78,271.32 234.35,271.32 C237.44,271.32 240.53,271.53 243.61,271.56 C248.75,271.61 253.9,271.57 259.16,271.57 Z" id="Shape" fill="#000000" fill-rule="nonzero"></path>
            <path d="M286.14,241.96 C290.5,241.96 294.85,242.04 299.21,241.96 C301.26,241.91 301.92,242.68 301.87,244.67 C301.64,253.46 301.45,262.26 301.38,271.06 C301.38,273 300.38,273.38 298.88,273.36 C289.99,273.24 281.1,273.14 272.21,272.9 C271.383248,272.660525 270.73979,272.009496 270.51,271.18 C270.39,262.02 270.42,252.85 270.39,243.69 C270.39,241.89 271.58,241.98 272.81,241.99 L286.15,241.99 L286.14,241.96 Z M299.41,271.47 C299.41,262.47 299.41,253.88 299.34,245.31 C299.34,244.89 298.27,244.13 297.69,244.12 C289.89,244.02 282.09,243.99 274.3,244.12 C273.472027,244.33771 272.816788,244.970224 272.57,245.79 C272.363333,253.79 272.27,261.766667 272.29,269.72 C272.29,270.31 273.23,271.42 273.74,271.42 C282.32,271.5 290.9,271.47 299.41,271.47 Z" id="Shape" fill="#000000" fill-rule="nonzero"></path>
            <path d="M128.510112,308.300824 C124.250112,308.300824 119.980112,308.210824 115.720112,308.300824 C113.650112,308.360824 112.990112,307.500824 113.000112,305.590824 C113.080112,296.790824 113.126778,287.990824 113.140112,279.190824 C113.140112,277.760824 113.590112,276.970824 115.140112,277.000824 C124.210112,277.200824 133.270112,277.350824 142.340112,277.610824 C143.048315,277.768384 143.63252,278.266456 143.900112,278.940824 C144.222001,280.249169 144.373257,281.593663 144.350112,282.940824 C144.350112,290.380824 144.140112,297.820824 144.180112,305.260824 C144.180112,307.670824 143.360112,308.410824 141.000112,308.310824 C136.830112,308.140824 132.650112,308.310824 128.480112,308.310824 L128.510112,308.300824 Z M142.640112,292.450824 C142.640112,288.820824 142.430112,285.170824 142.710112,281.560824 C142.900112,279.080824 142.080112,278.330824 139.710112,278.410824 C132.183445,278.644158 124.653445,278.824158 117.120112,278.950824 C115.170112,278.950824 114.970112,280.150824 114.970112,281.660824 C114.970112,289.110824 115.030112,296.560824 114.970112,304.000824 C114.970112,306.070824 115.770112,306.630824 117.730112,306.610824 C125.080112,306.540824 132.440112,306.530824 139.790112,306.610824 C141.890112,306.610824 142.720112,306.060824 142.640112,303.860824 C142.550112,300.030824 142.640112,296.220824 142.640112,292.450824 Z" id="Shape" fill="#000000" fill-rule="nonzero"></path>
            <path d="M128.993609,350.300824 C124.733609,350.300824 120.463609,350.210824 116.203609,350.300824 C114.133609,350.360824 113.473609,349.500824 113.483609,347.590824 C113.563609,338.790824 113.610276,329.990824 113.623609,321.190824 C113.623609,319.760824 114.073609,318.970824 115.623609,319.000824 C124.693609,319.200824 133.753609,319.350824 142.823609,319.610824 C143.531813,319.768384 144.116018,320.266456 144.383609,320.940824 C144.705499,322.249169 144.856754,323.593663 144.833609,324.940824 C144.833609,332.380824 144.623609,339.820824 144.663609,347.260824 C144.663609,349.670824 143.843609,350.410824 141.483609,350.310824 C137.313609,350.140824 133.133609,350.310824 128.963609,350.310824 L128.993609,350.300824 Z M143.123609,334.450824 C143.123609,330.820824 142.913609,327.170824 143.193609,323.560824 C143.383609,321.080824 142.563609,320.330824 140.193609,320.410824 C132.666943,320.644158 125.136943,320.824158 117.603609,320.950824 C115.653609,320.950824 115.453609,322.150824 115.453609,323.660824 C115.453609,331.110824 115.513609,338.560824 115.453609,346.000824 C115.453609,348.070824 116.253609,348.630824 118.213609,348.610824 C125.563609,348.540824 132.923609,348.530824 140.273609,348.610824 C142.373609,348.610824 143.203609,348.060824 143.123609,345.860824 C143.033609,342.030824 143.123609,338.220824 143.123609,334.450824 Z" id="Shape-Copy" fill="#000000" fill-rule="nonzero"></path>
            <path d="M246.37,234.72 C241.83,234.72 237.29,234.64 232.75,234.72 C231.03,234.72 230.53,234.17 230.54,232.55 C230.59,223.55 230.54,214.55 230.54,205.55 C230.54,204.22 230.69,203.36 232.46,203.4 C241.353333,203.566667 250.25,203.64 259.15,203.62 C261.15,203.62 261.89,204.1 261.88,206.19 C261.88,214.99 261.88,223.8 262.02,232.6 C262.02,234.33 261.25,234.74 259.68,234.71 C255.23,234.64 250.78,234.71 246.33,234.71 L246.37,234.72 Z M232.96,232.87 L260.16,232.87 L260.16,205.4 L232.96,205.4 L232.96,232.87 Z" id="Shape" fill="#000000" fill-rule="nonzero"></path>
            <path d="M231.65,193.52 C236.23,193.21 240.81,192.79 245.4,192.63 C249.99,192.47 254.45,192.63 259.21,192.63 L259.21,164.53 L230.51,164.53 L230.51,189.45 L229.7,189.45 C229.619075,189.09424 229.562279,188.733418 229.53,188.37 C229.36,180.56 229.24,172.74 229.01,164.93 C229.01,163.22 229.4,162.42 231.24,162.43 C240.78,162.5 250.32,162.43 259.86,162.62 C260.68005,162.883438 261.304686,163.553502 261.51,164.39 C261.61,174.02 261.61,183.66 261.45,193.29 C261.125426,194.293528 260.297715,195.052896 259.27,195.29 C250.07,195.22 240.87,194.95 231.67,194.74 L231.65,193.52 Z" id="Shape" fill="#000000" fill-rule="nonzero"></path>
            <path d="M222.76,241.93 C222.76,251.263333 222.76,260.596667 222.76,269.93 C222.76,271.93 221.27,271.7 220.04,271.68 C213.77,271.6 207.5,271.47 201.23,271.36 C198.78,271.36 196.32,271.19 193.87,271.29 C191.93,271.36 191.36,270.56 191.37,268.71 C191.44,259.99 191.37,251.26 191.37,242.53 C191.37,241.26 191.37,240.12 193.17,240.18 L216.59,240.99 C217.07653,241.135737 217.545914,241.333549 217.99,241.58 C212.87,241.82 208.43,242.06 203.99,242.22 C201.18,242.32 198.35,242.22 195.54,242.4 C194.86,242.45 193.69,243.4 193.68,243.95 C193.56,252.38 193.6,260.81 193.6,269.48 L220.6,269.48 L221.38,241.87 L222.76,241.93 Z" id="Shape" fill="#000000" fill-rule="nonzero"></path>
            <path d="M325.42,273.37 C320.97,273.37 316.51,273.31 312.06,273.37 C310.26,273.37 309.76,272.78 309.78,270.99 C309.866667,262.323333 309.866667,253.69 309.78,245.09 C309.78,242.82 310.47,242.09 312.78,242.09 C321.32,242.236667 329.863333,242.286667 338.41,242.24 C340.36,242.24 341.29,242.76 341.15,244.83 C340.97,247.55 340.8,250.27 340.83,252.99 C340.903333,258.99 341.053333,264.99 341.28,270.99 C341.35,272.83 340.91,273.58 338.86,273.5 C334.41,273.34 329.95,273.45 325.5,273.45 L325.42,273.37 Z M311.34,244.15 C311.34,252.9 311.34,261.49 311.43,270.08 C311.43,270.55 312.76,271.41 313.43,271.41 C321.23,271.49 329.03,271.41 336.83,271.46 C338.52,271.46 339.01,270.8 339.04,269.22 C339.09,266.5 339.44,263.79 339.47,261.07 C339.54,255.48 339.47,249.89 339.47,244.15 L311.34,244.15 Z" id="Shape" fill="#000000" fill-rule="nonzero"></path>
            <path d="M122.43,114.81 C119.12,115.22 115.99,115.55 112.88,116.02 C111.51,116.23 110.06,116.4 110.07,114.64 C110.07,113.94 111.46,112.73 112.3,112.64 C119.246667,111.973333 126.203333,111.456667 133.17,111.09 C134.07,111.09 135.02,111.98 135.95,112.46 C135.12251,113.167195 134.182982,113.731588 133.17,114.13 C131.06,114.56 128.88,114.64 126.37,114.9 C126.46,116.9 126.64,118.84 126.62,120.8 C126.62,123.68 126.85,126.66 126.21,129.42 C125.21,133.63 122.12,135.14 118.08,133.54 C116.0675,132.578478 114.221028,131.302488 112.61,129.76 C112.19,129.4 112.52,128.17 112.51,127.34 C113.318057,127.328747 114.123365,127.43657 114.9,127.66 C116.13,128.21 117.17,129.17 118.41,129.66 C121.31,130.89 122.69,130.15 122.97,126.97 C123.057063,124.614615 122.986907,122.256046 122.76,119.91 C122.68,118.31 122.55,116.7 122.43,114.81 Z" id="Shape" fill="#000000" fill-rule="nonzero"></path>
            <path d="M223.16226,291.6036 C223.16226,295.9636 223.16226,300.3236 223.16226,304.6836 C223.16226,306.4736 222.66226,307.0236 220.59226,306.9936 C213.07226,306.8936 205.54226,307.3036 198.01226,307.2836 C191.64226,307.2836 191.87226,308.6436 192.07226,300.8936 C192.25226,293.7236 192.24226,286.5536 192.12226,279.3836 C192.12226,277.0836 192.83226,276.4736 195.12226,276.4636 C203.56226,276.4636 212.00226,276.2436 220.43226,276.0036 C222.55226,275.9436 223.34226,276.6236 223.27226,278.8036 C223.13226,283.0636 223.27226,287.3336 223.27226,291.6036 L223.16226,291.6036 Z M193.42226,277.7636 C193.42226,286.5536 193.42226,294.9036 193.42226,303.2536 C193.42226,305.0536 194.27226,305.5336 195.97226,305.5036 C198.78226,305.5036 201.60226,305.6536 204.41226,305.7536 C209.22226,305.9236 214.02226,306.1236 218.83226,306.2636 C220.51226,306.2636 221.44226,305.7236 221.41226,303.7136 C221.31226,296.080266 221.31226,288.446933 221.41226,280.8136 C221.41226,278.5836 220.51226,277.9236 218.53226,277.9136 C215.17226,277.9136 211.81226,277.7936 208.44226,277.7736 C203.66226,277.7436 198.87226,277.7636 193.42226,277.7636 Z" id="Shape" fill="#000000" fill-rule="nonzero"></path>
            <path d="M222.645758,332.6036 C222.645758,336.9636 222.645758,341.3236 222.645758,345.6836 C222.645758,347.4736 222.145758,348.0236 220.075758,347.9936 C212.555758,347.8936 205.025758,348.3036 197.495758,348.2836 C191.125758,348.2836 191.355758,349.6436 191.555758,341.8936 C191.735758,334.7236 191.725758,327.5536 191.605758,320.3836 C191.605758,318.0836 192.315758,317.4736 194.605758,317.4636 C203.045758,317.4636 211.485758,317.2436 219.915758,317.0036 C222.035758,316.9436 222.825758,317.6236 222.755758,319.8036 C222.615758,324.0636 222.755758,328.3336 222.755758,332.6036 L222.645758,332.6036 Z M192.905758,318.7636 C192.905758,327.5536 192.905758,335.9036 192.905758,344.2536 C192.905758,346.0536 193.755758,346.5336 195.455758,346.5036 C198.265758,346.5036 201.085758,346.6536 203.895758,346.7536 C208.705758,346.9236 213.505758,347.1236 218.315758,347.2636 C219.995758,347.2636 220.925758,346.7236 220.895758,344.7136 C220.795758,337.080266 220.795758,329.446933 220.895758,321.8136 C220.895758,319.5836 219.995758,318.9236 218.015758,318.9136 C214.655758,318.9136 211.295758,318.7936 207.925758,318.7736 C203.145758,318.7436 198.355758,318.7636 192.905758,318.7636 Z" id="Shape-Copy-2" fill="#000000" fill-rule="nonzero"></path>
            <path d="M286.03037,309.940138 C281.94037,309.940138 277.86037,309.850138 273.77037,309.940138 C271.77037,310.000138 270.98037,309.430138 271.00037,307.360138 C271.093703,298.646805 271.117036,289.930138 271.07037,281.210138 C271.07037,279.520138 271.69037,278.990138 273.31037,279.000138 C282.21037,279.066805 291.11037,279.090138 300.01037,279.070138 C301.55037,279.070138 302.19037,279.700138 302.16037,281.140138 C302.13037,282.580138 302.03037,283.850138 302.02037,285.210138 C301.96037,292.550138 301.82037,299.880138 301.93037,307.210138 C301.93037,309.640138 301.17037,310.420138 298.82037,310.350138 C294.56037,310.220138 290.29037,310.350138 286.03037,310.350138 L286.03037,309.940138 Z M286.57037,308.580138 L286.57037,308.510138 C290.38037,308.510138 294.20037,308.510138 298.01037,308.510138 C299.75037,308.510138 300.71037,308.150138 300.68037,306.120138 C300.57037,298.330138 300.57037,290.540138 300.57037,282.750138 C300.57037,281.130138 299.71037,280.750138 298.32037,280.800138 C290.51037,280.800138 282.71037,280.880138 274.90037,280.800138 C273.05037,280.800138 272.90037,281.800138 272.90037,283.200138 C272.90037,290.920138 272.96037,298.630138 272.90037,306.350138 C272.90037,308.000138 273.51037,308.590138 275.15037,308.560138 C278.94037,308.530138 282.76037,308.580138 286.57037,308.580138 Z" id="Shape" fill="#000000" fill-rule="nonzero"></path>
            <path d="M286.76037,348.509356 C282.67037,348.509356 278.59037,348.419356 274.50037,348.509356 C272.50037,348.569356 271.71037,347.999356 271.73037,345.929356 C271.823703,337.216023 271.847036,328.499356 271.80037,319.779356 C271.80037,318.089356 272.42037,317.559356 274.04037,317.569356 C282.94037,317.636023 291.84037,317.659356 300.74037,317.639356 C302.28037,317.639356 302.92037,318.269356 302.89037,319.709356 C302.86037,321.149356 302.76037,322.419356 302.75037,323.779356 C302.69037,331.119356 302.55037,338.449356 302.66037,345.779356 C302.66037,348.209356 301.90037,348.989356 299.55037,348.919356 C295.29037,348.789356 291.02037,348.919356 286.76037,348.919356 L286.76037,348.509356 Z M287.30037,347.149356 L287.30037,347.079356 C291.11037,347.079356 294.93037,347.079356 298.74037,347.079356 C300.48037,347.079356 301.44037,346.719356 301.41037,344.689356 C301.30037,336.899356 301.30037,329.109356 301.30037,321.319356 C301.30037,319.699356 300.44037,319.319356 299.05037,319.369356 C291.24037,319.369356 283.44037,319.449356 275.63037,319.369356 C273.78037,319.369356 273.63037,320.369356 273.63037,321.769356 C273.63037,329.489356 273.69037,337.199356 273.63037,344.919356 C273.63037,346.569356 274.24037,347.159356 275.88037,347.129356 C279.67037,347.099356 283.49037,347.149356 287.30037,347.149356 Z" id="Shape-Copy-8" fill="#000000" fill-rule="nonzero"></path>
            <path d="M325.03037,348.940138 C320.94037,348.940138 316.86037,348.850138 312.77037,348.940138 C310.77037,349.000138 309.98037,348.430138 310.00037,346.360138 C310.093703,337.646805 310.117036,328.930138 310.07037,320.210138 C310.07037,318.520138 310.69037,317.990138 312.31037,318.000138 C321.21037,318.066805 330.11037,318.090138 339.01037,318.070138 C340.55037,318.070138 341.19037,318.700138 341.16037,320.140138 C341.13037,321.580138 341.03037,322.850138 341.02037,324.210138 C340.96037,331.550138 340.82037,338.880138 340.93037,346.210138 C340.93037,348.640138 340.17037,349.420138 337.82037,349.350138 C333.56037,349.220138 329.29037,349.350138 325.03037,349.350138 L325.03037,348.940138 Z M325.57037,347.580138 L325.57037,347.510138 C329.38037,347.510138 333.20037,347.510138 337.01037,347.510138 C338.75037,347.510138 339.71037,347.150138 339.68037,345.120138 C339.57037,337.330138 339.57037,329.540138 339.57037,321.750138 C339.57037,320.130138 338.71037,319.750138 337.32037,319.800138 C329.51037,319.800138 321.71037,319.880138 313.90037,319.800138 C312.05037,319.800138 311.90037,320.800138 311.90037,322.200138 C311.90037,329.920138 311.96037,337.630138 311.90037,345.350138 C311.90037,347.000138 312.51037,347.590138 314.15037,347.560138 C317.94037,347.530138 321.76037,347.580138 325.57037,347.580138 Z" id="Shape-Copy-8" fill="#000000" fill-rule="nonzero"></path>
            <path d="M363.03037,347.940138 C358.94037,347.940138 354.86037,347.850138 350.77037,347.940138 C348.77037,348.000138 347.98037,347.430138 348.00037,345.360138 C348.093703,336.646805 348.117036,327.930138 348.07037,319.210138 C348.07037,317.520138 348.69037,316.990138 350.31037,317.000138 C359.21037,317.066805 368.11037,317.090138 377.01037,317.070138 C378.55037,317.070138 379.19037,317.700138 379.16037,319.140138 C379.13037,320.580138 379.03037,321.850138 379.02037,323.210138 C378.96037,330.550138 378.82037,337.880138 378.93037,345.210138 C378.93037,347.640138 378.17037,348.420138 375.82037,348.350138 C371.56037,348.220138 367.29037,348.350138 363.03037,348.350138 L363.03037,347.940138 Z M363.57037,346.580138 L363.57037,346.510138 C367.38037,346.510138 371.20037,346.510138 375.01037,346.510138 C376.75037,346.510138 377.71037,346.150138 377.68037,344.120138 C377.57037,336.330138 377.57037,328.540138 377.57037,320.750138 C377.57037,319.130138 376.71037,318.750138 375.32037,318.800138 C367.51037,318.800138 359.71037,318.880138 351.90037,318.800138 C350.05037,318.800138 349.90037,319.800138 349.90037,321.200138 C349.90037,328.920138 349.96037,336.630138 349.90037,344.350138 C349.90037,346.000138 350.51037,346.590138 352.15037,346.560138 C355.94037,346.530138 359.76037,346.580138 363.57037,346.580138 Z" id="Shape-Copy-10" fill="#000000" fill-rule="nonzero"></path>
            <path d="M336.57,193.65 L336.57,166.87 L308.9,166.87 L308.9,193.77 L307.74,193.77 C307.74,184.77 307.74,175.77 307.81,166.83 C308.013435,165.995898 308.633808,165.32635 309.45,165.06 C319.06,164.95 328.67,164.98 338.57,164.98 C338.7,166.42 338.91,167.75 338.91,169.07 C338.91,177.33 338.91,185.59 339,193.86 C339,195.86 338.27,196.64 336.27,196.56 C327.67,196.2 319.06,195.92 310.46,195.56 L310.46,194.77 L336.57,193.65 Z" id="Shape" fill="#000000" fill-rule="nonzero"></path>
            <path d="M182.37,239.76 C182.37,246.45 182.37,252.32 182.37,258.19 C182.37,261.63 182.28,265.08 182.37,268.52 C182.42,270.28 181.8,270.97 180.04,270.95 C171.24,270.83 162.44,270.74 153.65,270.73 C151.91,270.73 151.5,269.98 151.5,268.43 C151.5,259.72 151.41,251.01 151.35,242.31 C151.35,240.99 151.35,239.74 153.25,239.75 C162.9,239.78 172.46,239.76 182.37,239.76 Z M180.61,269.39 C180.61,260.61 180.61,252.18 180.53,243.76 C180.285761,242.921177 179.622921,242.2697 178.78,242.04 C171.25,241.97 163.71,242.04 156.18,242.11 C154.37,242.11 153.71,242.9 153.69,244.77 C153.63,252.03 153.42,259.29 153.28,266.55 C153.28,267.5 153.39,268.45 153.45,269.39 L180.61,269.39 Z" id="Shape" fill="#000000" fill-rule="nonzero"></path>
            <path d="M346.9,205.76 C351.82,205.76 356.25,205.76 360.68,205.76 C365.68,205.71 370.68,205.64 375.68,205.45 C377.52,205.38 378.33,205.81 378.3,207.83 C378.14,216.19 378.12,224.55 378.01,232.92 C378.01,236.82 377.93,236.59 374.08,236.58 C366.73,236.58 359.37,236.87 352.02,237 C346.83,237.09 346.88,237.06 346.9,231.87 C346.9,223.32 346.9,214.79 346.9,205.76 Z M375.95,235.54 L375.95,207.6 L348.52,207.6 L348.52,234.68 L375.95,235.54 Z" id="Shape" fill="#000000" fill-rule="nonzero"></path>
            <path d="M151.30049,292.355001 C151.30049,288.085001 151.45049,283.815001 151.24049,279.565001 C151.13049,277.365001 152.00049,276.905001 153.89049,277.015001 C158.05049,277.255001 162.22049,277.535001 166.39049,277.555001 C170.83049,277.555001 175.27049,277.395001 179.71049,277.165001 C181.63049,277.065001 182.29049,277.745001 182.25049,279.645001 C182.07049,288.351668 181.95049,297.061668 181.89049,305.775001 C181.89049,307.405001 181.28049,308.015001 179.64049,308.005001 C170.84049,307.945001 162.037156,307.945001 153.23049,308.005001 C151.57049,308.005001 150.98049,307.355001 151.00049,305.735001 C151.06049,301.295001 151.00049,296.845001 151.00049,292.405001 L151.30049,292.355001 Z M180.49049,292.765001 C180.49049,288.945001 180.40049,285.135001 180.49049,281.315001 C180.56049,279.225001 179.93049,278.375001 177.72049,278.415001 C170.193823,278.535001 162.667156,278.558334 155.14049,278.485001 C153.02049,278.485001 152.48049,279.485001 152.49049,281.295001 C152.537156,288.928334 152.557156,296.558334 152.55049,304.185001 C152.55049,305.835001 153.12049,306.665001 154.93049,306.645001 C162.74049,306.565001 170.56049,306.555001 178.37049,306.565001 C179.87049,306.565001 180.50049,305.985001 180.48049,304.465001 C180.45049,300.575001 180.48049,296.625001 180.48049,292.765001 L180.49049,292.765001 Z" id="Shape" fill="#000000" fill-rule="nonzero"></path>
            <path d="M151.783987,334.355001 C151.783987,330.085001 151.933987,325.815001 151.723987,321.565001 C151.613987,319.365001 152.483987,318.905001 154.373987,319.015001 C158.533987,319.255001 162.703987,319.535001 166.873987,319.555001 C171.313987,319.555001 175.753987,319.395001 180.193987,319.165001 C182.113987,319.065001 182.773987,319.745001 182.733987,321.645001 C182.553987,330.351668 182.433987,339.061668 182.373987,347.775001 C182.373987,349.405001 181.763987,350.015001 180.123987,350.005001 C171.323987,349.945001 162.520654,349.945001 153.713987,350.005001 C152.053987,350.005001 151.463987,349.355001 151.483987,347.735001 C151.543987,343.295001 151.483987,338.845001 151.483987,334.405001 L151.783987,334.355001 Z M180.973987,334.765001 C180.973987,330.945001 180.883987,327.135001 180.973987,323.315001 C181.043987,321.225001 180.413987,320.375001 178.203987,320.415001 C170.677321,320.535001 163.150654,320.558334 155.623987,320.485001 C153.503987,320.485001 152.963987,321.485001 152.973987,323.295001 C153.020654,330.928334 153.040654,338.558334 153.033987,346.185001 C153.033987,347.835001 153.603987,348.665001 155.413987,348.645001 C163.223987,348.565001 171.043987,348.555001 178.853987,348.565001 C180.353987,348.565001 180.983987,347.985001 180.963987,346.465001 C180.933987,342.575001 180.963987,338.625001 180.963987,334.765001 L180.973987,334.765001 Z" id="Shape-Copy-3" fill="#000000" fill-rule="nonzero"></path>
            <path d="M246.324844,278.79148 C242.914844,279.00148 239.504844,279.29148 236.084844,279.40148 C234.544844,279.45148 233.764844,279.83148 233.774844,281.56148 C233.808177,289.468147 233.784844,297.374813 233.704844,305.28148 C233.704844,306.91148 234.284844,307.59148 235.914844,307.58148 C243.82151,307.58148 251.728177,307.58148 259.634844,307.58148 C261.694844,307.58148 261.714844,306.23148 261.724844,304.83148 C261.724844,298.47148 261.724844,292.10148 261.724844,285.74148 C261.724844,279.05148 261.724844,279.05148 255.024844,278.94148 C253.742022,278.976646 252.458912,278.882841 251.194844,278.66148 C254.374844,278.50148 257.544844,278.38148 260.724844,278.18148 C262.234844,278.08148 262.914844,278.70148 262.904844,280.18148 C262.904844,289.09148 262.904844,297.99148 262.704844,306.90148 C262.44192,307.808415 261.725869,308.5131 260.814844,308.76148 C251.814844,308.76148 242.814844,308.68148 233.814844,308.61148 C231.814844,308.61148 232.004844,307.18148 232.004844,305.92148 C232.004844,298.65148 232.004844,291.38148 232.004844,284.10148 C232.004844,277.80148 232.004844,277.79148 238.214844,278.10148 C240.914844,278.22148 243.614844,278.37148 246.314844,278.51148 L246.324844,278.79148 Z" id="Shape" fill="#000000" fill-rule="nonzero"></path>
            <path d="M246.929867,317.79148 C243.519867,318.00148 240.109867,318.29148 236.689867,318.40148 C235.149867,318.45148 234.369867,318.83148 234.379867,320.56148 C234.413201,328.468147 234.389867,336.374813 234.309867,344.28148 C234.309867,345.91148 234.889867,346.59148 236.519867,346.58148 C244.426534,346.58148 252.333201,346.58148 260.239867,346.58148 C262.299867,346.58148 262.319867,345.23148 262.329867,343.83148 C262.329867,337.47148 262.329867,331.10148 262.329867,324.74148 C262.329867,318.05148 262.329867,318.05148 255.629867,317.94148 C254.347045,317.976646 253.063936,317.882841 251.799867,317.66148 C254.979867,317.50148 258.149867,317.38148 261.329867,317.18148 C262.839867,317.08148 263.519867,317.70148 263.509867,319.18148 C263.509867,328.09148 263.509867,336.99148 263.309867,345.90148 C263.046944,346.808415 262.330893,347.5131 261.419867,347.76148 C252.419867,347.76148 243.419867,347.68148 234.419867,347.61148 C232.419867,347.61148 232.609867,346.18148 232.609867,344.92148 C232.609867,337.65148 232.609867,330.38148 232.609867,323.10148 C232.609867,316.80148 232.609867,316.79148 238.819867,317.10148 C241.519867,317.22148 244.219867,317.37148 246.919867,317.51148 L246.929867,317.79148 Z" id="Shape-Copy-7" fill="#000000" fill-rule="nonzero"></path>
            <path d="M290.56,152.56 C294.33,153.16 296.12,155.72 295.03,159.05 C294.81,159.72 293.88,160.15 293.27,160.69 C292.83086,160.101393 292.455425,159.467846 292.15,158.8 C291.75,157.63 291.52,156.4 291.22,155.2 C290.67,156.2 290.16,157.26 289.54,158.2 C289.096444,158.799182 288.608397,159.364112 288.08,159.89 C287.63,159.2 286.78,158.49 286.79,157.81 C286.84,154.65 287.14,151.49 287.38,147.81 L278.97,146.4 C278.97,149.66 278.97,152.4 278.97,155.05 C279.094763,155.858549 279.094763,156.681451 278.97,157.49 C278.561215,158.368778 278.047472,159.194796 277.44,159.95 C276.88,159.17 275.89,158.43 275.83,157.62 C275.63,155 275.77,152.35 275.77,149.72 C275.77,148.91 275.77,148.1 275.77,147.05 L269.28,146.67 L269.17,145.83 C269.64,145.57 270.1,145.12 270.59,145.08 C274.39,144.75 278.19,144.4 282,144.26 C283.860204,144.139383 285.727311,144.338947 287.52,144.85 C288.714739,145.335568 289.658118,146.28979 290.13,147.49 C290.67,149.01 290.46,150.74 290.56,152.56 Z" id="Shape" fill="#000000" fill-rule="nonzero"></path>
            <path d="M240.23,156.87 C239.577201,157.577579 238.882625,158.245441 238.15,158.87 C235.29,161.02 231.63,159.87 231.02,156.4 C230.56,153.74 230.93,150.93 230.93,148.03 C230.55148,148.148049 230.149895,148.172076 229.76,148.1 C229.025354,147.781053 228.319431,147.399654 227.65,146.96 C228.08,146.26 228.5,145.56 228.94,144.87 C228.94,144.81 229.1,144.8 229.19,144.79 L234.91,144.07 C234.84,145.96 234.8,147.86 234.69,149.75 C234.461156,151.430381 234.344232,153.124113 234.34,154.82 C234.49,156.76 235.57,157.07 237.01,155.82 C237.137147,155.689778 237.257315,155.55292 237.37,155.41 C239.96,152.64 239.96,152.64 243.37,155.28 C243.88,154.1 244.66,153.08 244.73,152.01 C244.85,150.13 244.45,148.22 244.47,146.33 C244.47,145.66 245.06,145 245.38,144.33 C246.01,144.71 247.06,144.98 247.21,145.5 C248.21,148.86 248.6,152.3 246.82,155.5 C245.38,158.12 243.3,158.49 240.23,156.87 Z" id="Shape" fill="#000000" fill-rule="nonzero"></path>
            <path d="M160.9,148.87 L155.65,149.43 C155.48,150 155.07,151.35 154.65,152.71 C153.94,155.18 152.16,155.98 149.85,155.53 C149.19,155.4 148.68,154.53 148.1,153.93 C148.61,153.41 149.18,152.4 149.63,152.45 C151.77,152.68 151.96,151.14 152.36,149.78 C152.82,148.22 153.09,146.6 153.65,145.08 C154.082073,144.247637 154.619856,143.474574 155.25,142.78 C155.992125,143.340183 156.696952,143.948139 157.36,144.6 C157.770102,145.225437 158.105711,145.896656 158.36,146.6 C158.843258,145.929686 159.385411,145.303867 159.98,144.73 C160.730064,144.200694 161.515203,143.722928 162.33,143.3 C162.83151,144.089007 163.212377,144.948486 163.46,145.85 C163.544397,147.385508 163.544397,148.924492 163.46,150.46 C163.46,154.46 163.7,154.64 167.46,155.59 C168.339002,155.96688 169.155123,156.476112 169.88,157.1 C168.88,157.47 167.88,158.22 166.96,158.1 C162.18,157.71 160.81,156.1 160.79,151.34 C160.9,150.46 160.9,149.56 160.9,148.87 Z" id="Shape" fill="#000000" fill-rule="nonzero"></path>
            <path d="M162.43,128.58 C162.01,130.91 162.86,131.72 164.55,131.64 C166.72,131.53 168.88,131.21 171.05,131.15 C171.72,131.15 172.4,131.69 173.05,131.99 C172.52,132.51 172.05,133.39 171.45,133.48 C168.962295,133.964167 166.43437,134.211937 163.9,134.22 C160.9,134.12 159.44,132.12 159.57,129.07 C159.71,125.8 162.57,122.84 166.46,121.93 C168.918961,121.202655 171.544537,122.350817 172.68,124.65 C174.14,127.12 173.53,128.44 170.68,128.55 C167.83,128.66 165.16,128.58 162.43,128.58 Z M170,125.605833 C170,124.718956 168.656854,124 167,124 C165.343146,124 164,124.718956 164,125.605833 C164,126.492709 168.656854,125.605833 170,125.605833 Z" id="Combined-Shape" fill="#000000" fill-rule="nonzero"></path>
            <path d="M136.69,128.28 C137.24,127.06 137.87,125.86 138.32,124.6 C138.65,123.67 138.52,122.51 139.03,121.73 C139.524448,120.956071 140.346152,120.451257 141.26,120.36 C141.99,120.47 143.17,121.63 143.12,122.24 C142.824972,125.385664 142.344132,128.511122 141.68,131.6 C141.58,132.07 140.43,132.6 139.76,132.6 C138.329455,132.667406 136.897463,132.501916 135.52,132.11 C134.37,131.74 132.86,131.11 132.46,130.11 C131.78,128.52 131.84,126.61 131.63,124.84 C131.55,124.14 131.63,123.41 131.51,122.74 C131.284173,121.939628 131.00693,121.154664 130.68,120.39 C131.79,120.17 133.01,119.56 133.97,119.84 C134.69,120.06 135.3,121.37 135.52,122.3 C135.74,123.23 135.16,124.06 135.16,124.95 C135.22645,125.988105 135.363432,127.020487 135.57,128.04 L136.69,128.28 Z" id="Shape" fill="#000000" fill-rule="nonzero"></path>
            <path d="M312.62,150.72 C314.4,150.72 316.29,150.63 318.16,150.77 C318.8,150.82 319.39,151.47 320.01,151.85 C319.41,152.37 318.85,153.25 318.19,153.33 C316.399735,153.462169 314.603098,153.485546 312.81,153.4 C313.104493,155.649071 313.278076,157.912325 313.33,160.18 C313.33,161.13 312.47,162.05 312,162.99 C311.47,162.1 310.53,161.23 310.47,160.31 C310.23,156.43 310.26,152.52 310.17,148.63 C310.196584,148.102917 310.104308,147.576602 309.9,147.09 C308.47,144.44 308.59,143.94 311.51,143.47 C314.366702,142.999052 317.254951,142.744993 320.15,142.71 C321,142.71 321.85,143.87 322.7,144.5 C321.91,145.08 321.18,146.02 320.31,146.18 C318.599738,146.363705 316.879934,146.443851 315.16,146.42 C312.02,146.6 311.73,147.06 312.62,150.72 Z" id="Shape" fill="#000000" fill-rule="nonzero"></path>
            <path d="M153.9,124.68 C150.9,124.59 149.75,126 149.29,128.17 C149.24458,129.160249 149.076634,130.141055 148.79,131.09 C148.376999,131.868061 147.647773,132.429565 146.79,132.63 C146.33,132.63 145.3,131.45 145.32,130.82 C145.395141,127.834665 145.672443,124.857849 146.15,121.91 C146.24,121.38 147.71,120.8 148.58,120.74 C149.77,120.66 151.02,121.28 152.21,121.2 C155.56,120.98 157.5,122.48 157.45,125.82 C157.432433,128.083175 157.181098,130.338481 156.7,132.55 C156.53,133.31 155.31,133.83 154.57,134.47 C154.1,133.63 153.22,132.79 153.23,131.95 C153.2,129.62 153.6,127.3 153.9,124.68 Z" id="Shape" fill="#000000" fill-rule="nonzero"></path>
            <path d="M354.65,150.47 C357.22,152.13 358.49,154.55 357.49,157.3 C356.807985,158.788742 355.563847,159.946581 354.03,160.52 C351.324723,161.268322 348.446654,160.175384 346.92,157.82 C346.671652,156.939554 346.586916,156.021021 346.67,155.11 C347.46,155.4 348.26,155.64 349.02,156 C349.41,156.18 349.69,156.79 350.02,156.83 C351.44,156.99 353.43,157.6 354.19,156.92 C355.67,155.6 354.54,153.92 353.3,152.73 C352.06,151.54 350.3,150.43 348.9,149.12 C347.01,147.3 347.43,145.68 349.9,144.94 C350.93623,144.622207 351.996303,144.388121 353.07,144.24 C355.07,143.98 357,143.94 357.57,146.48 C358.14,149.02 356.73,149.98 354.57,150.48 C355.51,146.03 355.51,146.02 351.71,147.03 C351.59,147.03 351.51,147.27 351.38,147.44 L354.65,150.47 Z" id="Shape" fill="#000000" fill-rule="nonzero"></path>
            <path d="M196.72,146.38 C194.793685,146.473241 192.863492,146.449865 190.94,146.31 C190.18,146.21 189.51,145.31 188.8,144.8 C189.5,144.24 190.16,143.26 190.91,143.19 C194.52,142.83 198.15,142.62 201.77,142.58 C202.77,142.58 203.77,143.31 204.77,143.71 C203.950933,144.378793 203.089103,144.993431 202.19,145.55 C201.458624,145.785097 200.69787,145.916378 199.93,145.94 C199.93,148.94 200.04,151.94 199.87,155.02 C199.81,156.02 199.02,156.93 198.56,157.89 C197.95,156.95 196.89,156.06 196.81,155.08 C196.56,152.2 196.72,149.31 196.72,146.38 Z" id="Shape" fill="#000000" fill-rule="nonzero"></path>
            <path d="M116.6,145.4 C118.00171,145.920113 119.342883,146.5907 120.6,147.4 C122.093997,148.510002 123.343297,149.91589 124.27,151.53 C124.643526,152.788467 124.438336,154.147852 123.71,155.24 C122.08,157.62 116.6,157.24 115.03,154.82 C114.777837,154.11514 114.665739,153.367823 114.7,152.62 L116.8,152.91 C118.47,153.13 121.3,153.99 121.61,153.43 C122.85,151.22 120.69,150.13 119.08,149.17 C117.47,148.21 115.92,147.77 114.47,146.87 C112.66,145.75 112.72,144.15 114.72,143.53 C116.845422,142.823817 119.082779,142.515333 121.32,142.62 C124.26,142.84 124.94,145.43 122.95,147.83 C122.26,146.65 121.82,144.94 120.79,144.42 C119.76,143.9 118.03,144.42 116.62,144.56 L116.6,145.4 Z" id="Shape" fill="#000000" fill-rule="nonzero"></path>
            <path d="M207.83,154.97 C208.709054,154.434385 209.53896,153.821994 210.31,153.14 C210.78,152.66 210.79,151.76 211.24,151.23 C211.627625,150.758245 212.209514,150.489398 212.82,150.5 C213.17,150.57 213.57,151.5 213.56,151.98 C213.506239,153.513754 213.362659,155.043042 213.13,156.56 C213.063071,156.999444 212.830496,157.396609 212.48,157.67 C209.48,159.67 204.37,157.07 203.95,153.46 C203.89,152.98 203.37,152.56 203.13,152.08 C202.89,151.6 202.24,150.57 202.44,150.32 C202.945483,149.731813 203.666161,149.371474 204.44,149.32 C207.3,149.32 208.02,150.56 207.3,154.15 L207.83,154.97 Z" id="Shape" fill="#000000" fill-rule="nonzero"></path>
            <path d="M173.38,156.32 C172.370682,156.313735 171.408498,155.89206 170.719809,155.154179 C170.03112,154.416298 169.676725,153.427352 169.74,152.42 C169.82,149.94 172.08,147.49 174.3,147.49 C176.8,147.49 178.37,148.77 178.41,150.85 C178.46,153.54 175.9,156.32 173.38,156.32 Z M176.09,150.63 C172.94,150.21 172.43,150.79 173.26,154.09 L176.09,150.63 Z" id="Shape" fill="#000000" fill-rule="nonzero"></path>
            <path d="M252.49,156.12 L258.85,157.07 C258.85,157.33 258.95,157.84 258.77,157.98 C256.69,159.56 254.48,159.18 252.43,158.05 C250.713562,157.163446 250.006481,155.077556 250.83,153.33 C251.62,151.21 253.03,149.45 255.49,149.33 C257.33,149.24 258.02,150.79 257.95,152.27 C257.95,152.92 256.8,153.74 256,154.09 C254.915277,154.447498 253.795672,154.68885 252.66,154.81 L252.49,156.12 Z" id="Shape" fill="#000000" fill-rule="nonzero"></path>
            <path d="M363.71,158.93 C362.98,159.21 362.12,159.88 361.5,159.71 C360.5,159.45 359.23,158.76 358.99,157.98 C358.37,155.9 361.84,152.06 364.07,152.26 C364.882779,152.434787 365.565059,152.983577 365.91,153.74 C366.400316,155.371389 366.735143,157.045519 366.91,158.74 C366.854713,159.21684 366.622809,159.655672 366.26,159.97 C365.38669,159.683489 364.534591,159.335967 363.71,158.93 Z M363,158 C363.552285,158 364,157.104569 364,156 C364,154.895431 363.552285,154 363,154 C362.447715,154 362,154.895431 362,156 C362,157.104569 362.447715,158 363,158 Z" id="Combined-Shape" fill="#000000" fill-rule="nonzero"></path>
            <path d="M134.74,155.78 C128.42,156.59 128.39,156.59 127.32,150.16 C127.23,149.65 127.73,149.04 127.95,148.47 C128.52,148.87 129.44,149.17 129.59,149.69 C129.907389,151.055271 130.121329,152.442541 130.23,153.84 L131.05,154.03 L133.42,148.38 C135.9,150.81 134.06,153.38 134.74,155.78 Z" id="Shape" fill="#000000" fill-rule="nonzero"></path>
            <path d="M325.9,157.99 L323.9,156.5 C323.41,157.58 323,158.6 322.49,159.57 C321.98,160.54 321.49,161.31 320.93,162.18 C320.423071,161.256516 319.969007,160.304984 319.57,159.33 C319.445901,158.70817 319.405543,158.072532 319.45,157.44 C319.45,157.08 319.29,156.44 319.37,156.44 C321.100127,155.689063 322.917665,155.158248 324.78,154.86 C325.42,154.86 326.2,156.48 326.91,157.36 L325.9,157.99 Z" id="Shape" fill="#000000" fill-rule="nonzero"></path>
            <path d="M27.02,43 C26.9673556,32.7140825 33.1234605,23.4118603 42.6117319,19.4400124 C52.1000033,15.4681646 63.0470403,17.6109082 70.3375857,24.8669965 C77.628131,32.1230847 79.8227115,43.0598477 75.8958583,52.566829 C71.9690051,62.0738103 62.6960514,68.2739149 52.41,68.27 C45.6912536,68.2885879 39.2405965,65.6360224 34.4784669,60.8963999 C29.7163373,56.1567775 27.033242,49.7187591 27.02,43 Z M52.75,43.18 L52.75,44.18 C59,44.18 65.26,44.18 71.51,44.18 C72.289156,44.0120209 73.0312432,43.703665 73.7,43.27 C73.0335614,42.8056874 72.2880307,42.4668099 71.5,42.27 C58.8333333,41.8633333 46.1466667,41.53 33.44,41.27 C32.6315813,41.3981084 31.8506009,41.661816 31.13,42.05 C31.9,42.43 32.67,43.14 33.45,43.15 C39.9,43.21 46.32,43.17 52.75,43.17 L52.75,43.18 Z M31.69,37.12 L31.82,38.25 L73.24,39.38 L73.4,38.16 C72.6856227,37.8072803 71.9246472,37.5581114 71.14,37.42 C58.72,37.0533333 46.2966667,36.72 33.87,36.42 C33.1117124,36.5345443 32.3760974,36.7673766 31.69,37.11 L31.69,37.12 Z M73.17,48.43 L72.97,47.17 L31.54,46.07 L31.39,47.47 C32.3720929,47.7487508 33.3754893,47.9460855 34.39,48.06 C46.47,48.4066667 58.5533333,48.7166667 70.64,48.99 C71.5070326,48.9060951 72.3602548,48.714624 73.18,48.42 L73.17,48.43 Z M71.29,53.12 L71.09,51.98 L33.17,50.98 L32.98,52.1 C33.7413576,52.4944099 34.5568394,52.7740999 35.4,52.93 C46.54,53.2766667 57.6833333,53.5733333 68.83,53.82 C69.6825536,53.7058979 70.5143474,53.4701669 71.3,53.12 L71.29,53.12 Z M33.83,33.46 L71.56,34.46 C69.8,31.97 35.65,31.07 33.83,33.46 Z M36.37,55.87 L36.09,56.87 C36.8669739,57.3045768 37.7071209,57.6149926 38.58,57.79 C47.4733333,58.0966667 56.37,58.34 65.27,58.52 C66.1875555,58.3948532 67.0809575,58.1318896 67.92,57.74 L67.74,56.74 L36.37,55.87 Z M68.21,28.87 L68.42,28.41 C67.6951131,27.9945406 66.9085485,27.697469 66.09,27.53 C57.2033333,27.2433333 48.3133333,27.02 39.42,26.86 C38.68,26.86 37.93,27.47 37.19,27.79 L37.45,28.87 L68.21,28.87 Z M42.49,61.38 C44.85,63.53 58.87,63.9 61.96,61.38 L42.49,61.38 Z M44.12,24.06 L61.77,24.06 C59.28,21.97 47.25,21.54 44.12,24.06 Z" id="Shape" fill="#FFFFFF" fill-rule="nonzero"></path>
            <path d="M312.18,295.04 C312.18,291.23 312.18,287.41 312.18,283.6 C312.18,282.15 312.65,281.42 314.18,281.43 C321.98,281.463333 329.776667,281.463333 337.57,281.43 C339.36,281.43 339.9,282.2 339.9,283.91 C339.9,290.18 340.12,296.44 340.15,302.71 C340.15,307.71 338.44,309.44 333.52,309.47 C327.25,309.47 320.98,309.47 314.71,309.63 C312.57,309.63 311.78,308.83 311.82,306.76 C311.9,302.85 311.82,298.95 311.82,295.04 L312.18,295.04 Z" id="Shape" fill="#FFFFFF" fill-rule="nonzero"></path>
            <path d="M349.77,272.82 L349.77,245.63 C350.88,245.55 351.77,245.47 352.6,245.43 C359.75,245.1 366.91,244.81 374.06,244.43 C377.39,244.26 377.73,244.57 377.67,247.97 C377.55,254.87 377.37,261.76 377.46,268.66 C377.46,271.56 375.82,272.86 373.6,272.93 C365.81,273.17 358.01,273.05 350.21,273.05 C350.06,273.07 349.9,272.87 349.77,272.82 Z" id="Shape" fill="#FDF0E9" fill-rule="nonzero"></path>
            <path d="M440.43,270.37 C440.61,261.08 451.61,251.08 460.89,251.76 C467.68,252.26 471.59,258.09 469.8,265.04 C467.87,272.54 460.05,279.44 452.35,280.43 C445.46,281.32 440.31,276.97 440.43,270.37 Z" id="Shape" fill="#FFFFFF" fill-rule="nonzero"></path>
            <polygon id="Shape" fill="#FFFFFF" fill-rule="nonzero" points="376.76 309.58 372.21 309.58 376.76 304.82"></polygon>
            <path d="M432.38,223.81 C432.38,232.45 424.66,241.94 416.16,243.76 C408.92,245.31 403.23,239.68 404.66,231.76 C406.22,223.2 411.22,217.05 419.66,214.31 C426.55,212.12 432.39,216.63 432.38,223.81 Z" id="Shape" fill="#FFFFFF" fill-rule="nonzero"></path>
            <polygon id="Shape" fill="#FFB6A3" fill-rule="nonzero" points="179.3 191.97 152.1 191.97 152.1 164.39 179.29 163.39"></polygon>
            <path d="M190.72,193.31 C191.1,184.44 191.51,175.92 191.77,167.4 C191.83,165.34 192.51,164.91 194.52,164.91 C201.61,164.91 208.69,164.68 215.78,164.54 C216.78,164.54 217.78,164.54 219.07,164.54 C219.07,166.39 219.07,167.99 219.07,169.59 C219.14,176.13 219.2,182.67 219.31,189.21 C219.31,191.21 218.76,191.99 216.51,192.04 C208.89,192.23 201.28,192.73 193.66,193.11 C192.69,193.16 191.71,193.24 190.72,193.31 Z" id="Shape" fill="#FF9282" fill-rule="nonzero"></path>
            <polygon id="Shape" fill="#FDF0E9" fill-rule="nonzero" points="113.93 203 140.28 203 140.28 228.81 113 230.22"></polygon>
            <path d="M140.68,190.51 L112.9,190.51 L112.9,162.33 C118.81,162.33 124.59,162.28 130.37,162.33 C133.18,162.33 136,162.57 138.79,162.88 C139.46,162.95 140.6,163.74 140.61,164.21 C140.71,172.94 140.68,181.63 140.68,190.51 Z" id="Shape" fill="#FFDCCE" fill-rule="nonzero"></path>
            <polygon id="Shape" fill="#FDB6A5" fill-rule="nonzero" points="179.9 203.25 179.9 230.07 153.21 230.07 153.21 203.25"></polygon>
            <path d="M194,230.9 L194,204 L220.89,204 C220.89,207.64 220.89,211.06 220.89,214.48 C220.89,219.2 220.89,223.93 220.75,228.65 C220.75,229.42 219.75,230.8 219.21,230.81 C210.87,230.94 202.54,230.9 194,230.9 Z" id="Shape" fill="#FF9282" fill-rule="nonzero"></path>
            <path d="M193,269.355892 L193,241.161874 L221.331439,241.161874 C221.331439,244.976976 221.331439,248.561494 221.331439,252.146012 C221.331439,257.093066 221.331439,262.050602 221.183934,266.997656 C221.183934,267.804697 220.130329,269.251081 219.561382,269.261562 C210.774316,269.397816 201.997787,269.355892 193,269.355892 Z" id="Shape-Copy-14" fill="#FFB6A3" fill-rule="nonzero"></path>
            <path d="M271.73,233.2 L271.73,206.76 C272.55,206.68 273.25,206.56 273.94,206.54 L295.94,205.98 C297.21,205.98 298.32,205.98 298.32,207.72 C298.32,216.14 298.32,224.57 298.32,233.2 L271.73,233.2 Z" id="Shape" fill="#FF9282" fill-rule="nonzero"></path>
            <path d="M311.97,206.27 L338.68,206.27 L338.68,233.77 C335.02,233.77 331.61,233.77 328.19,233.77 C323.37,233.77 318.56,233.63 313.75,233.55 C312.51,233.55 311.39,233.47 311.41,231.7 C311.49,223.52 311.5,215.35 311.54,207.17 C311.54,207.01 311.68,206.87 311.97,206.27 Z" id="Shape" fill="#FFDCCE" fill-rule="nonzero"></path>
            <path d="M259.16,271.57 C253.9,271.57 248.75,271.57 243.6,271.57 C240.51,271.57 237.42,271.34 234.34,271.33 C232.77,271.33 232.02,270.86 232.04,269.16 C232.13,261.53 232.1,253.89 232.24,246.26 C232.24,245.58 233.18,244.36 233.71,244.34 C241.42,244.14 249.14,244.09 256.85,244.03 C257.56,244.03 258.26,244.16 259.15,244.25 L259.16,271.57 Z" id="Shape" fill="#FF9282" fill-rule="nonzero"></path>
            <path d="M299.41,271.47 C290.91,271.47 282.32,271.47 273.74,271.39 C273.23,271.39 272.29,270.28 272.29,269.69 C272.29,261.69 272.383333,253.713333 272.57,245.76 C272.816788,244.940224 273.472027,244.30771 274.3,244.09 C282.1,243.99 289.9,244.03 297.69,244.09 C298.27,244.09 299.34,244.86 299.34,245.28 C299.43,253.87 299.41,262.46 299.41,271.47 Z" id="Shape" fill="#FFB6A3" fill-rule="nonzero"></path>
            <path d="M142.670374,293.014465 C142.670374,296.824465 142.560374,300.644465 142.670374,304.454465 C142.750374,306.654465 141.920374,307.234465 139.820374,307.204465 C132.470374,307.094465 125.120374,307.094465 117.760374,307.204465 C115.760374,307.204465 114.980374,306.654465 115.000374,304.594465 C115.080374,297.144465 115.000374,289.704465 115.000374,282.254465 C115.000374,280.744465 115.200374,279.584465 117.150374,279.544465 C124.683708,279.411131 132.213708,279.231131 139.740374,279.004465 C142.060374,278.934465 142.890374,279.674465 142.740374,282.154465 C142.460374,285.764465 142.670374,289.414465 142.670374,293.044465 L142.670374,293.014465 Z" id="Shape" fill="#FFFFFF" fill-rule="nonzero"></path>
            <path d="M143.153872,334.014465 C143.153872,337.824465 143.043872,341.644465 143.153872,345.454465 C143.233872,347.654465 142.403872,348.234465 140.303872,348.204465 C132.953872,348.094465 125.603872,348.094465 118.243872,348.204465 C116.243872,348.204465 115.463872,347.654465 115.483872,345.594465 C115.563872,338.144465 115.483872,330.704465 115.483872,323.254465 C115.483872,321.744465 115.683872,320.584465 117.633872,320.544465 C125.167205,320.411131 132.697205,320.231131 140.223872,320.004465 C142.543872,319.934465 143.373872,320.674465 143.223872,323.154465 C142.943872,326.764465 143.153872,330.414465 143.153872,334.044465 L143.153872,334.014465 Z" id="Shape-Copy-4" fill="#FFFFFF" fill-rule="nonzero"></path>
            <polygon id="Shape" fill="#FFDCCE" fill-rule="nonzero" points="232.96 232.87 232.96 205.4 260.16 205.4 260.16 232.87"></polygon>
            <path d="M311.34,244.15 L339.54,244.15 C339.54,249.89 339.59,255.48 339.54,261.07 C339.54,263.79 339.16,266.5 339.11,269.22 C339.11,270.8 338.59,271.47 336.9,271.46 C329.1,271.41 321.3,271.46 313.5,271.41 C312.78,271.41 311.5,270.55 311.5,270.08 C311.31,261.49 311.34,252.87 311.34,244.15 Z" id="Shape" fill="#FFDCCE" fill-rule="nonzero"></path>
            <path d="M193.02,278 C198.47,278 203.27,278 208.02,278 C211.38,278 214.74,278.12 218.11,278.14 C220.11,278.14 221.02,278.81 220.99,281.04 C220.863333,288.673333 220.863333,296.306667 220.99,303.94 C220.99,305.94 220.08,306.54 218.41,306.49 C213.6,306.35 208.8,306.15 203.99,305.98 C201.18,305.88 198.36,305.69 195.55,305.73 C193.86,305.73 193,305.28 193,303.48 C193.03,295.14 193.02,286.79 193.02,278 Z" id="Shape" fill="#FFFFFF" fill-rule="nonzero"></path>
            <path d="M193.503498,319 C198.953498,319 203.753498,319 208.503498,319 C211.863498,319 215.223498,319.12 218.593498,319.14 C220.593498,319.14 221.503498,319.81 221.473498,322.04 C221.346831,329.673333 221.346831,337.306667 221.473498,344.94 C221.473498,346.94 220.563498,347.54 218.893498,347.49 C214.083498,347.35 209.283498,347.15 204.473498,346.98 C201.663498,346.88 198.843498,346.69 196.033498,346.73 C194.343498,346.73 193.483498,346.28 193.483498,344.48 C193.513498,336.14 193.503498,327.79 193.503498,319 Z" id="Shape-Copy-5" fill="#FFFFFF" fill-rule="nonzero"></path>
            <path d="M286.69,308.760298 C282.88,308.760298 279.06,308.710298 275.25,308.760298 C273.61,308.760298 273,308.210298 273,306.550298 C273,298.830298 273,291.120298 273,283.400298 C273,281.970298 273.19,280.980298 275,281.000298 C282.81,281.050298 290.61,281.000298 298.42,281.000298 C299.8,281.000298 300.67,281.330298 300.67,282.950298 C300.67,290.740298 300.67,298.530298 300.78,306.320298 C300.78,308.320298 299.84,308.740298 298.11,308.710298 C294.3,308.640298 290.48,308.710298 286.67,308.710298 L286.69,308.760298 Z" id="Shape" fill="#FFFFFF" fill-rule="nonzero"></path>
            <path d="M287.42,347.329515 C283.61,347.329515 279.79,347.279515 275.98,347.329515 C274.34,347.329515 273.73,346.779515 273.73,345.119515 C273.73,337.399515 273.73,329.689515 273.73,321.969515 C273.73,320.539515 273.92,319.549515 275.73,319.569515 C283.54,319.619515 291.34,319.569515 299.15,319.569515 C300.53,319.569515 301.4,319.899515 301.4,321.519515 C301.4,329.309515 301.4,337.099515 301.51,344.889515 C301.51,346.889515 300.57,347.309515 298.84,347.279515 C295.03,347.209515 291.21,347.279515 287.4,347.279515 L287.42,347.329515 Z" id="Shape-Copy-9" fill="#FFFFFF" fill-rule="nonzero"></path>
            <path d="M180.6,269.39 L153.44,269.39 C153.38,268.45 153.26,267.5 153.27,266.55 C153.4,259.29 153.62,252.03 153.68,244.77 C153.68,242.9 154.36,242.12 156.17,242.11 C163.7,242.11 171.24,241.97 178.77,242.04 C179.612921,242.2697 180.275761,242.921177 180.52,243.76 C180.64,252.18 180.6,260.61 180.6,269.39 Z" id="Shape" fill="#FF9282" fill-rule="nonzero"></path>
            <polygon id="Shape" fill="#FDF0E9" fill-rule="nonzero" points="375.95 235.53 348.52 234.68 348.52 207.6 375.95 207.6"></polygon>
            <path d="M180.99,293.34 C180.99,297.24 180.99,301.15 180.99,305.05 C180.99,306.56 180.37,307.15 178.88,307.15 C171.07,307.15 163.25,307.15 155.44,307.23 C153.62,307.23 153.05,306.42 153.06,304.77 C153.06,297.136667 153.04,289.506667 153,281.88 C153,280.04 153.53,279.05 155.65,279.07 C163.176667,279.136667 170.703333,279.113333 178.23,279 C180.43,279 181.07,279.81 181,281.9 C180.87,285.71 181,289.53 181,293.35 L180.99,293.34 Z" id="Shape" fill="#FFFFFF" fill-rule="nonzero"></path>
            <path d="M180.473498,334.34 C180.473498,338.24 180.473498,342.15 180.473498,346.05 C180.473498,347.56 179.853498,348.15 178.363498,348.15 C170.553498,348.15 162.733498,348.15 154.923498,348.23 C153.103498,348.23 152.533498,347.42 152.543498,345.77 C152.543498,338.136667 152.523498,330.506667 152.483498,322.88 C152.483498,321.04 153.013498,320.05 155.133498,320.07 C162.660164,320.136667 170.186831,320.113333 177.713498,320 C179.913498,320 180.553498,320.81 180.483498,322.9 C180.353498,326.71 180.483498,330.53 180.483498,334.35 L180.473498,334.34 Z" id="Shape-Copy-6" fill="#FFFFFF" fill-rule="nonzero"></path>
            <path d="M354.65,150.47 L351.46,147.47 C351.59,147.3 351.67,147.1 351.79,147.06 C355.59,146.06 355.59,146.06 354.65,150.51 L354.65,150.47 Z" id="Shape" fill="#FFFFFF" fill-rule="nonzero"></path>
            <path d="M176.09,150.63 L173.26,154.09 C172.43,150.79 172.9,150.2 176.09,150.63 Z" id="Shape" fill="#FFFFFF" fill-rule="nonzero"></path>
            <path d="M52.75,43.17 C46.32,43.17 39.88,43.17 33.45,43.12 C32.67,43.12 31.9,42.4 31.13,42.02 C31.8506009,41.631816 32.6315813,41.3681084 33.44,41.24 C46.1066667,41.5333333 58.7933333,41.8666667 71.5,42.24 C72.2880307,42.4368099 73.0335614,42.7756874 73.7,43.24 C73.0312432,43.673665 72.289156,43.9820209 71.51,44.15 C65.26,44.22 59.01,44.15 52.75,44.15 L52.75,43.17 Z" id="Shape" fill="#000000" fill-rule="nonzero"></path>
            <path d="M31.69,37.11 C32.379804,36.7698421 33.1188457,36.5403679 33.88,36.43 C46.3066667,36.71 58.73,37.0433333 71.15,37.43 C71.9346472,37.5681114 72.6956227,37.8172803 73.41,38.17 L73.25,39.39 L31.83,38.26 L31.69,37.11 Z" id="Shape" fill="#000000" fill-rule="nonzero"></path>
            <path d="M73.18,48.42 C72.3758583,48.70722 71.5396829,48.8952755 70.69,48.98 C58.6033333,48.7066667 46.52,48.3966667 34.44,48.05 C33.4254893,47.9360855 32.4220929,47.7387508 31.44,47.46 L31.59,46.06 L73.02,47.16 L73.18,48.42 Z" id="Shape" fill="#000000" fill-rule="nonzero"></path>
            <path d="M71.3,53.12 C70.5127861,53.4598531 69.6810456,53.6854669 68.83,53.79 C57.6833333,53.5433333 46.54,53.2466667 35.4,52.9 C34.5568394,52.7440999 33.7413576,52.4644099 32.98,52.07 L33.17,50.95 L71.09,51.95 L71.3,53.12 Z" id="Shape" fill="#000000" fill-rule="nonzero"></path>
            <path d="M33.83,33.46 C35.65,31.07 69.83,31.97 71.56,34.46 L33.83,33.46 Z" id="Shape" fill="#000000" fill-rule="nonzero"></path>
            <path d="M36.37,55.87 L67.74,56.71 L67.92,57.71 C67.0809575,58.1018896 66.1875555,58.3648532 65.27,58.49 C56.37,58.31 47.4733333,58.0666667 38.58,57.76 C37.7071209,57.5849926 36.8669739,57.2745768 36.09,56.84 L36.37,55.87 Z" id="Shape" fill="#000000" fill-rule="nonzero"></path>
            <path d="M68.21,28.94 L37.45,28.94 L37.19,27.87 C37.93,27.54 38.68,26.92 39.42,26.94 C48.3133333,27.1 57.2033333,27.3233333 66.09,27.61 C66.9085485,27.777469 67.6951131,28.0745406 68.42,28.49 L68.21,28.94 Z" id="Shape" fill="#000000" fill-rule="nonzero"></path>
            <path d="M42.49,61.38 L61.96,61.38 C58.9,63.87 44.85,63.54 42.49,61.38 Z" id="Shape" fill="#000000" fill-rule="nonzero"></path>
            <path d="M44.12,24.06 C47.25,21.54 59.28,21.97 61.77,24.06 L44.12,24.06 Z" id="Shape" fill="#000000" fill-rule="nonzero"></path>
            <g id="Group-34">
                <path d="M101.178353,69.2871287 L140,69.2871287 L140,24.9730905 L118.061352,24.9730905 C107.418876,24.4613028 90.5399881,22.38152 74.9997357,10.3708258 C63.7204208,1.65349964 52.6487258,0 46.0229762,0 C26.9729184,0 10.6358986,11.6645457 3.69810235,28.2722416 C1.32177866,33.6792639 0,39.6587944 0,45.9489499 C0,50.3464411 0.647527648,54.5915113 1.84761222,58.5961775 C3.94231277,66.0858741 7.8739362,72.8014867 13.1215825,78.2254447 L12.9624757,78.2225532 C26.1753288,93.414675 33.9168815,100.958896 35.2834732,112.101328 C36.5086366,122.092546 32.6896625,148.422143 31.8871393,153.758118 C31.483411,155.833357 31.3592501,157.92264 31.6120942,159.984661 C33.2779876,173.569134 44.5215343,183.357125 56.7246554,181.846132 C68.9281876,180.335553 77.470619,168.098499 75.8047256,154.514027 C75.4083976,151.281793 74.0015153,148.158194 72.0363203,145.242368 C70.3050575,142.061766 62.3805524,127.181922 59.896513,116.797878 C58.7247963,111.899752 56.710677,97.9439339 64.1171599,87.6491121 C76.3120584,73.5103064 88.0658158,70.0463424 101.178353,69.2871287" id="Fill-1" fill="#000000"></path>
                <path d="M49,25.2 C36.9049649,25.2 27.0666667,35.0379776 27.0666667,47.13354 C27.0666667,59.2286891 36.9049649,69.0666667 49,69.0666667 C61.0950351,69.0666667 70.9333333,59.2286891 70.9333333,47.13354 C70.9333333,35.0379776 61.0950351,25.2 49,25.2" id="Fill-3" fill="#FFFFFF"></path>
                <g id="Group-7" transform="translate(155.866667, 26.133333)">
                    <mask id="mask-2" fill="white">
                        <use xlink:href="#path-1"></use>
                    </mask>
                    <g id="Clip-6"></g>
                    <path d="M55.8081588,10.1257994 C52.2266294,10.1257994 50.3728647,8.18668278 48.8839235,6.62871611 C47.6037471,5.28934389 46.6785118,4.32171056 44.7123353,4.32171056 C42.7457471,4.32171056 41.8209235,5.28934389 40.5407471,6.62871611 C39.0513941,8.18668278 37.1976294,10.1257994 33.6165118,10.1257994 C30.0353941,10.1257994 28.1820412,8.18668278 26.6926882,6.62828833 C25.4125118,5.28934389 24.4881,4.32171056 22.5219235,4.32171056 C20.5557471,4.32171056 19.6309235,5.28934389 18.3511588,6.62871611 C16.8618059,8.18668278 15.0084529,10.1257994 11.4273353,10.1257994 C7.84621765,10.1257994 5.99327647,8.18668278 4.50392353,6.62828833 C3.22374706,5.28934389 2.29933529,4.32171056 0.333158824,4.32171056 L0.333158824,0.291188333 C3.91427647,0.291188333 5.76762941,2.230305 7.25698235,3.78869944 C8.53674706,5.12764389 9.46157059,6.09527722 11.4273353,6.09527722 C13.3935118,6.09527722 14.3183353,5.12764389 15.5981,3.78869944 C17.0874529,2.230305 18.9408059,0.291188333 22.5219235,0.291188333 C26.1030412,0.291188333 27.9563941,2.230305 29.4457471,3.78869944 C30.7255118,5.12764389 31.6503353,6.09527722 33.6165118,6.09527722 C35.5831,6.09527722 36.5079235,5.12764389 37.7881,3.78869944 C39.2774529,2.230305 41.1308059,0.291188333 44.7123353,0.291188333 C48.2934529,0.291188333 50.1472176,2.230305 51.6365706,3.78869944 C52.9167471,5.12764389 53.8415706,6.09527722 55.8081588,6.09527722 L55.8081588,10.1257994 Z" id="Fill-5" fill="#000000" mask="url(#mask-2)"></path>
                </g>
                <g id="Group-10" transform="translate(155.866667, 60.666667)">
                    <mask id="mask-4" fill="white">
                        <use xlink:href="#path-3"></use>
                    </mask>
                    <g id="Clip-9"></g>
                    <path d="M55.8081588,10.0506389 C52.2266294,10.0506389 50.3728647,8.11152222 48.8839235,6.55312778 C47.6033353,5.21418333 46.6785118,4.24655 44.7123353,4.24655 C42.7457471,4.24655 41.8209235,5.21418333 40.5407471,6.55312778 C39.0513941,8.11152222 37.1976294,10.0506389 33.6165118,10.0506389 C30.0349824,10.0506389 28.1820412,8.11152222 26.6926882,6.55312778 C25.4125118,5.21418333 24.4881,4.24655 22.5219235,4.24655 C20.5557471,4.24655 19.6309235,5.21418333 18.3511588,6.55312778 C16.8618059,8.11152222 15.0084529,10.0506389 11.4273353,10.0506389 C7.84621765,10.0506389 5.99327647,8.11152222 4.50392353,6.55312778 C3.22374706,5.21418333 2.29933529,4.24655 0.333158824,4.24655 L0.333158824,0.216027778 C3.91427647,0.216027778 5.76762941,2.15514444 7.25698235,3.71353889 C8.53674706,5.05248333 9.46157059,6.02011667 11.4273353,6.02011667 C13.3935118,6.02011667 14.3183353,5.05248333 15.5981,3.71353889 C17.0874529,2.15514444 18.9408059,0.216027778 22.5219235,0.216027778 C26.1030412,0.216027778 27.9563941,2.15514444 29.4457471,3.71353889 C30.7255118,5.05248333 31.6503353,6.02011667 33.6165118,6.02011667 C35.5831,6.02011667 36.5079235,5.05248333 37.7881,3.71311111 C39.2774529,2.15514444 41.1308059,0.216027778 44.7123353,0.216027778 C48.2934529,0.216027778 50.1472176,2.15514444 51.6365706,3.71353889 C52.9167471,5.05248333 53.8415706,6.02011667 55.8081588,6.02011667 L55.8081588,10.0506389 Z" id="Fill-8" fill="#000000" mask="url(#mask-4)"></path>
                </g>
                <g id="Group-13" transform="translate(155.866667, 43.866667)">
                    <mask id="mask-6" fill="white">
                        <use xlink:href="#path-5"></use>
                    </mask>
                    <g id="Clip-12"></g>
                    <path d="M55.8081588,10.0882406 C52.2266294,10.0882406 50.3728647,8.14912389 48.8839235,6.59115722 C47.6037471,5.251785 46.6785118,4.28415167 44.7123353,4.28415167 C42.7457471,4.28415167 41.8209235,5.251785 40.5407471,6.59115722 C39.0513941,8.14912389 37.1976294,10.0882406 33.6165118,10.0882406 C30.0353941,10.0882406 28.1820412,8.14912389 26.6926882,6.59072944 C25.4125118,5.251785 24.4881,4.28415167 22.5219235,4.28415167 C20.5557471,4.28415167 19.6309235,5.251785 18.3511588,6.59115722 C16.8618059,8.14912389 15.0084529,10.0882406 11.4273353,10.0882406 C7.84621765,10.0882406 5.99327647,8.14912389 4.50392353,6.59072944 C3.22374706,5.251785 2.29933529,4.28415167 0.333158824,4.28415167 L0.333158824,0.253629444 C3.91427647,0.253629444 5.76762941,2.19274611 7.25698235,3.75114056 C8.53674706,5.090085 9.46157059,6.05771833 11.4273353,6.05771833 C13.3935118,6.05771833 14.3183353,5.090085 15.5981,3.75114056 C17.0874529,2.19274611 18.9408059,0.253629444 22.5219235,0.253629444 C26.1030412,0.253629444 27.9563941,2.19274611 29.4457471,3.75114056 C30.7255118,5.090085 31.6503353,6.05771833 33.6165118,6.05771833 C35.5831,6.05771833 36.5079235,5.090085 37.7881,3.75114056 C39.2774529,2.19274611 41.1308059,0.253629444 44.7123353,0.253629444 C48.2934529,0.253629444 50.1472176,2.19274611 51.6365706,3.75114056 C52.9167471,5.090085 53.8415706,6.05771833 55.8081588,6.05771833 L55.8081588,10.0882406 Z" id="Fill-11" fill="#000000" mask="url(#mask-6)"></path>
                </g>
                <polygon id="Fill-14" fill="#000000" points="24.2798271 68.1333333 24.2666667 66.5465656 74.6535062 66.2666667 74.6666667 67.8534344"></polygon>
                <polygon id="Fill-16" fill="#000000" points="24.2798271 62.5333333 24.2666667 60.9465656 74.6535062 60.6666667 74.6666667 62.2534344"></polygon>
                <polygon id="Fill-18" fill="#000000" points="24.2798271 57.8666667 24.2666667 56.279899 74.6535062 56 74.6666667 57.5867677"></polygon>
                <polygon id="Fill-20" fill="#000000" points="24.2798271 53.2 24.2666667 51.6132323 74.6535062 51.3333333 74.6666667 52.920101"></polygon>
                <polygon id="Fill-22" fill="#000000" points="24.2798271 47.6 24.2666667 46.0132323 74.6535062 45.7333333 74.6666667 47.320101"></polygon>
                <polygon id="Fill-24" fill="#000000" points="24.2798271 42.9333333 24.2666667 41.3465656 74.6535062 41.0666667 74.6666667 42.6534344"></polygon>
                <polygon id="Fill-26" fill="#000000" points="24.2798271 38.2666667 24.2666667 36.679899 74.6535062 36.4 74.6666667 37.9867677"></polygon>
                <polygon id="Fill-28" fill="#000000" points="24.2798271 32.6666667 24.2666667 31.079899 74.6535062 30.8 74.6666667 32.3867677"></polygon>
                <polygon id="Fill-30" fill="#000000" points="24.2798271 28 24.2666667 26.4132323 74.6535062 26.1333333 74.6666667 27.720101"></polygon>
                <path d="M49,68.851408 C37.0236683,68.851408 27.2819254,59.1100743 27.2819254,47.1333333 C27.2819254,35.1570016 37.0236683,25.415668 49,25.415668 C60.9763317,25.415668 70.7180746,35.1570016 70.7180746,47.1333333 C70.7180746,59.1100743 60.9763317,68.851408 49,68.851408 M49,21.4666667 C34.8476045,21.4666667 23.3333333,32.9813471 23.3333333,47.1333333 C23.3333333,61.2857289 34.8476045,72.8 49,72.8 C63.1523955,72.8 74.6666667,61.2857289 74.6666667,47.1333333 C74.6666667,32.9813471 63.1523955,21.4666667 49,21.4666667" id="Fill-32" fill="#FFFFFF"></path>
            </g>
        </g>
    </g>
</svg>