<svg width="24" height="24" xmlns="http://www.w3.org/2000/svg" xmlns:xlink="http://www.w3.org/1999/xlink"><defs><path d="M19.763.236a.809.809 0 0 0-1.142 0L.237 18.585a.805.805 0 0 0 .57 1.376.806.806 0 0 0 .572-.236L19.763 1.376a.805.805 0 0 0 0-1.14z" id="a"/><path d="M19.763 18.585L1.38.236a.809.809 0 0 0-1.142 0 .805.805 0 0 0 0 1.14L18.62 19.725a.806.806 0 0 0 1.142 0 .805.805 0 0 0 0-1.14z" id="c"/></defs><g fill="none" fill-rule="evenodd"><g transform="translate(2 2)"><mask id="b" fill="#fff"><use xlink:href="#a"/></mask><path fill="#FFF" mask="url(#b)" d="M-5 24.961h30V-5H-5z"/></g><g transform="translate(2 2)"><mask id="d" fill="#fff"><use xlink:href="#c"/></mask><path fill="#FFF" mask="url(#d)" d="M-5 24.961h30v-29.96H-5z"/></g></g></svg>