<svg width="22" height="24" xmlns="http://www.w3.org/2000/svg" xmlns:xlink="http://www.w3.org/1999/xlink"><defs><path d="M8.563 0c-.597 1.3-2.295 2.765-2.345 4.062-.07 1.79 1.546 2.386 2.952 3.52 3.387 2.728-.285 4.2.495 7.575.904-3.11 5.41-4.228 3.445-7.572-.45-.767-1.81-1.715-1.645-2.783C11.68 3.429 15.482.919 16.353 0h5.215c-2.206 3.15-4.537 3.967-1.497 7.276 1.905 2.074 1.786 2.574.098 4.713-1.653 2.095-1.47 2.793.061 4.704 2.309 2.88.817 4.107-.276 7.264h-4.55c.413-1.186 1.245-2.363 1.578-3.53.514-1.795-.223-2.344-1.26-3.78-.849-1.176-1.496-1.566-1.117-2.998.39-1.471 2-2.852 2.641-4.297-1.219 1.86-4.318 3.475-4.209 5.86a26.77 26.77 0 0 0 1.614 2.715c.373 1.247.033 2.299-1.02 3.157H9.835c.617-3.557-2.067-3.265-3.547-5.873-1.179-2.076.988-3.762 1.334-5.87-.66 1.45-2.318 2.827-2.719 4.307-.39 1.437.263 1.82 1.122 3 1.04 1.43 1.806 1.982 1.257 3.78-.356 1.167-1.244 2.337-1.681 3.529H1.26c1.22-3.176 2.876-4.314.473-7.264-1.574-1.932-1.749-2.62-.01-4.715 1.797-2.161 1.93-2.655-.134-4.714C-1.779 3.904.89 3.138 3.316 0h5.247z" id="a"/></defs><g fill="none" fill-rule="evenodd"><mask id="b" fill="#fff"><use xlink:href="#a"/></mask><path fill="#000" mask="url(#b)" d="M-5 28.957h31.568V-5H-5z"/></g></svg>