<svg width="16" height="16" xmlns="http://www.w3.org/2000/svg" xmlns:xlink="http://www.w3.org/1999/xlink"><defs><path d="M11.252 14c-.583 0-1.286-.146-2.06-.438-1.696-.64-3.541-1.903-5.196-3.558C2.341 8.35 1.076 6.503.437 4.807-.145 3.265-.146 1.999.434 1.42c.083-.084.168-.173.255-.265C1.22.599 1.816-.027 2.608 0c.546.023 1.074.362 1.616 1.035 1.6 1.99.879 2.7.044 3.522l-.148.146c-.136.136-.394.769 2.006 3.17.784.783 1.452 1.356 1.986 1.703.336.219.938.55 1.184.303l.149-.15c.82-.833 1.53-1.552 3.519.047.674.541 1.012 1.07 1.035 1.616.032.792-.598 1.39-1.155 1.92-.092.087-.181.171-.265.254-.287.289-.747.433-1.327.433zM2.552.47c-.563 0-1.072.536-1.521 1.01-.09.094-.178.186-.264.273-.432.431-.388 1.564.11 2.888.618 1.635 1.843 3.422 3.452 5.03 1.609 1.609 3.395 2.834 5.03 3.45 1.324.501 2.457.543 2.888.112a11.9 11.9 0 0 1 .274-.263c.483-.46 1.032-.98 1.008-1.558-.017-.397-.306-.824-.86-1.27-1.657-1.332-2.12-.862-2.889-.082l-.15.152c-.368.368-.964.286-1.774-.24-.562-.366-1.256-.96-2.062-1.767-1.992-1.992-2.63-3.21-2.006-3.836l.15-.148c.781-.768 1.253-1.232-.08-2.89-.446-.554-.873-.843-1.27-.86h-.037z" id="a"/></defs><g fill="none" fill-rule="evenodd"><g transform="translate(1 1)"><mask id="b" fill="#fff"><use xlink:href="#a"/></mask><path fill="#FBB597" mask="url(#b)" d="M-5 19h24V-5H-5z"/></g><path d="M12.252 15c-.583 0-1.286-.146-2.06-.438-1.696-.64-3.541-1.903-5.196-3.558-1.655-1.655-2.92-3.501-3.559-5.197C.855 4.265.854 2.999 1.434 2.42c.083-.084.168-.173.255-.265C2.22 1.599 2.816.973 3.608 1c.546.023 1.074.362 1.616 1.035 1.6 1.99.879 2.7.044 3.522l-.148.146c-.136.136-.394.769 2.006 3.17.784.783 1.452 1.356 1.986 1.703.336.219.938.55 1.184.303l.149-.15c.82-.833 1.53-1.552 3.519.047.674.541 1.012 1.07 1.035 1.616.032.792-.598 1.39-1.155 1.92-.092.087-.181.171-.265.254-.287.289-.747.433-1.327.433zm-8.7-13.53c-.563 0-1.072.536-1.521 1.01-.09.094-.178.186-.264.273-.432.431-.388 1.564.11 2.888.618 1.635 1.843 3.422 3.452 5.03 1.609 1.609 3.395 2.834 5.03 3.45 1.324.501 2.457.543 2.888.112a11.9 11.9 0 0 1 .274-.263c.483-.46 1.032-.98 1.008-1.558-.017-.397-.306-.824-.86-1.27-1.657-1.332-2.12-.862-2.889-.082l-.15.152c-.368.368-.964.286-1.774-.24-.562-.366-1.256-.96-2.062-1.767-1.992-1.992-2.63-3.21-2.006-3.836l.15-.148c.781-.768 1.253-1.232-.08-2.89-.446-.554-.873-.843-1.27-.86h-.037z" stroke="#FBB597" stroke-width=".55"/></g></svg>