<svg width="64" height="64" xmlns="http://www.w3.org/2000/svg" xmlns:xlink="http://www.w3.org/1999/xlink"><defs><path d="M.22 48.444c.179-.104.367-.192.54-.307.247-.164.523-.271.784-.408.162-.085.336-.138.5-.208.17-.073.358-.128.512-.244.074-.056.18-.07.264-.086.166-.035.298-.14.464-.178.119-.027.279-.032.372-.154a.051.051 0 0 1 .042-.018c.176.045.324-.073.473-.117.264-.08.536-.13.796-.217.24-.08.511-.09.717-.2.17-.092.362-.003.518-.15.073-.07.254-.096.382-.105.21-.016.41-.083.587-.157.143-.06.31-.04.446-.15.075-.062.223-.089.326-.101.172-.02.29-.147.443-.17.255-.04.446-.233.7-.265.096-.012.183-.075.27-.115.203-.092.4-.2.596-.306.12-.063.267-.103.356-.238.05-.076.176-.055.265-.124.183-.143.377-.27.58-.382.16-.086.29-.204.435-.3.257-.167.502-.353.733-.556.187-.168.393-.316.59-.474.188-.15.382-.295.54-.48.062-.071.155-.114.23-.173a4.195 4.195 0 0 0 1.107-1.348 5.08 5.08 0 0 0 .394-1.069c.049-.196.032-.398.09-.578.182-.571.04-1.15.084-1.723.015-.2.045-.416-.009-.602-.08-.277-.027-.567-.102-.828-.083-.29-.096-.588-.175-.876-.028-.102-.066-.148-.18-.147-.264.004-.515-.092-.78-.114a1.741 1.741 0 0 1-.593-.187c-.17-.085-.35-.159-.516-.27-.147-.098-.28-.211-.423-.312-.088-.064-.037-.188-.138-.252-.054-.034-.096-.072-.162-.07-.17.001-.34 0-.51 0-.322 0-.635-.226-.764-.521-.1-.23-.096-.47-.105-.71-.002-.056.018-.124-.048-.156-.067-.033-.111 0-.167.045a.583.583 0 0 1-.283.106c-.29.026-.573.213-.86.109-.223-.082-.467-.1-.68-.247-.147-.101-.264-.245-.41-.319-.294-.15-.428-.436-.626-.661-.103-.117-.223-.26-.271-.43a.08.08 0 0 0-.023-.04c-.166-.121-.218-.322-.328-.481-.104-.153-.182-.29-.396-.347a2.965 2.965 0 0 1-.523-.204c-.251-.123-.529-.2-.75-.375a2.015 2.015 0 0 1-.392-.425c-.121-.171-.15-.385-.28-.548a.047.047 0 0 1-.01-.03c.016-.228-.118-.424-.136-.648-.02-.262-.135-.502-.237-.742-.052-.121-.064-.278-.15-.362-.167-.165-.07-.38-.152-.567-.08-.181-.108-.452.04-.664.031-.044.023-.091.023-.138 0-.149 0-.297.002-.446 0-.032 0-.068.039-.077.032-.007.04.021.059.04.12.128.245.255.367.383.031.031.073.067.108.031.047-.048-.03-.06-.043-.093-.114-.264-.308-.478-.449-.726-.166-.293-.263-.622-.473-.892-.006-.008-.015-.02-.013-.028.043-.216-.11-.4-.103-.61.006-.19-.028-.38-.028-.569.002-.328-.033-.673.043-.98.146-.584.032-1.165.08-1.745.006-.092.003-.146.137-.096.28.109.588.112.87.009.077-.027.13-.087.187-.14a.052.052 0 0 0-.076-.04c-.193.067-.31-.127-.478-.138-.009 0-.022-.023-.024-.036a.038.038 0 0 1 .036-.043.695.695 0 0 1 .112-.006c.408.02.816-.02 1.223-.038.163-.006.325-.075.495-.06a.047.047 0 0 0 .057-.042c.003-.043-.032-.05-.064-.052a.537.537 0 0 0-.08 0c-.353.028-.674-.109-1.002-.205-.115-.033-.182-.152-.269-.231-.124-.114-.267-.225-.316-.403-.014-.052-.028-.109.016-.15.056-.05.076.03.113.04.201.054.362.201.57.237.12.021.217-.036.326-.067.242-.067.176-.247.21-.407.059-.278.154-.548.41-.717.202-.136.149-.128.12-.35-.043-.35-.242-.684-.074-1.064.078-.177.026-.408.05-.612.04-.328.04-.672.12-.98.073-.287.034-.558.068-.834.008-.068.004-.134-.062-.186-.058-.045-.032-.12-.029-.18.003-.06.047-.096.085-.027.03.053.082.072.116.122.159.241.547.206.7-.045.125-.206.178-.443.301-.651.096-.163.182-.333.326-.454.07-.059.184-.06.261-.13.044-.038.107-.069.113-.127.025-.216.179-.372.255-.565.134-.34.427-.541.684-.772a.127.127 0 0 1 .068-.035c.324-.024.365-.283.43-.519.046-.165.107-.325.16-.488.044-.135.095-.273.144-.404.051-.139.07-.287.138-.423.063-.128.098-.27.153-.404.06-.146.104-.294.18-.437.062-.12.108-.247.137-.379.035-.167.16-.315.232-.478.094-.205.218-.389.336-.58.25-.405.525-.792.788-1.189.171-.258.391-.474.568-.728a2.13 2.13 0 0 1 .59-.55c.127-.083.223-.198.336-.294a7.49 7.49 0 0 1 .687-.512c.15-.102.286-.232.446-.313.181-.093.35-.213.514-.319.16-.104.317-.232.484-.332.253-.152.493-.324.758-.458.145-.073.268-.197.422-.255.182-.07.338-.193.53-.234.122-.027.215-.115.334-.157.087-.032.191-.09.28-.114.169-.044.317-.146.502-.15.113-.003.223-.072.335-.107.21-.065.437-.047.63-.12.417-.159.838-.047 1.255-.08.147-.012.268.099.422.11.208.017.403.109.6.189.302.122.596.263.899.382.2.078.414.142.638.142.224 0 .458.017.685-.005.248-.02.491-.086.717-.19.015-.007.029-.021.043-.02.352.005.698-.199 1.041-.09.24.077.49.073.73.163.224.085.461.16.683.25.234.1.462.211.683.335.223.122.418.285.67.371.206.072.375.246.567.365.075.047.155.086.239.115.167.058.274.206.443.255.178.052.294.21.469.282.11.045.22.141.313.223.25.22.533.395.761.649.155.172.334.333.493.506.194.208.37.433.526.67.124.192.28.362.397.557.17.286.346.57.5.868.134.263.265.53.407.787.111.201.18.422.295.615.09.153.169.312.238.475.09.206.162.421.263.622.085.169.187.332.242.512.044.144.115.277.179.406.082.172.145.354.231.525.086.172.157.346.23.52.064.155.146.305.203.457.07.189.154.376.23.56.073.179.113.386.265.533.073.071.077.191.106.282.099.319.27.6.419.892.112.229.255.441.426.63.138.148.379.13.547-.042.087-.089.17-.18.25-.275.024-.028.032-.075.08-.047.032.024.04.068.018.102-.176.239-.054.511-.089.764a.31.31 0 0 0 .082.258c.045.053.082.08.14.068.136-.026.294.077.412-.077.026-.034.067.013.064.055a.655.655 0 0 0 .09.394c.059.096.13.154.22.08s.178-.15.204-.277c.017-.082.108-.132.112-.227 0-.028.045-.046.071-.005.046.073.114.127.105.235-.015.168.003.34-.005.51a.294.294 0 0 0 .121.258c.074.062.133.06.208-.003a1.94 1.94 0 0 0 .48-.598c.042-.083.12-.17.117-.279 0-.028.011-.053.045-.054.033-.001.047.023.047.051 0 .266.048.544-.017.792a2.41 2.41 0 0 1-.339.783c-.064.092-.082.19.083.179.085-.006.085.095.168.1.14.005.444-.131.52-.252.14-.206.207-.452.194-.7-.011-.197-.003-.393-.002-.59 0-.032 0-.069.04-.077.039-.008.05.026.06.057.09.248.18.491.24.751.063.26.055.516.076.775.006.087-.003.17-.061.24-.05.06-.03.133-.032.2 0 .036-.008.08.039.094.046.014.11.027.133-.015.035-.064.137-.09.115-.191-.007-.032.01-.068.052-.062.042.005.045.044.04.074-.021.14.039.28-.068.425-.058.079-.072.216-.116.325-.035.087 0 .156.125.157.202 0 .404.023.552-.185-.028.277.078.537-.05.817-.098.21-.25.345-.399.498a.258.258 0 0 1-.21.08c-.265-.003-.531 0-.796 0-.096 0-.133.005-.082.127.087.206.206.396.269.62.05.18.11.386.266.528.104.096.213.094.31.01.097-.083.18-.19.267-.286.032-.035.052-.088.112-.068.06.02.035.079.045.122.043.193-.103.322-.165.478-.083.206-.196.396-.267.612-.053.159-.038.318-.087.464-.108.318-.114.663-.29.965-.161.286-.39.528-.669.703-.198.125-.404.242-.605.356-.21.121-.409.26-.594.417-.084.07-.146.196-.14.244.026.226-.112.399-.154.6-.044.211-.14.414-.218.617-.049.127-.123.248-.152.38-.017.078-.104.089-.106.18-.003.19.119.299.234.402.17.154.385.151.599.105a.116.116 0 0 0 .063-.039c.102-.14.234-.266.223-.46a.25.25 0 0 1 .07-.189c.029-.032.016-.12.083-.092.066.027.05.115.021.152-.09.117-.067.25-.084.38-.025.19-.171.312-.302.434-.079.074-.193.1-.277.148-.148.086-.313.084-.463.144-.149.06-.318.108-.47.182a1.806 1.806 0 0 0-.556.436 1.688 1.688 0 0 1-.6.422c-.201.085-.35.233-.52.356-.306.223-.521.53-.76.816-.187.23-.36.471-.518.722-.104.159-.191.328-.29.489-.065.108-.178.193-.23.321-.066.166-.179.308-.274.456-.146.227-.274.465-.421.691-.1.164-.223.312-.364.442-.138.121-.273.228-.472.286-.61.175-1.225.034-1.834.082a.669.669 0 0 1-.398-.076c-.085-.049-.197-.017-.297-.013-.03 0-.046.023-.051.052-.035.191-.134.363-.219.524-.133.255-.263.512-.424.755-.193.293-.465.503-.69.76-.085.099-.103.218-.144.32-.057.14-.098.31-.166.434-.096.177-.013.392-.162.541a.04.04 0 0 0-.01.03c.044.278-.148.525-.104.806.024.151-.067.304-.072.44-.016.385-.09.78.048 1.162.056.154-.002.32.032.473.049.206.081.416.157.618a6.3 6.3 0 0 1 .124.375c.044.145.119.27.188.401.07.132.12.287.214.414.227.298.435.619.748.83.257.175.46.415.738.564.124.067.195.229.318.304.212.132.413.28.602.444.214.181.446.336.666.507.255.199.516.394.789.573.175.115.35.238.528.347.196.12.39.246.593.357.173.096.342.206.527.266.215.071.4.209.625.255.064.013.124.054.184.087.186.103.406.116.594.205.272.13.57.17.847.28.153.06.332.058.48.127.199.09.419.072.618.167.128.062.295.09.434.103.347.032.663.188 1.003.212.215.015.414.096.613.144.16.038.352.024.498.151.068.059.188-.007.278.04.166.088.355.111.53.18.263.102.537.174.8.284.11.046.232.106.363.124.108.015.208.08.31.123.216.093.433.189.643.294.144.072.29.142.435.214A31.891 31.891 0 0 1 22 57 31.887 31.887 0 0 1 .22 48.444z" id="a"/></defs><g transform="translate(10 7)" fill="none" fill-rule="evenodd"><mask id="b" fill="#fff"><use xlink:href="#a"/></mask><path fill="#CCC" mask="url(#b)" d="M-6.111 63.367H50.11V-4.889H-6.11z"/></g></svg>