<?xml version="1.0" encoding="UTF-8"?>
<svg width="1600px" height="1200px" viewBox="0 0 1600 1200" version="1.1" xmlns="http://www.w3.org/2000/svg" xmlns:xlink="http://www.w3.org/1999/xlink">
    <!-- Generator: Sketch 51.2 (57519) - http://www.bohemiancoding.com/sketch -->
    <title>3 copy</title>
    <desc>Created with Sketch.</desc>
    <defs>
        <polygon id="path-1" points="0.999476471 0.873565 167.424353 0.873565 167.424353 30.3773983 0.999476471 30.3773983"></polygon>
        <polygon id="path-3" points="0.999476471 0.648083333 167.424353 0.648083333 167.424353 30.1519167 0.999476471 30.1519167"></polygon>
        <polygon id="path-5" points="0.999476471 0.760888333 167.424353 0.760888333 167.424353 30.2647217 0.999476471 30.2647217"></polygon>
    </defs>
    <g id="3-copy" stroke="none" stroke-width="1" fill="none" fill-rule="evenodd">
        <g id="1" transform="translate(84.000000, 24.000000)">
            <path d="M934.02,732.45 L1018.62,732.45 C1018.62,750.537693 1018.77,768.152712 1018.62,785.76773 C1018.62,794.338902 1017.48,802.878562 1017.33,811.449733 C1017.33,816.428576 1015.77,818.539857 1010.7,818.508345 C987.3,818.350787 963.9,818.508345 940.5,818.350787 C938.34,818.350787 934.5,815.640784 934.5,814.159736 C933.93,787.09122 934.02,759.928168 934.02,732.45 Z" id="Shape" fill="#FFDCCE" fill-rule="nonzero"></path>
            <path d="M1049.31,818.46 L1049.31,736.89 C1052.64,736.65 1055.31,736.41 1057.8,736.29 C1079.25,735.3 1100.73,734.43 1122.18,733.29 C1132.17,732.78 1133.19,733.71 1133.01,743.91 C1132.65,764.61 1132.11,785.28 1132.38,805.98 C1132.38,814.68 1127.46,818.58 1120.8,818.79 C1097.43,819.51 1074.03,819.15 1050.63,819.15 C1050.18,819.21 1049.7,818.61 1049.31,818.46 Z" id="Shape" fill="#FDF0E9" fill-rule="nonzero"></path>
            <polygon id="Shape" fill="#FDF0E9" fill-rule="nonzero" points="1132.55432 706.59 1045.56 704.04 1045.56 622.8 1132.55432 622.8"></polygon>
            <polygon id="Shape-Copy-12" fill="#FDF0E9" fill-rule="nonzero" points="1038.83568 500.596638 1125.83 500.596638 1125.83 589.696638 1038.83568 589.696638"></polygon>
            <path d="M425.681107,571.53 L338.7,571.53 L338.7,486.99 C357.20462,486.99 375.302201,486.84 393.399782,486.99 C402.198087,486.99 411.027702,487.71 419.763386,488.64 C421.861202,488.85 425.430621,491.22 425.461932,492.63 C425.775039,518.82 425.681107,544.89 425.681107,571.53 Z" id="Shape" fill="#FFDCCE" fill-rule="nonzero"></path>
            <polygon id="Shape" fill="#FDF0E9" fill-rule="nonzero" points="341.892273 609 423.84 609 423.84 686.43 339 690.66"></polygon>
            <polygon id="Shape" fill="#FF9282" fill-rule="nonzero" points="691.638787 493.499696 778.633103 493.499696 778.633103 580.1 691.638787 580.1"></polygon>
            <path d="M579,695.699353 L579,612 L662.67,612 C662.67,623.32586 662.67,633.967191 662.67,644.608521 C662.67,659.294802 662.67,674.012197 662.234381,688.698478 C662.234381,691.094333 659.122815,695.388203 657.44257,695.419318 C631.492112,695.823813 605.572771,695.699353 579,695.699353 Z" id="Shape" fill="#FF9282" fill-rule="nonzero"></path>
            <polygon id="Shape-Copy-13" fill="#FFDCCE" fill-rule="nonzero" points="342.536781 720.533199 426.006551 720.533199 426.006551 806.440393 339.590789 811.133502"></polygon>
            <polygon id="Shape" fill="#FFB6A3" fill-rule="nonzero" points="808.578554 498 897.994316 498 897.994316 582.600304 808.578554 582.600304"></polygon>
            <polygon id="Shape-Copy-11" fill="#FFDCCE" fill-rule="nonzero" points="927 497.762409 1011.99432 497.762409 1011.99432 584.362713 927 584.362713"></polygon>
            <path d="M1136.7,809.91 C1145.52,806.01 1152.66,803.34 1159.23,799.59 C1161.43126,797.539563 1162.65351,794.647621 1162.59,791.64 C1162.86,763.56 1162.38,735.45 1162.92,707.37 C1163.40885,687.835279 1164.91087,668.339075 1167.42,648.96 C1176,697.32 1171.29,746.13 1173.03,795.63 C1194.03,791.55 1213.35,799.71 1233.45,801.81 C1259.58,804.54 1284.18,798.99 1305.45,783.03 C1317.20679,773.784024 1328.33164,763.761632 1338.75,753.03 C1358.4,733.56 1385.13,729.03 1406.67,742.02 C1430.22,756.3 1438.17,787.02 1423.92,812.37 C1408.47,839.88 1383.15,853.98 1353.42,861.15 C1325.4,867.9 1298.82,865.08 1274.25,848.82 C1266.09418,843.359991 1257.60792,838.41051 1248.84,834 C1229.7,824.52 1217.43,826.86 1202.4,841.95 C1196.03588,849.066917 1189.2539,855.798815 1182.09,862.11 C1172.55,869.61 1171.23,878.82 1173.69,890.97 C1177.38,887.34 1180.56,884.28 1183.68,881.13 C1194.66,870.12 1205.52,858.99 1216.68,848.13 C1224.9,840.03 1231.44,839.13 1241.79,844.35 C1243.5,845.19 1245.18,846.12 1246.86,846.99 C1260.81,854.43 1261.86,856.47 1260.36,872.55 C1258.77,890.55 1251.54,906.72 1242.36,921.99 C1225.05,950.37 1202.61,974.52 1179.84,998.46 C1176.55226,1002.18168 1174.62698,1006.91025 1174.38,1011.87 C1173.87,1033.95 1174.38,1056.03 1174.38,1078.14 C1174.38,1087.68 1172.46,1089.57 1162.77,1089.6 C1131.15,1089.6 1099.5,1089.42 1067.88,1089.96 C1061.16529,1090.04644 1054.56218,1091.68951 1048.59,1094.76 C1007.25,1117.14 963.99,1135.05 920.13,1151.76 C918.390407,1152.22903 916.628143,1152.60952 914.85,1152.9 L976.74,1090.32 C965.64,1089 957.39,1088.31 949.89,1096.68 C937.17,1110.87 923.19,1123.98 909.75,1137.51 C907.827091,1139.66018 905.311833,1141.19438 902.52,1141.92 L923.16,1089.93 C816.42,1087.8 710.52,1094.7 605.16,1083.57 L605.01,1080.39 C614.01,1078.95 623.01,1076.97 632.01,1076.19 C645.84,1074.99 659.73,1074 673.62,1073.97 C756.26,1073.97 838.89,1074.16 921.51,1074.54 C927.9,1074.54 931.11,1072.83 933.66,1066.86 C949.675595,1029.57955 968.782236,993.704422 990.78,959.61 C996.18,951.27 1001.73,943.02 1008.03,933.51 C1003.98,933.21 1001.16,932.88 998.34,932.85 C978.72,932.85 959.07,932.52 939.45,932.85 C933.99,932.85 931.74,931.8 931.77,925.71 C931.89,900.09 931.69,874.47 931.17,848.85 C931.17,841.8 932.52,839.85 940.32,840.09 C965.34,840.96 990.39,840.81 1015.32,840.36 C1023,840.36 1025.25,842.43 1024.89,850.02 C1024.08,866.91 1024.08,883.83 1023.9,900.72 C1023.9,903.72 1024.38,906.9 1024.74,911.04 C1036.74,900.33 1045.32,890.04 1043.28,873.78 C1042.23,865.44 1042.83,856.89 1042.35,848.46 C1042.02,843 1044.3,841.26 1049.55,841.38 C1060.14,841.65 1070.76,841.38 1081.38,841.38 L1081.38,844.74 C1073.04,844.74 1064.7,845.01 1056.36,844.74 C1049.04,844.44 1045.89,847.32 1046.1,854.73 C1046.4,864.51 1046.1,874.29 1046.1,885.57 L1113.33,824.34 C1111.29,824.13 1109.1,823.74 1106.94,823.74 C1088.67,823.74 1070.4,823.38 1052.13,823.74 C1046.34,823.74 1043.67,822.36 1043.7,816.12 C1043.7,789.93 1043.7,763.77 1043.43,737.58 C1043.43,732.93 1044.57,730.53 1049.82,730.68 C1077.06,731.49 1104.33,731.97 1131.57,733.02 C1133.22,733.02 1136.01,737.22 1136.04,739.5 C1136.46,759.66 1136.37,779.85 1136.43,800.04 C1136.7,802.71 1136.7,805.59 1136.7,809.91 Z M973.74,1074.6 L1159.41,1074.6 L1162.02,885.18 L1159.89,884.28 C1154.67,889.68 1149.84,895.53 1144.11,900.33 C1136.58,906.66 1132.89,914.1 1134.57,923.88 C1136.04,932.37 1130.88,934.98 1124.19,934.05 C1113.33,932.58 1105.92,937.05 1099.77,945.24 C1097.83713,947.857771 1095.74307,950.352601 1093.5,952.71 C1068.86,977.67 1044.19,1002.59 1019.49,1027.47 C1014.36,1032.66 1008.96,1037.61 1003.89,1042.86 C994.05,1053.06 984.39,1063.38 973.71,1074.6 L973.74,1074.6 Z M936.57,885.12 L935.7,885.12 C935.7,896.85 935.85,908.55 935.7,920.28 C935.7,926.52 937.95,929.04 944.37,928.89 C963.18,928.5 981.99,928.53 1000.8,928.41 C1015.56,928.41 1020.75,923.22 1020.69,908.13 C1020.69,889.32 1020,870.54 1019.94,851.73 C1019.94,846.6 1018.29,844.26 1012.95,844.29 C989.55,844.41 966.16,844.41 942.78,844.29 C938.1,844.29 936.78,846.45 936.78,850.8 C936.63,862.26 936.54,873.69 936.54,885.12 L936.57,885.12 Z M1049.34,818.46 C1049.73,818.7 1050.21,819.21 1050.69,819.21 C1074.09,819.21 1097.49,819.57 1120.86,818.85 C1127.49,818.64 1132.56,814.71 1132.44,806.04 C1132.17,785.37 1132.74,764.67 1133.07,743.97 C1133.25,733.77 1132.23,732.84 1122.24,733.35 C1100.79,734.46 1079.31,735.33 1057.86,736.35 C1055.28,736.35 1052.7,736.71 1049.37,736.95 L1049.34,818.46 Z M1321.32,811.11 C1320.93,830.91 1336.32,843.96 1357.08,841.29 C1380.18,838.29 1403.64,817.62 1409.43,795.12 C1414.8,774.12 1403.07,756.78 1382.7,755.28 C1354.83,753.24 1321.83,783.24 1321.29,811.11 L1321.32,811.11 Z M1130.28,928.77 L1130.28,914.61 L1116.63,928.89 L1130.28,928.77 Z" id="Shape" fill="#000000" fill-rule="nonzero"></path>
            <path d="M1160.97,409.98 L1160.97,328.32 C1060.68,324.06 960.63,328.32 860.97,321.6 L860.82,318.96 C868.41,318.15 876,316.95 883.62,316.59 C899.67,315.78 915.75,315.03 931.83,314.91 C996.45,314.4 1061.1,313.71 1125.72,314.1 C1142.37,314.1 1158.99,318.03 1176.72,320.28 C1174.68,380.28 1178.94,440.88 1167.72,501.12 C1166.64,492.54 1165.41,483.99 1164.51,475.41 C1163.61,466.83 1162.71,458.07 1162.35,449.37 C1161.99,440.67 1162.35,431.37 1162.35,422.22 C1155.48,422.22 1149.9,422.22 1144.35,422.22 C1069.92,421.41 995.49,420 921.06,419.85 C753.9,419.49 586.73,419.49 419.55,419.85 C389.55,419.85 359.55,420.3 329.85,412.23 C340.65,410.79 351.42,408.21 362.22,408.12 C407.46,407.79 452.7,408.12 497.94,408.33 C641.64,408.84 785.37,409.59 929.07,409.77 C994.23,409.77 1059.39,408.75 1124.55,408.42 C1136.37,408.36 1148.31,409.41 1160.97,409.98 Z" id="Shape" fill="#000000" fill-rule="nonzero"></path>
            <path d="M303.45,988.29 C301.89,971.52 299.01,954.75 299.01,937.98 C298.73,751.98 298.73,565.98 299.01,379.98 C299.01,360.36 300,340.74 300.21,321.12 C300.21,314.19 302.94,311.28 309.96,311.34 C393.39,312.06 476.82,312.42 560.28,313.41 C575.640149,313.907732 590.913908,315.917437 605.88,319.41 C598.98,320.43 592.11,321.87 585.15,322.41 C571.56,323.4 557.94,324.42 544.35,324.45 C471,324.66 397.65,324.45 324.3,324.45 L313.68,324.45 C313.68,339.81 313.68,354.45 313.68,369.06 C313.68,393.87 314.25,418.68 314.13,443.46 C313.47,598.34 312.68,753.22 311.76,908.1 C311.58,932.28 308.76,956.43 306.87,980.58 C306.518529,982.986423 305.987038,985.363091 305.28,987.69 L303.45,988.29 Z" id="Shape" fill="#000000" fill-rule="nonzero"></path>
            <path d="M1190.31,732.87 C1190.7,699.87 1197.96,673.41 1215.99,650.76 C1228.83,634.62 1244.88,623.16 1266.3,622.26 C1284.70976,621.005901 1302.31866,629.972998 1312.13222,645.599451 C1321.94578,661.225903 1322.37524,680.981856 1313.25,697.02 C1309.29787,704.164784 1304.23464,710.635595 1298.25,716.19 C1278.3,735.03 1261.68,755.79 1254.75,783.09 C1253.65457,785.541312 1251.39986,787.277438 1248.75,787.71 C1237.08,787.38 1225.41,786.54 1213.77,785.37 C1211.1702,784.808778 1208.88993,783.259915 1207.41,781.05 C1196.7,765.18 1188.81,748.32 1190.31,732.87 Z M1297.14,671.46 C1297.14,649.89 1279.65,636.39 1258.95,643.11 C1233.66,651.33 1218.66,669.75 1213.95,695.46 C1209.66,719.07 1226.73,735.96 1248.45,731.46 C1273.98,725.82 1297.14,697.35 1297.14,671.43 L1297.14,671.46 Z" id="Shape" fill="#000000" fill-rule="nonzero"></path>
            <path d="M497.88,584.61 C483.96,584.61 470.07,584.37 456.15,584.61 C449.88,584.76 447.48,582.9 447.57,576.3 C447.99,548.3 448.12,520.21 447.96,492.03 C447.96,485.4 450.96,484.23 456.45,484.47 C481.77,485.64 507.12,486.3 532.41,487.86 C549.54,488.91 549.42,489.42 549.3,506.64 C549.15,528.18 549.3,549.72 549.06,571.26 C549.06,585.06 548.82,585.06 535.5,585 C522.96,585 510.42,585 497.88,585 L497.88,584.61 Z M537.87,575.76 L537.87,490.05 L456.3,493.05 L456.3,575.91 L537.87,575.76 Z" id="Shape" fill="#000000" fill-rule="nonzero"></path>
            <path d="M567.72,581.61 C566.91,550.5 566.19,520.59 565.35,490.68 C565.35,485.7 567.63,483.72 572.25,483.78 L660.51,484.89 C666.33,484.89 665.88,489.15 665.85,492.99 C665.85,517.8 665.61,542.58 665.55,567.39 C665.55,586.35 665.55,586.77 646.41,586.02 C620.88,585.12 595.38,583.32 567.72,581.61 Z M572.16,579.78 C575.16,579.57 578.16,579.36 581.16,579.21 C604.02,578.07 626.85,576.57 649.71,576 C656.43,575.82 658.2,573.45 658.11,567.51 C657.75,547.89 657.6,528.27 657.39,508.65 C657.39,503.85 657.39,499.05 657.39,493.5 C653.37,493.5 650.46,493.5 647.52,493.5 C626.25,493.92 605.01,494.67 583.74,494.61 C577.74,494.61 575.67,495.9 575.49,502.08 C574.56,527.61 573.3,553.29 572.16,579.93 L572.16,579.78 Z" id="Shape" fill="#000000" fill-rule="nonzero"></path>
            <path d="M337.11,692.43 C336.45,681.9 335.49,671.43 335.22,660.81 C334.77,643.11 334.95,625.38 334.53,607.68 C334.53,602.19 336.09,599.61 341.85,599.64 C369.36,599.64 396.9,599.64 424.41,599.64 C429.12,599.64 431.28,602.04 431.25,606.78 C431.09,634.58 430.97,662.38 430.89,690.18 C431.198546,692.263923 430.47961,694.368333 428.960501,695.827869 C427.441392,697.287404 425.30992,697.921623 423.24,697.53 C397.68,696.21 372.24,694.74 346.62,693.27 C343.68,693.18 340.74,692.79 337.11,692.43 Z M342.84,609.18 L340.08,690.93 L421.92,686.61 L421.92,609.18 L342.84,609.18 Z" id="Shape" fill="#000000" fill-rule="nonzero"></path>
            <path d="M431.37,530.4 C431.37,544.29 431.19,558.21 431.37,572.1 C431.37,578.1 429.54,580.32 423.36,580.23 C395.56,579.87 367.76,579.75 339.96,579.87 C333.96,579.87 331.2,578.31 331.32,571.5 C331.77,543.99 331.83,516.45 331.71,488.91 C331.71,482.58 333.75,480.45 340.26,480.39 C365.56,480.21 390.85,479.69 416.13,478.83 C432.48,478.29 432.75,478.35 432.51,494.4 C432.33,506.4 432.51,518.4 432.51,530.4 L431.37,530.4 Z M422.04,571.53 C422.04,544.89 422.04,518.82 421.8,492.72 C421.8,491.31 418.38,488.94 416.34,488.73 C407.97,487.8 399.51,487.17 391.08,487.08 C373.74,486.84 356.43,487.08 338.67,487.08 L338.67,571.59 L422.04,571.53 Z" id="Shape" fill="#000000" fill-rule="nonzero"></path>
            <path d="M568.08,1082.19 C552.24,1083.27 536.37,1085.19 520.53,1085.19 C455.16,1085.55 389.79,1085.37 324.42,1085.19 C318.99,1085.19 313.56,1084.29 308.13,1084.2 C302.13,1084.2 299.82,1081.59 300.72,1075.56 C301.681292,1066.85283 303.194334,1058.21546 305.25,1049.7 L308.55,1074.33 C395.55,1076.79 481.86,1072.02 568.05,1079.16 L568.08,1082.19 Z" id="Shape" fill="#000000" fill-rule="nonzero"></path>
            <path d="M424.83,803.61 L424.83,724.65 L345.69,724.65 L342.18,799.35 L339.54,799.35 C338.73,773.94 337.95,748.53 337.08,723.12 C336.9,717.78 339.39,715.83 344.46,715.89 C371.72,716.23 398.97,716.5 426.21,716.7 C431.46,716.7 433.56,719.31 433.53,724.23 C433.32,751.5 433.26,778.74 432.69,806.01 C431.943723,808.78886 429.808319,810.981056 427.05,811.8 C401.25,811.5 375.45,810.69 349.65,809.97 L349.65,806.97 L424.83,803.61 Z" id="Shape" fill="#000000" fill-rule="nonzero"></path>
            <path d="M899.7,538.35 C899.7,551.43 899.43,564.51 899.7,577.56 C899.88,583.56 898.14,585.81 891.96,585.66 C868.29,585.12 844.59,585.09 820.89,584.58 C806.55,584.25 806.4,584.01 806.1,569.97 C805.56,546.3 805.35,522.63 804.66,498.96 C804.45,492.21 806.76,489.81 813.66,489.96 C839.8,490.42 865.94,490.64 892.08,490.62 C898.38,490.62 900.57,492.6 900.27,499.2 C899.7,512.25 900.09,525.33 900.09,538.41 L899.7,538.35 Z M812.7,498.51 L812.7,578.61 L892.53,578.61 L892.53,498.51 L812.7,498.51 Z" id="Shape" fill="#000000" fill-rule="nonzero"></path>
            <path d="M1049.13,588 L1124.43,585 L1124.43,505.8 L1043.43,505.8 L1043.43,589.8 L1041.45,590.73 C1040.52,589.17 1038.78,587.73 1038.72,586.05 C1037.97,558.57 1037.28,531.06 1037.07,503.58 C1037.84072,500.886946 1039.95283,498.786187 1042.65,498.03 C1070.7,497.58 1098.72,497.61 1126.65,497.46 C1131.21,497.46 1132.95,499.74 1132.89,504.06 C1132.53,531.84 1132.14,559.62 1131.96,587.4 C1131.96,594.81 1126.38,593.94 1122.18,593.85 C1104.48,593.52 1086.81,592.77 1069.11,592.02 C1062.39,591.72 1055.7,591.03 1048.98,590.52 L1049.13,588 Z" id="Shape" fill="#000000" fill-rule="nonzero"></path>
            <path d="M453.3,651.03 C453.3,637.95 453.48,624.87 453.3,611.79 C453.3,606.3 454.71,604.2 460.65,604.23 C486.77,604.33 512.89,604.11 539.01,603.57 C545.79,603.57 548.01,605.52 548.01,612.39 C547.68,638.55 547.74,664.74 548.01,690.9 C548.01,697.44 545.73,699.48 539.43,699.33 C513.27,698.73 487.11,698.28 460.92,698.19 C454.35,698.19 452.55,695.85 452.79,689.52 C453.27,676.74 452.79,663.9 452.79,651.09 L453.3,651.03 Z M539.7,609.75 L459.63,609.75 L459.63,690.21 L539.7,690.21 L539.7,609.75 Z" id="Shape" fill="#000000" fill-rule="nonzero"></path>
            <path d="M620.49,606.24 C633.54,606.24 646.62,606.51 659.67,606.24 C666.12,606.06 668.37,608.37 668.25,614.76 C667.74,640.89 667.41,667.05 667.41,693.18 C667.41,699.36 665.25,701.07 659.31,701.01 C633.17,700.69 607.03,700.62 580.89,700.8 C574.89,700.8 572.49,698.7 572.52,692.79 C572.52,666.39 572.52,639.96 572.52,613.53 C572.52,608.19 574.5,605.85 580.35,606.03 C593.67,606.45 607.02,606.03 620.34,606.03 L620.49,606.24 Z M580.8,693.87 C606.42,693.87 631.44,693.87 656.43,693.57 C658.08,693.57 660.96,689.4 661.05,687.09 C661.56,672.93 661.41,658.77 661.47,644.58 C661.47,634.32 661.47,624.09 661.47,613.14 L580.83,613.14 L580.8,693.87 Z" id="Shape" fill="#000000" fill-rule="nonzero"></path>
            <path d="M853.14,706.29 C839.52,706.29 825.9,706.5 812.31,706.05 C809.678077,705.367761 807.588482,703.369018 806.79,700.77 C806.55,672.99 806.79,645.21 806.79,617.43 C806.79,612.93 808.95,611.1 813.36,611.19 C840.84,611.79 868.35,612.18 895.83,613.08 C898.330873,613.836053 900.26111,615.834417 900.93,618.36 C901.2,645.87 900.93,673.38 900.93,700.89 C900.93,705.63 898.26,706.02 894.6,705.99 C880.71,705.99 866.82,705.99 852.93,705.99 L853.14,706.29 Z M815.19,699.6 L894.99,699.6 C894.99,673.71 894.99,648.45 894.99,623.16 C894.99,617.91 891.69,617.82 887.85,617.94 L821.85,619.62 C819.75,619.62 817.68,620.01 815.22,620.28 L815.19,699.6 Z" id="Shape" fill="#000000" fill-rule="nonzero"></path>
            <path d="M927.39,658.86 C927.39,645.51 927.39,632.19 927.39,618.84 C927.39,613.92 929.22,611.97 934.08,612.09 C961.56,612.66 989.01,612.99 1016.49,613.89 C1018.26,613.89 1021.32,617.85 1021.38,620.04 C1021.89,633.9 1021.74,647.79 1021.77,661.68 C1021.77,673.92 1021.56,686.19 1021.77,698.43 C1021.95,704.43 1020,706.29 1013.82,706.29 C987.72,706.29 961.59,706.77 935.49,707.43 C928.95,707.61 926.91,705.27 927.09,698.91 C927.45,685.59 927.09,672.24 927.09,658.89 L927.39,658.86 Z M935.94,618.81 C935.07,620.55 934.62,621.03 934.62,621.51 C934.62,646.05 934.47,670.56 934.23,695.1 C934.23,700.41 937.53,700.59 941.25,700.65 C955.68,700.89 970.14,701.16 984.57,701.31 C994.83,701.31 1005.06,701.31 1016.04,701.31 L1016.04,618.81 L935.94,618.81 Z" id="Shape" fill="#000000" fill-rule="nonzero"></path>
            <path d="M690.09,773.28 C690.09,760.2 690.33,747.12 690.09,734.07 C689.94,728.43 691.83,726.27 697.47,726.36 C724.47,726.81 751.47,726.96 778.29,727.62 C780.734176,728.408476 782.595802,730.406318 783.21,732.9 C783.42,759.9 783.21,786.9 783.21,813.9 C783.21,819.06 780.21,820.14 775.83,820.14 C749.43,820.14 723,820.14 696.6,820.14 C691.38,820.14 690.15,817.98 690.21,813.3 C690.21,799.98 690.09,786.63 690.09,773.28 Z M777.48,814.71 L777.48,732.72 C774.81,732.45 772.68,732.06 770.58,732.06 C747.45,732.24 724.29,732.39 701.16,732.99 C699.57,732.99 696.78,736.71 696.75,738.75 C696.33,761.64 696.42,784.56 696.15,807.45 C696.15,812.58 698.34,813.96 703.05,813.96 C712.32,813.96 721.59,814.59 730.83,814.68 C746.25,814.83 761.7,814.71 777.48,814.71 Z" id="Shape" fill="#000000" fill-rule="nonzero"></path>
            <path d="M858.42,725.88 C871.5,725.88 884.55,726.12 897.63,725.88 C903.78,725.73 905.76,728.04 905.61,734.01 C904.92,760.38 904.35,786.78 904.14,813.18 C904.14,819 901.14,820.14 896.64,820.08 C869.97,819.72 843.3,819.42 816.63,818.7 C814.149745,817.981574 812.219369,816.028488 811.53,813.54 C811.17,786.06 811.26,758.55 811.17,731.07 C811.17,725.67 814.74,725.94 818.43,725.97 L858.45,725.97 L858.42,725.88 Z M898.23,814.41 C898.23,787.41 898.23,761.64 898.02,735.93 C898.02,734.67 894.81,732.39 893.07,732.36 C869.67,732.06 846.27,731.97 822.9,732.36 C820.416082,733.013129 818.450363,734.910673 817.71,737.37 C817.09,761.37 816.81,785.3 816.87,809.16 C816.87,810.93 819.69,814.26 821.22,814.26 C846.96,814.5 872.7,814.41 898.23,814.41 Z" id="Shape" fill="#000000" fill-rule="nonzero"></path>
            <path d="M385.530335,924.902473 C372.750335,924.902473 359.940335,924.632473 347.160335,924.902473 C340.950335,925.082473 338.970335,922.502473 339.000335,916.772473 C339.240335,890.372473 339.380335,863.972473 339.420335,837.572473 C339.420335,833.282473 340.770335,830.912473 345.420335,831.002473 C372.630335,831.602473 399.810335,832.052473 427.020335,832.832473 C429.144946,833.305153 430.89756,834.799368 431.700335,836.822473 C432.666003,840.747507 433.11977,844.780989 433.050335,848.822473 C433.050335,871.142473 432.420335,893.462473 432.540335,915.782473 C432.540335,923.012473 430.080335,925.232473 423.000335,924.932473 C410.490335,924.422473 397.950335,924.932473 385.440335,924.932473 L385.530335,924.902473 Z M427.920335,877.352473 C427.920335,866.462473 427.290335,855.512473 428.130335,844.682473 C428.700335,837.242473 426.240335,834.992473 419.130335,835.232473 C396.550335,835.932473 373.960335,836.472473 351.360335,836.852473 C345.510335,836.852473 344.910335,840.452473 344.910335,844.982473 C344.910335,867.332473 345.090335,889.682473 344.910335,912.002473 C344.910335,918.212473 347.310335,919.892473 353.190335,919.832473 C375.240335,919.622473 397.320335,919.592473 419.370335,919.832473 C425.670335,919.832473 428.160335,918.182473 427.920335,911.582473 C427.650335,900.092473 427.920335,888.662473 427.920335,877.352473 Z" id="Shape" fill="#000000" fill-rule="nonzero"></path>
            <path d="M386.980828,1050.90247 C374.200828,1050.90247 361.390828,1050.63247 348.610828,1050.90247 C342.400828,1051.08247 340.420828,1048.50247 340.450828,1042.77247 C340.690828,1016.37247 340.830828,989.972473 340.870828,963.572473 C340.870828,959.282473 342.220828,956.912473 346.870828,957.002473 C374.080828,957.602473 401.260828,958.052473 428.470828,958.832473 C430.595439,959.305153 432.348053,960.799368 433.150828,962.822473 C434.116496,966.747507 434.570263,970.780989 434.500828,974.822473 C434.500828,997.142473 433.870828,1019.46247 433.990828,1041.78247 C433.990828,1049.01247 431.530828,1051.23247 424.450828,1050.93247 C411.940828,1050.42247 399.400828,1050.93247 386.890828,1050.93247 L386.980828,1050.90247 Z M429.370828,1003.35247 C429.370828,992.462473 428.740828,981.512473 429.580828,970.682473 C430.150828,963.242473 427.690828,960.992473 420.580828,961.232473 C398.000828,961.932473 375.410828,962.472473 352.810828,962.852473 C346.960828,962.852473 346.360828,966.452473 346.360828,970.982473 C346.360828,993.332473 346.540828,1015.68247 346.360828,1038.00247 C346.360828,1044.21247 348.760828,1045.89247 354.640828,1045.83247 C376.690828,1045.62247 398.770828,1045.59247 420.820828,1045.83247 C427.120828,1045.83247 429.610828,1044.18247 429.370828,1037.58247 C429.100828,1026.09247 429.370828,1014.66247 429.370828,1003.35247 Z" id="Shape-Copy" fill="#000000" fill-rule="nonzero"></path>
            <path d="M739.11,704.16 C725.49,704.16 711.87,703.92 698.25,704.16 C693.09,704.16 691.59,702.51 691.62,697.65 C691.77,670.65 691.62,643.65 691.62,616.65 C691.62,612.66 692.07,610.08 697.38,610.2 C724.06,610.7 750.75,610.92 777.45,610.86 C783.45,610.86 785.67,612.3 785.64,618.57 C785.64,644.97 785.64,671.4 786.06,697.8 C786.06,702.99 783.75,704.22 779.04,704.13 C765.69,703.92 752.34,704.13 738.99,704.13 L739.11,704.16 Z M698.88,698.61 L780.48,698.61 L780.48,616.2 L698.88,616.2 L698.88,698.61 Z" id="Shape" fill="#000000" fill-rule="nonzero"></path>
            <path d="M694.95,580.56 C708.69,579.63 722.43,578.37 736.2,577.89 C749.97,577.41 763.35,577.89 777.63,577.89 L777.63,493.59 L691.53,493.59 L691.53,568.35 L689.1,568.35 C688.857224,567.282719 688.686836,566.200253 688.59,565.11 C688.08,541.68 687.72,518.22 687.03,494.79 C687.03,489.66 688.2,487.26 693.72,487.29 C722.34,487.5 750.96,487.29 779.58,487.86 C782.040151,488.650315 783.914059,490.660506 784.53,493.17 C784.83,522.06 784.83,550.98 784.35,579.87 C783.376278,582.880583 780.893145,585.158688 777.81,585.87 C750.21,585.66 722.61,584.85 695.01,584.22 L694.95,580.56 Z" id="Shape" fill="#000000" fill-rule="nonzero"></path>
            <path d="M668.28,725.79 C668.28,753.79 668.28,781.79 668.28,809.79 C668.28,815.79 663.81,815.1 660.12,815.04 C641.31,814.8 622.5,814.41 603.69,814.08 C596.34,814.08 588.96,813.57 581.61,813.87 C575.79,814.08 574.08,811.68 574.11,806.13 C574.32,779.97 574.11,753.78 574.11,727.59 C574.11,723.78 574.11,720.36 579.51,720.54 L649.77,722.97 C651.22959,723.407211 652.637741,724.000646 653.97,724.74 C638.61,725.46 625.29,726.18 611.97,726.66 C603.54,726.96 595.05,726.66 586.62,727.2 C584.58,727.35 581.07,730.2 581.04,731.85 C580.68,757.14 580.8,782.43 580.8,808.44 L661.8,808.44 L664.14,725.61 L668.28,725.79 Z" id="Shape" fill="#000000" fill-rule="nonzero"></path>
            <path d="M976.26,820.11 C962.91,820.11 949.53,819.93 936.18,820.11 C930.78,820.11 929.28,818.34 929.34,812.97 C929.6,786.97 929.6,761.07 929.34,735.27 C929.34,728.46 931.41,726.27 938.34,726.27 C963.96,726.71 989.59,726.86 1015.23,726.72 C1021.08,726.72 1023.87,728.28 1023.45,734.49 C1022.91,742.65 1022.4,750.81 1022.49,758.97 C1022.71,776.97 1023.16,794.97 1023.84,812.97 C1024.05,818.49 1022.73,820.74 1016.58,820.5 C1003.23,820.02 989.85,820.35 976.5,820.35 L976.26,820.11 Z M934.02,732.45 C934.02,758.7 934.02,784.47 934.29,810.24 C934.29,811.65 938.28,814.23 940.29,814.23 C963.69,814.47 987.09,814.23 1010.49,814.38 C1015.56,814.38 1017.03,812.4 1017.12,807.66 C1017.27,799.5 1018.32,791.37 1018.41,783.21 C1018.62,766.44 1018.41,749.67 1018.41,732.45 L934.02,732.45 Z" id="Shape" fill="#000000" fill-rule="nonzero"></path>
            <path d="M367.29,344.43 C357.36,345.66 347.97,346.65 338.64,348.06 C334.53,348.69 330.18,349.2 330.21,343.92 C330.21,341.82 334.38,338.19 336.9,337.92 C357.74,335.92 378.61,334.37 399.51,333.27 C402.21,333.27 405.06,335.94 407.85,337.38 C405.36753,339.501585 402.548945,341.194763 399.51,342.39 C393.18,343.68 386.64,343.92 379.11,344.7 C379.38,350.7 379.92,356.52 379.86,362.4 C379.86,371.04 380.55,379.98 378.63,388.26 C375.63,400.89 366.36,405.42 354.24,400.62 C348.202501,397.735434 342.663084,393.907464 337.83,389.28 C336.57,388.2 337.56,384.51 337.53,382.02 C339.954171,381.98624 342.370096,382.309711 344.7,382.98 C348.39,384.63 351.51,387.51 355.23,388.98 C363.93,392.67 368.07,390.45 368.91,380.91 C369.171188,373.843845 368.96072,366.768137 368.28,359.73 C368.04,354.93 367.65,350.1 367.29,344.43 Z" id="Shape" fill="#000000" fill-rule="nonzero"></path>
            <path d="M669.486781,874.810799 C669.486781,887.890799 669.486781,900.970799 669.486781,914.050799 C669.486781,919.420799 667.986781,921.070799 661.776781,920.980799 C639.216781,920.680799 616.626781,921.910799 594.036781,921.850799 C574.926781,921.850799 575.616781,925.930799 576.216781,902.680799 C576.756781,881.170799 576.726781,859.660799 576.366781,838.150799 C576.366781,831.250799 578.496781,829.420799 585.366781,829.390799 C610.686781,829.390799 636.006781,828.730799 661.296781,828.010799 C667.656781,827.830799 670.026781,829.870799 669.816781,836.410799 C669.396781,849.190799 669.816781,862.000799 669.816781,874.810799 L669.486781,874.810799 Z M580.266781,833.290799 C580.266781,859.660799 580.266781,884.710799 580.266781,909.760799 C580.266781,915.160799 582.816781,916.600799 587.916781,916.510799 C596.346781,916.510799 604.806781,916.960799 613.236781,917.260799 C627.666781,917.770799 642.066781,918.370799 656.496781,918.790799 C661.536781,918.790799 664.326781,917.170799 664.236781,911.140799 C663.936781,888.240799 663.936781,865.340799 664.236781,842.440799 C664.236781,835.750799 661.536781,833.770799 655.596781,833.740799 C645.516781,833.740799 635.436781,833.380799 625.326781,833.320799 C610.986781,833.230799 596.616781,833.290799 580.266781,833.290799 Z" id="Shape" fill="#000000" fill-rule="nonzero"></path>
            <path d="M667.937274,997.810799 C667.937274,1010.8908 667.937274,1023.9708 667.937274,1037.0508 C667.937274,1042.4208 666.437274,1044.0708 660.227274,1043.9808 C637.667274,1043.6808 615.077274,1044.9108 592.487274,1044.8508 C573.377274,1044.8508 574.067274,1048.9308 574.667274,1025.6808 C575.207274,1004.1708 575.177274,982.660799 574.817274,961.150799 C574.817274,954.250799 576.947274,952.420799 583.817274,952.390799 C609.137274,952.390799 634.457274,951.730799 659.747274,951.010799 C666.107274,950.830799 668.477274,952.870799 668.267274,959.410799 C667.847274,972.190799 668.267274,985.000799 668.267274,997.810799 L667.937274,997.810799 Z M578.717274,956.290799 C578.717274,982.660799 578.717274,1007.7108 578.717274,1032.7608 C578.717274,1038.1608 581.267274,1039.6008 586.367274,1039.5108 C594.797274,1039.5108 603.257274,1039.9608 611.687274,1040.2608 C626.117274,1040.7708 640.517274,1041.3708 654.947274,1041.7908 C659.987274,1041.7908 662.777274,1040.1708 662.687274,1034.1408 C662.387274,1011.2408 662.387274,988.340799 662.687274,965.440799 C662.687274,958.750799 659.987274,956.770799 654.047274,956.740799 C643.967274,956.740799 633.887274,956.380799 623.777274,956.320799 C609.437274,956.230799 595.067274,956.290799 578.717274,956.290799 Z" id="Shape-Copy-2" fill="#000000" fill-rule="nonzero"></path>
            <path d="M858.091109,929.820415 C845.821109,929.820415 833.581109,929.550415 821.311109,929.820415 C815.311109,930.000415 812.941109,928.290415 813.001109,922.080415 C813.281109,895.940415 813.351109,869.790415 813.211109,843.630415 C813.211109,838.560415 815.071109,836.970415 819.931109,837.000415 C846.631109,837.200415 873.331109,837.270415 900.031109,837.210415 C904.651109,837.210415 906.571109,839.100415 906.481109,843.420415 C906.391109,847.740415 906.091109,851.550415 906.061109,855.630415 C905.881109,877.650415 905.461109,899.640415 905.791109,921.630415 C905.791109,928.920415 903.511109,931.260415 896.461109,931.050415 C883.681109,930.660415 870.871109,931.050415 858.091109,931.050415 L858.091109,929.820415 Z M859.711109,925.740415 L859.711109,925.530415 C871.141109,925.530415 882.601109,925.530415 894.031109,925.530415 C899.251109,925.530415 902.131109,924.450415 902.041109,918.360415 C901.711109,894.990415 901.711109,871.620415 901.711109,848.250415 C901.711109,843.390415 899.131109,842.250415 894.961109,842.400415 C871.531109,842.400415 848.131109,842.640415 824.701109,842.400415 C819.151109,842.400415 818.701109,845.400415 818.701109,849.600415 C818.701109,872.760415 818.881109,895.890415 818.701109,919.050415 C818.701109,924.000415 820.531109,925.770415 825.451109,925.680415 C836.821109,925.590415 848.281109,925.740415 859.711109,925.740415 Z" id="Shape" fill="#000000" fill-rule="nonzero"></path>
            <path d="M860.281109,1045.52807 C848.011109,1045.52807 835.771109,1045.25807 823.501109,1045.52807 C817.501109,1045.70807 815.131109,1043.99807 815.191109,1037.78807 C815.471109,1011.64807 815.541109,985.498069 815.401109,959.338069 C815.401109,954.268069 817.261109,952.678069 822.121109,952.708069 C848.821109,952.908069 875.521109,952.978069 902.221109,952.918069 C906.841109,952.918069 908.761109,954.808069 908.671109,959.128069 C908.581109,963.448069 908.281109,967.258069 908.251109,971.338069 C908.071109,993.358069 907.651109,1015.34807 907.981109,1037.33807 C907.981109,1044.62807 905.701109,1046.96807 898.651109,1046.75807 C885.871109,1046.36807 873.061109,1046.75807 860.281109,1046.75807 L860.281109,1045.52807 Z M861.901109,1041.44807 L861.901109,1041.23807 C873.331109,1041.23807 884.791109,1041.23807 896.221109,1041.23807 C901.441109,1041.23807 904.321109,1040.15807 904.231109,1034.06807 C903.901109,1010.69807 903.901109,987.328069 903.901109,963.958069 C903.901109,959.098069 901.321109,957.958069 897.151109,958.108069 C873.721109,958.108069 850.321109,958.348069 826.891109,958.108069 C821.341109,958.108069 820.891109,961.108069 820.891109,965.308069 C820.891109,988.468069 821.071109,1011.59807 820.891109,1034.75807 C820.891109,1039.70807 822.721109,1041.47807 827.641109,1041.38807 C839.011109,1041.29807 850.471109,1041.44807 861.901109,1041.44807 Z" id="Shape-Copy-8" fill="#000000" fill-rule="nonzero"></path>
            <path d="M975.091109,1046.82042 C962.821109,1046.82042 950.581109,1046.55042 938.311109,1046.82042 C932.311109,1047.00042 929.941109,1045.29042 930.001109,1039.08042 C930.281109,1012.94042 930.351109,986.790415 930.211109,960.630415 C930.211109,955.560415 932.071109,953.970415 936.931109,954.000415 C963.631109,954.200415 990.331109,954.270415 1017.03111,954.210415 C1021.65111,954.210415 1023.57111,956.100415 1023.48111,960.420415 C1023.39111,964.740415 1023.09111,968.550415 1023.06111,972.630415 C1022.88111,994.650415 1022.46111,1016.64042 1022.79111,1038.63042 C1022.79111,1045.92042 1020.51111,1048.26042 1013.46111,1048.05042 C1000.68111,1047.66042 987.871109,1048.05042 975.091109,1048.05042 L975.091109,1046.82042 Z M976.711109,1042.74042 L976.711109,1042.53042 C988.141109,1042.53042 999.601109,1042.53042 1011.03111,1042.53042 C1016.25111,1042.53042 1019.13111,1041.45042 1019.04111,1035.36042 C1018.71111,1011.99042 1018.71111,988.620415 1018.71111,965.250415 C1018.71111,960.390415 1016.13111,959.250415 1011.96111,959.400415 C988.531109,959.400415 965.131109,959.640415 941.701109,959.400415 C936.151109,959.400415 935.701109,962.400415 935.701109,966.600415 C935.701109,989.760415 935.881109,1012.89042 935.701109,1036.05042 C935.701109,1041.00042 937.531109,1042.77042 942.451109,1042.68042 C953.821109,1042.59042 965.281109,1042.74042 976.711109,1042.74042 Z" id="Shape-Copy-8" fill="#000000" fill-rule="nonzero"></path>
            <path d="M1089.09111,1043.82042 C1076.82111,1043.82042 1064.58111,1043.55042 1052.31111,1043.82042 C1046.31111,1044.00042 1043.94111,1042.29042 1044.00111,1036.08042 C1044.28111,1009.94042 1044.35111,983.790415 1044.21111,957.630415 C1044.21111,952.560415 1046.07111,950.970415 1050.93111,951.000415 C1077.63111,951.200415 1104.33111,951.270415 1131.03111,951.210415 C1135.65111,951.210415 1137.57111,953.100415 1137.48111,957.420415 C1137.39111,961.740415 1137.09111,965.550415 1137.06111,969.630415 C1136.88111,991.650415 1136.46111,1013.64042 1136.79111,1035.63042 C1136.79111,1042.92042 1134.51111,1045.26042 1127.46111,1045.05042 C1114.68111,1044.66042 1101.87111,1045.05042 1089.09111,1045.05042 L1089.09111,1043.82042 Z M1090.71111,1039.74042 L1090.71111,1039.53042 C1102.14111,1039.53042 1113.60111,1039.53042 1125.03111,1039.53042 C1130.25111,1039.53042 1133.13111,1038.45042 1133.04111,1032.36042 C1132.71111,1008.99042 1132.71111,985.620415 1132.71111,962.250415 C1132.71111,957.390415 1130.13111,956.250415 1125.96111,956.400415 C1102.53111,956.400415 1079.13111,956.640415 1055.70111,956.400415 C1050.15111,956.400415 1049.70111,959.400415 1049.70111,963.600415 C1049.70111,986.760415 1049.88111,1009.89042 1049.70111,1033.05042 C1049.70111,1038.00042 1051.53111,1039.77042 1056.45111,1039.68042 C1067.82111,1039.59042 1079.28111,1039.74042 1090.71111,1039.74042 Z" id="Shape-Copy-10" fill="#000000" fill-rule="nonzero"></path>
            <path d="M1009.71,580.95 L1009.71,500.61 L926.7,500.61 L926.7,581.31 L923.22,581.31 C923.22,554.31 923.22,527.31 923.43,500.49 C924.040305,497.987695 925.901424,495.979049 928.35,495.18 C957.18,494.85 986.01,494.94 1015.71,494.94 C1016.1,499.26 1016.73,503.25 1016.73,507.21 C1016.73,531.99 1016.73,556.77 1017,581.58 C1017,587.58 1014.81,589.92 1008.81,589.68 C983.01,588.6 957.18,587.76 931.38,586.68 L931.38,584.31 L1009.71,580.95 Z" id="Shape" fill="#000000" fill-rule="nonzero"></path>
            <path d="M547.11,719.28 C547.11,739.35 547.11,756.96 547.11,774.57 C547.11,784.89 546.84,795.24 547.11,805.56 C547.26,810.84 545.4,812.91 540.12,812.85 C513.72,812.49 487.32,812.22 460.95,812.19 C455.73,812.19 454.5,809.94 454.5,805.29 C454.5,779.16 454.23,753.03 454.05,726.93 C454.05,722.97 454.05,719.22 459.75,719.25 C488.7,719.34 517.38,719.28 547.11,719.28 Z M541.83,808.17 C541.83,781.83 541.83,756.54 541.59,731.28 C540.857283,728.76353 538.868762,726.809099 536.34,726.12 C513.75,725.91 491.13,726.12 468.54,726.33 C463.11,726.33 461.13,728.7 461.07,734.31 C460.89,756.09 460.26,777.87 459.84,799.65 C459.84,802.5 460.17,805.35 460.35,808.17 L541.83,808.17 Z" id="Shape" fill="#000000" fill-rule="nonzero"></path>
            <path d="M1040.7,617.28 C1055.46,617.28 1068.75,617.28 1082.04,617.28 C1097.04,617.13 1112.04,616.92 1127.04,616.35 C1132.56,616.14 1134.99,617.43 1134.9,623.49 C1134.42,648.57 1134.36,673.65 1134.03,698.76 C1134.03,710.46 1133.79,709.77 1122.24,709.74 C1100.19,709.74 1078.11,710.61 1056.06,711 C1040.49,711.27 1040.64,711.18 1040.7,695.61 C1040.7,669.96 1040.7,644.37 1040.7,617.28 Z M1127.85,706.62 L1127.85,622.8 L1045.56,622.8 L1045.56,704.04 L1127.85,706.62 Z" id="Shape" fill="#000000" fill-rule="nonzero"></path>
            <path d="M453.901469,877.065003 C453.901469,864.255003 454.351469,851.445003 453.721469,838.695003 C453.391469,832.095003 456.001469,830.715003 461.671469,831.045003 C474.151469,831.765003 486.661469,832.605003 499.171469,832.665003 C512.491469,832.665003 525.811469,832.185003 539.131469,831.495003 C544.891469,831.195003 546.871469,833.235003 546.751469,838.935003 C546.211469,865.055003 545.851469,891.185003 545.671469,917.325003 C545.671469,922.215003 543.841469,924.045003 538.921469,924.015003 C512.521469,923.835003 486.111469,923.835003 459.691469,924.015003 C454.711469,924.015003 452.941469,922.065003 453.001469,917.205003 C453.181469,903.885003 453.001469,890.535003 453.001469,877.215003 L453.901469,877.065003 Z M541.471469,878.295003 C541.471469,866.835003 541.201469,855.405003 541.471469,843.945003 C541.681469,837.675003 539.791469,835.125003 533.161469,835.245003 C510.581469,835.605003 488.001469,835.675003 465.421469,835.455003 C459.061469,835.455003 457.441469,838.455003 457.471469,843.885003 C457.611469,866.785003 457.671469,889.675003 457.651469,912.555003 C457.651469,917.505003 459.361469,919.995003 464.791469,919.935003 C488.221469,919.695003 511.681469,919.665003 535.111469,919.695003 C539.611469,919.695003 541.501469,917.955003 541.441469,913.395003 C541.351469,901.725003 541.441469,889.875003 541.441469,878.295003 L541.471469,878.295003 Z" id="Shape" fill="#000000" fill-rule="nonzero"></path>
            <path d="M455.351962,1003.065 C455.351962,990.255003 455.801962,977.445003 455.171962,964.695003 C454.841962,958.095003 457.451962,956.715003 463.121962,957.045003 C475.601962,957.765003 488.111962,958.605003 500.621962,958.665003 C513.941962,958.665003 527.261962,958.185003 540.581962,957.495003 C546.341962,957.195003 548.321962,959.235003 548.201962,964.935003 C547.661962,991.055003 547.301962,1017.185 547.121962,1043.325 C547.121962,1048.215 545.291962,1050.045 540.371962,1050.015 C513.971962,1049.835 487.561962,1049.835 461.141962,1050.015 C456.161962,1050.015 454.391962,1048.065 454.451962,1043.205 C454.631962,1029.885 454.451962,1016.535 454.451962,1003.215 L455.351962,1003.065 Z M542.921962,1004.295 C542.921962,992.835003 542.651962,981.405003 542.921962,969.945003 C543.131962,963.675003 541.241962,961.125003 534.611962,961.245003 C512.031962,961.605003 489.451962,961.675003 466.871962,961.455003 C460.511962,961.455003 458.891962,964.455003 458.921962,969.885003 C459.061962,992.785003 459.121962,1015.675 459.101962,1038.555 C459.101962,1043.505 460.811962,1045.995 466.241962,1045.935 C489.671962,1045.695 513.131962,1045.665 536.561962,1045.695 C541.061962,1045.695 542.951962,1043.955 542.891962,1039.395 C542.801962,1027.725 542.891962,1015.875 542.891962,1004.295 L542.921962,1004.295 Z" id="Shape-Copy-3" fill="#000000" fill-rule="nonzero"></path>
            <path d="M738.974531,836.37444 C728.744531,837.00444 718.514531,837.87444 708.254531,838.20444 C703.634531,838.35444 701.294531,839.49444 701.324531,844.68444 C701.424531,868.40444 701.354531,892.12444 701.114531,915.84444 C701.114531,920.73444 702.854531,922.77444 707.744531,922.74444 C731.464531,922.74444 755.184531,922.74444 778.904531,922.74444 C785.084531,922.74444 785.144531,918.69444 785.174531,914.49444 C785.174531,895.41444 785.174531,876.30444 785.174531,857.22444 C785.174531,837.15444 785.174531,837.15444 765.074531,836.82444 C761.226065,836.929937 757.376735,836.648524 753.584531,835.98444 C763.124531,835.50444 772.634531,835.14444 782.174531,834.54444 C786.704531,834.24444 788.744531,836.10444 788.714531,840.54444 C788.714531,867.27444 788.714531,893.97444 788.114531,920.70444 C787.32576,923.425246 785.177608,925.5393 782.444531,926.28444 C755.444531,926.28444 728.444531,926.04444 701.444531,925.83444 C695.444531,925.83444 696.014531,921.54444 696.014531,917.76444 C696.014531,895.95444 696.014531,874.14444 696.014531,852.30444 C696.014531,833.40444 696.014531,833.37444 714.644531,834.30444 C722.744531,834.66444 730.844531,835.11444 738.944531,835.53444 L738.974531,836.37444 Z" id="Shape" fill="#000000" fill-rule="nonzero"></path>
            <path d="M740.789602,953.37444 C730.559602,954.00444 720.329602,954.87444 710.069602,955.20444 C705.449602,955.35444 703.109602,956.49444 703.139602,961.68444 C703.239602,985.40444 703.169602,1009.12444 702.929602,1032.84444 C702.929602,1037.73444 704.669602,1039.77444 709.559602,1039.74444 C733.279602,1039.74444 756.999602,1039.74444 780.719602,1039.74444 C786.899602,1039.74444 786.959602,1035.69444 786.989602,1031.49444 C786.989602,1012.41444 786.989602,993.30444 786.989602,974.22444 C786.989602,954.15444 786.989602,954.15444 766.889602,953.82444 C763.041136,953.929937 759.191807,953.648524 755.399602,952.98444 C764.939602,952.50444 774.449602,952.14444 783.989602,951.54444 C788.519602,951.24444 790.559602,953.10444 790.529602,957.54444 C790.529602,984.27444 790.529602,1010.97444 789.929602,1037.70444 C789.140831,1040.42525 786.99268,1042.5393 784.259602,1043.28444 C757.259602,1043.28444 730.259602,1043.04444 703.259602,1042.83444 C697.259602,1042.83444 697.829602,1038.54444 697.829602,1034.76444 C697.829602,1012.95444 697.829602,991.14444 697.829602,969.30444 C697.829602,950.40444 697.829602,950.37444 716.459602,951.30444 C724.559602,951.66444 732.659602,952.11444 740.759602,952.53444 L740.789602,953.37444 Z" id="Shape-Copy-7" fill="#000000" fill-rule="nonzero"></path>
            <path d="M871.68,457.68 C882.99,459.48 888.36,467.16 885.09,477.15 C884.43,479.16 881.64,480.45 879.81,482.07 C878.492581,480.304179 877.366274,478.403537 876.45,476.4 C875.25,472.89 874.56,469.2 873.66,465.6 C872.01,468.6 870.48,471.78 868.62,474.6 C867.289331,476.397546 865.825191,478.092337 864.24,479.67 C862.89,477.6 860.34,475.47 860.37,473.43 C860.52,463.95 861.42,454.47 862.14,443.43 L836.91,439.2 C836.91,448.98 836.91,457.2 836.91,465.15 C837.284289,467.575646 837.284289,470.044354 836.91,472.47 C835.683644,475.106334 834.142416,477.584387 832.32,479.85 C830.64,477.51 827.67,475.29 827.49,472.86 C826.89,465 827.31,457.05 827.31,449.16 C827.31,446.73 827.31,444.3 827.31,441.15 L807.84,440.01 L807.51,437.49 C808.92,436.71 810.3,435.36 811.77,435.24 C823.17,434.25 834.57,433.2 846,432.78 C851.580613,432.41815 857.181933,433.016842 862.56,434.55 C866.144218,436.006703 868.974353,438.869369 870.39,442.47 C872.01,447.03 871.38,452.22 871.68,457.68 Z" id="Shape" fill="#000000" fill-rule="nonzero"></path>
            <path d="M720.69,470.61 C718.731604,472.732738 716.647876,474.736322 714.45,476.61 C705.87,483.06 694.89,479.61 693.06,469.2 C691.68,461.22 692.79,452.79 692.79,444.09 C691.654441,444.444148 690.449684,444.516228 689.28,444.3 C687.076061,443.343158 684.958292,442.198961 682.95,440.88 C684.24,438.78 685.5,436.68 686.82,434.61 C686.82,434.43 687.3,434.4 687.57,434.37 L704.73,432.21 C704.52,437.88 704.4,443.58 704.07,449.25 C703.383467,454.291144 703.032695,459.372339 703.02,464.46 C703.47,470.28 706.71,471.21 711.03,467.46 C711.41144,467.069333 711.771944,466.65876 712.11,466.23 C719.88,457.92 719.88,457.92 730.11,465.84 C731.64,462.3 733.98,459.24 734.19,456.03 C734.55,450.39 733.35,444.66 733.41,438.99 C733.41,436.98 735.18,435 736.14,432.99 C738.03,434.13 741.18,434.94 741.63,436.5 C744.63,446.58 745.8,456.9 740.46,466.5 C736.14,474.36 729.9,475.47 720.69,470.61 Z" id="Shape" fill="#000000" fill-rule="nonzero"></path>
            <path d="M482.7,446.61 L466.95,448.29 C466.44,450 465.21,454.05 463.95,458.13 C461.82,465.54 456.48,467.94 449.55,466.59 C447.57,466.2 446.04,463.59 444.3,461.79 C445.83,460.23 447.54,457.2 448.89,457.35 C455.31,458.04 455.88,453.42 457.08,449.34 C458.46,444.66 459.27,439.8 460.95,435.24 C462.246218,432.742912 463.859568,430.423722 465.75,428.34 C467.976376,430.02055 470.090857,431.844416 472.08,433.8 C473.310305,435.676312 474.317133,437.689969 475.08,439.8 C476.529773,437.789057 478.156233,435.9116 479.94,434.19 C482.190193,432.602081 484.54561,431.168785 486.99,429.9 C488.49453,432.267021 489.637132,434.845458 490.38,437.55 C490.633192,442.156524 490.633192,446.773476 490.38,451.38 C490.38,463.38 491.1,463.92 502.38,466.77 C505.017005,467.900639 507.465369,469.428337 509.64,471.3 C506.64,472.41 503.64,474.66 500.88,474.3 C486.54,473.13 482.43,468.3 482.37,454.02 C482.7,451.38 482.7,448.68 482.7,446.61 Z" id="Shape" fill="#000000" fill-rule="nonzero"></path>
            <path d="M487.29,385.74 C486.03,392.73 488.58,395.16 493.65,394.92 C500.16,394.59 506.64,393.63 513.15,393.45 C515.16,393.45 517.2,395.07 519.15,395.97 C517.56,397.53 516.15,400.17 514.35,400.44 C506.886885,401.8925 499.303109,402.63581 491.7,402.66 C482.7,402.36 478.32,396.36 478.71,387.21 C479.13,377.4 487.71,368.52 499.38,365.79 C506.756882,363.607964 514.633612,367.05245 518.04,373.95 C522.42,381.36 520.59,385.32 512.04,385.65 C503.49,385.98 495.48,385.74 487.29,385.74 Z M510,376.817498 C510,374.156867 505.970563,372 501,372 C496.029437,372 492,374.156867 492,376.817498 C492,379.478128 505.970563,376.817498 510,376.817498 Z" id="Combined-Shape" fill="#000000" fill-rule="nonzero"></path>
            <path d="M410.07,384.84 C411.72,381.18 413.61,377.58 414.96,373.8 C415.95,371.01 415.56,367.53 417.09,365.19 C418.573345,362.868212 421.038456,361.353772 423.78,361.08 C425.97,361.41 429.51,364.89 429.36,366.72 C428.474916,376.156991 427.032397,385.533365 425.04,394.8 C424.74,396.21 421.29,397.8 419.28,397.8 C414.988366,398.002218 410.692388,397.505749 406.56,396.33 C403.11,395.22 398.58,393.33 397.38,390.33 C395.34,385.56 395.52,379.83 394.89,374.52 C394.65,372.42 394.89,370.23 394.53,368.22 C393.852518,365.818884 393.020789,363.463991 392.04,361.17 C395.37,360.51 399.03,358.68 401.91,359.52 C404.07,360.18 405.9,364.11 406.56,366.9 C407.22,369.69 405.48,372.18 405.48,374.85 C405.679349,377.964314 406.090297,381.061462 406.71,384.12 L410.07,384.84 Z" id="Shape" fill="#000000" fill-rule="nonzero"></path>
            <path d="M937.86,452.16 C943.2,452.16 948.87,451.89 954.48,452.31 C956.4,452.46 958.17,454.41 960.03,455.55 C958.23,457.11 956.55,459.75 954.57,459.99 C949.199205,460.386508 943.809293,460.456637 938.43,460.2 C939.313479,466.947212 939.834228,473.736975 939.99,480.54 C939.99,483.39 937.41,486.15 936,488.97 C934.41,486.3 931.59,483.69 931.41,480.93 C930.69,469.29 930.78,457.56 930.51,445.89 C930.589752,444.308751 930.312924,442.729806 929.7,441.27 C925.41,433.32 925.77,431.82 934.53,430.41 C943.100105,428.997157 951.764852,428.23498 960.45,428.13 C963,428.13 965.55,431.61 968.1,433.5 C965.73,435.24 963.54,438.06 960.93,438.54 C955.799214,439.091116 950.639803,439.331554 945.48,439.26 C936.06,439.8 935.19,441.18 937.86,452.16 Z" id="Shape" fill="#000000" fill-rule="nonzero"></path>
            <path d="M461.7,374.04 C452.7,373.77 449.25,378 447.87,384.51 C447.73374,387.480747 447.229902,390.423164 446.37,393.27 C445.130997,395.604182 442.943318,397.288695 440.37,397.89 C438.99,397.89 435.9,394.35 435.96,392.46 C436.185423,383.503994 437.017328,374.573547 438.45,365.73 C438.72,364.14 443.13,362.4 445.74,362.22 C449.31,361.98 453.06,363.84 456.63,363.6 C466.68,362.94 472.5,367.44 472.35,377.46 C472.297298,384.249526 471.543295,391.015443 470.1,397.65 C469.59,399.93 465.93,401.49 463.71,403.41 C462.3,400.89 459.66,398.37 459.69,395.85 C459.6,388.86 460.8,381.9 461.7,374.04 Z" id="Shape" fill="#000000" fill-rule="nonzero"></path>
            <path d="M1063.95,451.41 C1071.66,456.39 1075.47,463.65 1072.47,471.9 C1070.42395,476.366226 1066.69154,479.839742 1062.09,481.56 C1053.97417,483.804966 1045.33996,480.526153 1040.76,473.46 C1040.01496,470.818663 1039.76075,468.063062 1040.01,465.33 C1042.38,466.2 1044.78,466.92 1047.06,468 C1048.23,468.54 1049.07,470.37 1050.06,470.49 C1054.32,470.97 1060.29,472.8 1062.57,470.76 C1067.01,466.8 1063.62,461.76 1059.9,458.19 C1056.18,454.62 1050.9,451.29 1046.7,447.36 C1041.03,441.9 1042.29,437.04 1049.7,434.82 C1052.80869,433.86662 1055.98891,433.164364 1059.21,432.72 C1065.21,431.94 1071,431.82 1072.71,439.44 C1074.42,447.06 1070.19,449.94 1063.71,451.44 C1066.53,438.09 1066.53,438.06 1055.13,441.09 C1054.77,441.09 1054.53,441.81 1054.14,442.32 L1063.95,451.41 Z" id="Shape" fill="#000000" fill-rule="nonzero"></path>
            <path d="M590.16,439.14 C584.381054,439.419723 578.590477,439.349595 572.82,438.93 C570.54,438.63 568.53,435.93 566.4,434.4 C568.5,432.72 570.48,429.78 572.73,429.57 C583.56,428.49 594.45,427.86 605.31,427.74 C608.31,427.74 611.31,429.93 614.31,431.13 C611.852799,433.136378 609.267308,434.980294 606.57,436.65 C604.375871,437.355291 602.093609,437.749133 599.79,437.82 C599.79,446.82 600.12,455.82 599.61,465.06 C599.43,468.06 597.06,470.79 595.68,473.67 C593.85,470.85 590.67,468.18 590.43,465.24 C589.68,456.6 590.16,447.93 590.16,439.14 Z" id="Shape" fill="#000000" fill-rule="nonzero"></path>
            <path d="M349.8,436.2 C354.00513,437.76034 358.02865,439.7721 361.8,442.2 C366.281991,445.530006 370.02989,449.747669 372.81,454.59 C373.930578,458.3654 373.315007,462.443556 371.13,465.72 C366.24,472.86 349.8,471.72 345.09,464.46 C344.333511,462.345421 343.997218,460.10347 344.1,457.86 L350.4,458.73 C355.41,459.39 363.9,461.97 364.83,460.29 C368.55,453.66 362.07,450.39 357.24,447.51 C352.41,444.63 347.76,443.31 343.41,440.61 C337.98,437.25 338.16,432.45 344.16,430.59 C350.536266,428.47145 357.248336,427.545998 363.96,427.86 C372.78,428.52 374.82,436.29 368.85,443.49 C366.78,439.95 365.46,434.82 362.37,433.26 C359.28,431.7 354.09,433.26 349.86,433.68 L349.8,436.2 Z" id="Shape" fill="#000000" fill-rule="nonzero"></path>
            <path d="M623.49,464.91 C626.127161,463.303155 628.616881,461.465983 630.93,459.42 C632.34,457.98 632.37,455.28 633.72,453.69 C634.882876,452.274736 636.628541,451.468194 638.46,451.5 C639.51,451.71 640.71,454.5 640.68,455.94 C640.518716,460.541263 640.087978,465.129125 639.39,469.68 C639.189213,470.998331 638.491489,472.189828 637.44,473.01 C628.44,479.01 613.11,471.21 611.85,460.38 C611.67,458.94 610.11,457.68 609.39,456.24 C608.67,454.8 606.72,451.71 607.32,450.96 C608.836449,449.19544 610.998483,448.114423 613.32,447.96 C621.9,447.96 624.06,451.68 621.9,462.45 L623.49,464.91 Z" id="Shape" fill="#000000" fill-rule="nonzero"></path>
            <path d="M520.14,468.96 C517.112047,468.941204 514.225493,467.676179 512.159426,465.462536 C510.093359,463.248893 509.030175,460.282055 509.22,457.26 C509.46,449.82 516.24,442.47 522.9,442.47 C530.4,442.47 535.11,446.31 535.23,452.55 C535.38,460.62 527.7,468.96 520.14,468.96 Z M528.27,451.89 C518.82,450.63 517.29,452.37 519.78,462.27 L528.27,451.89 Z" id="Shape" fill="#000000" fill-rule="nonzero"></path>
            <path d="M757.47,468.36 L776.55,471.21 C776.55,471.99 776.85,473.52 776.31,473.94 C770.07,478.68 763.44,477.54 757.29,474.15 C752.140687,471.490338 750.019443,465.232668 752.49,459.99 C754.86,453.63 759.09,448.35 766.47,447.99 C771.99,447.72 774.06,452.37 773.85,456.81 C773.85,458.76 770.4,461.22 768,462.27 C764.745832,463.342495 761.387016,464.066551 757.98,464.43 L757.47,468.36 Z" id="Shape" fill="#000000" fill-rule="nonzero"></path>
            <path d="M1091.13,476.79 C1088.94,477.63 1086.36,479.64 1084.5,479.13 C1081.5,478.35 1077.69,476.28 1076.97,473.94 C1075.11,467.7 1085.52,456.18 1092.21,456.78 C1094.64834,457.30436 1096.69518,458.950732 1097.73,461.22 C1099.20095,466.114167 1100.20543,471.136558 1100.73,476.22 C1100.56414,477.650519 1099.86843,478.967016 1098.78,479.91 C1096.16007,479.050468 1093.60377,478.0079 1091.13,476.79 Z M1089,474 C1090.65685,474 1092,471.313708 1092,468 C1092,464.686292 1090.65685,462 1089,462 C1087.34315,462 1086,464.686292 1086,468 C1086,471.313708 1087.34315,474 1089,474 Z" id="Combined-Shape" fill="#000000" fill-rule="nonzero"></path>
            <path d="M404.22,467.34 C385.26,469.77 385.17,469.77 381.96,450.48 C381.69,448.95 383.19,447.12 383.85,445.41 C385.56,446.61 388.32,447.51 388.77,449.07 C389.722166,453.165814 390.363987,457.327623 390.69,461.52 L393.15,462.09 L400.26,445.14 C407.7,452.43 402.18,460.14 404.22,467.34 Z" id="Shape" fill="#000000" fill-rule="nonzero"></path>
            <path d="M977.7,473.97 L971.7,469.5 C970.23,472.74 969,475.8 967.47,478.71 C965.94,481.62 964.47,483.93 962.79,486.54 C961.269214,483.769548 959.90702,480.914951 958.71,477.99 C958.337702,476.124509 958.216629,474.217597 958.35,472.32 C958.35,471.24 957.87,469.32 958.11,469.32 C963.30038,467.067189 968.752994,465.474743 974.34,464.58 C976.26,464.58 978.6,469.44 980.73,472.08 L977.7,473.97 Z" id="Shape" fill="#000000" fill-rule="nonzero"></path>
            <path d="M81.06,129 C80.9020668,98.1422476 99.3703816,70.2355808 127.835196,58.3200373 C156.30001,46.4044938 189.141121,52.8327245 211.012757,74.6009894 C232.884393,96.3692542 239.468134,129.179543 227.687575,157.700487 C215.907015,186.221431 188.088154,204.821745 157.23,204.81 C137.073761,204.865764 117.721789,196.908067 103.435401,182.6892 C89.149012,168.470332 81.099726,149.156277 81.06,129 Z M158.25,129.54 L158.25,132.54 C177,132.54 195.78,132.54 214.53,132.54 C216.867468,132.036063 219.093729,131.110995 221.1,129.81 C219.100684,128.417062 216.864092,127.40043 214.5,126.81 C176.5,125.59 138.44,124.59 100.32,123.81 C97.894744,124.194325 95.5518028,124.985448 93.39,126.15 C95.7,127.29 98.01,129.42 100.35,129.45 C119.7,129.63 138.96,129.51 158.25,129.51 L158.25,129.54 Z M95.07,111.36 L95.46,114.75 L219.72,118.14 L220.2,114.48 C218.056868,113.421841 215.773942,112.674334 213.42,112.26 C176.16,111.16 138.89,110.16 101.61,109.26 C99.3351373,109.603633 97.1282921,110.30213 95.07,111.33 L95.07,111.36 Z M219.51,145.29 L218.91,141.51 L94.62,138.21 L94.17,142.41 C97.1162787,143.246253 100.126468,143.838256 103.17,144.18 C139.41,145.22 175.66,146.15 211.92,146.97 C214.521098,146.718285 217.080764,146.143872 219.54,145.26 L219.51,145.29 Z M213.87,159.36 L213.27,155.94 L99.51,152.94 L98.94,156.3 C101.224073,157.48323 103.670518,158.3223 106.2,158.79 C139.62,159.83 173.05,160.72 206.49,161.46 C209.047661,161.117694 211.543042,160.410501 213.9,159.36 L213.87,159.36 Z M101.49,100.38 L214.68,103.38 C209.4,95.91 106.95,93.21 101.49,100.38 Z M109.11,167.61 L108.27,170.61 C110.600922,171.913731 113.121363,172.844978 115.74,173.37 C142.42,174.29 169.11,175.02 195.81,175.56 C198.562667,175.18456 201.242872,174.395669 203.76,173.22 L203.22,170.22 L109.11,167.61 Z M204.63,86.61 L205.26,85.23 C203.085339,83.9836217 200.725646,83.0924069 198.27,82.59 C171.61,81.73 144.94,81.06 118.26,80.58 C116.04,80.58 113.79,82.41 111.57,83.37 L112.35,86.61 L204.63,86.61 Z M127.47,184.14 C134.55,190.59 176.61,191.7 185.88,184.14 L127.47,184.14 Z M132.36,72.18 L185.31,72.18 C177.84,65.91 141.75,64.62 132.36,72.18 Z" id="Shape" fill="#FFFFFF" fill-rule="nonzero"></path>
            <path d="M936.54,885.12 C936.54,873.69 936.54,862.23 936.54,850.8 C936.54,846.45 937.95,844.26 942.54,844.29 C965.94,844.39 989.33,844.39 1012.71,844.29 C1018.08,844.29 1019.7,846.6 1019.7,851.73 C1019.7,870.54 1020.36,889.32 1020.45,908.13 C1020.45,923.13 1015.32,928.32 1000.56,928.41 C981.75,928.41 962.94,928.41 944.13,928.89 C937.71,928.89 935.34,926.49 935.46,920.28 C935.7,908.55 935.46,896.85 935.46,885.12 L936.54,885.12 Z" id="Shape" fill="#FFFFFF" fill-rule="nonzero"></path>
            <path d="M1321.29,811.11 C1321.83,783.24 1354.83,753.24 1382.67,755.28 C1403.04,756.78 1414.77,774.27 1409.4,795.12 C1403.61,817.62 1380.15,838.32 1357.05,841.29 C1336.38,843.96 1320.93,830.91 1321.29,811.11 Z" id="Shape" fill="#FFFFFF" fill-rule="nonzero"></path>
            <polygon id="Shape" fill="#FFFFFF" fill-rule="nonzero" points="1130.28 928.74 1116.63 928.74 1130.28 914.46"></polygon>
            <path d="M1297.14,671.43 C1297.14,697.35 1273.98,725.82 1248.48,731.28 C1226.76,735.93 1209.69,719.04 1213.98,695.28 C1218.66,669.6 1233.66,651.15 1258.98,642.93 C1279.65,636.36 1297.17,649.89 1297.14,671.43 Z" id="Shape" fill="#FFFFFF" fill-rule="nonzero"></path>
            <polygon id="Shape" fill="#FFB6A3" fill-rule="nonzero" points="537.9 575.91 456.3 575.91 456.3 493.17 537.87 490.17"></polygon>
            <path d="M572.16,579.93 C573.3,553.32 574.53,527.76 575.31,502.2 C575.49,496.02 577.53,494.73 583.56,494.73 C604.83,494.73 626.07,494.04 647.34,493.62 C650.34,493.62 653.34,493.62 657.21,493.62 C657.21,499.17 657.21,503.97 657.21,508.77 C657.42,528.39 657.6,548.01 657.93,567.63 C657.93,573.63 656.28,575.97 649.53,576.12 C626.67,576.69 603.84,578.19 580.98,579.33 C578.07,579.48 575.13,579.72 572.16,579.93 Z" id="Shape" fill="#FF9282" fill-rule="nonzero"></path>
            <polygon id="Shape" fill="#FDB6A5" fill-rule="nonzero" points="539.7 609.75 539.7 690.21 459.63 690.21 459.63 609.75"></polygon>
            <path d="M579,811.067027 L579,723.485623 L663.994316,723.485623 C663.994316,735.336787 663.994316,746.471672 663.994316,757.606557 C663.994316,772.974 663.994316,788.374002 663.551802,803.741445 C663.551802,806.248422 660.390987,810.741446 658.684147,810.774004 C632.322949,811.19726 605.99336,811.067027 579,811.067027 Z" id="Shape-Copy-14" fill="#FFB6A3" fill-rule="nonzero"></path>
            <path d="M815.19,699.6 L815.19,620.28 C817.65,620.04 819.75,619.68 821.82,619.62 L887.82,617.94 C891.63,617.94 894.96,617.94 894.96,623.16 C894.96,648.42 894.96,673.71 894.96,699.6 L815.19,699.6 Z" id="Shape" fill="#FF9282" fill-rule="nonzero"></path>
            <path d="M935.91,618.81 L1016.04,618.81 L1016.04,701.31 C1005.06,701.31 994.83,701.31 984.57,701.31 C970.11,701.31 955.68,700.89 941.25,700.65 C937.53,700.65 934.17,700.41 934.23,695.1 C934.47,670.56 934.5,646.05 934.62,621.51 C934.62,621.03 935.04,620.61 935.91,618.81 Z" id="Shape" fill="#FFDCCE" fill-rule="nonzero"></path>
            <path d="M777.48,814.71 C761.7,814.71 746.25,814.71 730.8,814.71 C721.53,814.71 712.26,814.02 703.02,813.99 C698.31,813.99 696.06,812.58 696.12,807.48 C696.39,784.59 696.3,761.67 696.72,738.78 C696.72,736.74 699.54,733.08 701.13,733.02 C724.26,732.42 747.42,732.27 770.55,732.09 C772.68,732.09 774.78,732.48 777.45,732.75 L777.48,814.71 Z" id="Shape" fill="#FF9282" fill-rule="nonzero"></path>
            <path d="M898.23,814.41 C872.73,814.41 846.96,814.41 821.22,814.17 C819.69,814.17 816.87,810.84 816.87,809.07 C816.87,785.07 817.15,761.14 817.71,737.28 C818.450363,734.820673 820.416082,732.923129 822.9,732.27 C846.3,731.97 869.7,732.09 893.07,732.27 C894.81,732.27 898.02,734.58 898.02,735.84 C898.29,761.61 898.23,787.38 898.23,814.41 Z" id="Shape" fill="#FFB6A3" fill-rule="nonzero"></path>
            <path d="M428.011123,879.043394 C428.011123,890.473394 427.681123,901.933394 428.011123,913.363394 C428.251123,919.963394 425.761123,921.703394 419.461123,921.613394 C397.411123,921.283394 375.361123,921.283394 353.281123,921.613394 C347.281123,921.613394 344.941123,919.963394 345.001123,913.783394 C345.241123,891.433394 345.001123,869.113394 345.001123,846.763394 C345.001123,842.233394 345.601123,838.753394 351.451123,838.633394 C374.051123,838.233394 396.641123,837.693394 419.221123,837.013394 C426.181123,836.803394 428.671123,839.023394 428.221123,846.463394 C427.381123,857.293394 428.011123,868.243394 428.011123,879.133394 L428.011123,879.043394 Z" id="Shape" fill="#FFFFFF" fill-rule="nonzero"></path>
            <path d="M429.461616,1002.04339 C429.461616,1013.47339 429.131616,1024.93339 429.461616,1036.36339 C429.701616,1042.96339 427.211616,1044.70339 420.911616,1044.61339 C398.861616,1044.28339 376.811616,1044.28339 354.731616,1044.61339 C348.731616,1044.61339 346.391616,1042.96339 346.451616,1036.78339 C346.691616,1014.43339 346.451616,992.113394 346.451616,969.763394 C346.451616,965.233394 347.051616,961.753394 352.901616,961.633394 C375.501616,961.233394 398.091616,960.693394 420.671616,960.013394 C427.631616,959.803394 430.121616,962.023394 429.671616,969.463394 C428.831616,980.293394 429.461616,991.243394 429.461616,1002.13339 L429.461616,1002.04339 Z" id="Shape-Copy-4" fill="#FFFFFF" fill-rule="nonzero"></path>
            <polygon id="Shape" fill="#FFDCCE" fill-rule="nonzero" points="698.88 698.61 698.88 616.2 780.48 616.2 780.48 698.61"></polygon>
            <path d="M579.06,834 C595.41,834 609.81,834 624.06,834 C634.14,834 644.22,834.36 654.33,834.42 C660.33,834.42 663.06,836.43 662.97,843.12 C662.59,866.02 662.59,888.92 662.97,911.82 C662.97,917.82 660.24,919.62 655.23,919.47 C640.8,919.05 626.4,918.45 611.97,917.94 C603.54,917.64 595.08,917.07 586.65,917.19 C581.58,917.19 579,915.84 579,910.44 C579.09,885.42 579.06,860.37 579.06,834 Z" id="Shape" fill="#FFFFFF" fill-rule="nonzero"></path>
            <path d="M580.510493,957 C596.860493,957 611.260493,957 625.510493,957 C635.590493,957 645.670493,957.36 655.780493,957.42 C661.780493,957.42 664.510493,959.43 664.420493,966.12 C664.040493,989.02 664.040493,1011.92 664.420493,1034.82 C664.420493,1040.82 661.690493,1042.62 656.680493,1042.47 C642.250493,1042.05 627.850493,1041.45 613.420493,1040.94 C604.990493,1040.64 596.530493,1040.07 588.100493,1040.19 C583.030493,1040.19 580.450493,1038.84 580.450493,1033.44 C580.540493,1008.42 580.510493,983.37 580.510493,957 Z" id="Shape-Copy-5" fill="#FFFFFF" fill-rule="nonzero"></path>
            <path d="M860.07,926.280893 C848.64,926.280893 837.18,926.130893 825.75,926.280893 C820.83,926.280893 819,924.630893 819,919.650893 C819,896.490893 819,873.360893 819,850.200893 C819,845.910893 819.57,842.940893 825,843.000893 C848.43,843.150893 871.83,843.000893 895.26,843.000893 C899.4,843.000893 902.01,843.990893 902.01,848.850893 C902.01,872.220893 902.01,895.590893 902.34,918.960893 C902.34,924.960893 899.52,926.220893 894.33,926.130893 C882.9,925.920893 871.44,926.130893 860.01,926.130893 L860.07,926.280893 Z" id="Shape" fill="#FFFFFF" fill-rule="nonzero"></path>
            <path d="M862.26,1041.98855 C850.83,1041.98855 839.37,1041.83855 827.94,1041.98855 C823.02,1041.98855 821.19,1040.33855 821.19,1035.35855 C821.19,1012.19855 821.19,989.068546 821.19,965.908546 C821.19,961.618546 821.76,958.648546 827.19,958.708546 C850.62,958.858546 874.02,958.708546 897.45,958.708546 C901.59,958.708546 904.2,959.698546 904.2,964.558546 C904.2,987.928546 904.2,1011.29855 904.53,1034.66855 C904.53,1040.66855 901.71,1041.92855 896.52,1041.83855 C885.09,1041.62855 873.63,1041.83855 862.2,1041.83855 L862.26,1041.98855 Z" id="Shape-Copy-9" fill="#FFFFFF" fill-rule="nonzero"></path>
            <path d="M541.8,808.17 L460.32,808.17 C460.14,805.35 459.78,802.5 459.81,799.65 C460.2,777.87 460.86,756.09 461.04,734.31 C461.04,728.7 463.08,726.36 468.51,726.33 C491.1,726.33 513.72,725.91 536.31,726.12 C538.838762,726.809099 540.827283,728.76353 541.56,731.28 C541.92,756.54 541.8,781.83 541.8,808.17 Z" id="Shape" fill="#FF9282" fill-rule="nonzero"></path>
            <path d="M542.97,880.02 C542.97,891.72 542.97,903.45 542.97,915.15 C542.97,919.68 541.11,921.45 536.64,921.45 C513.21,921.45 489.75,921.45 466.32,921.69 C460.86,921.69 459.15,919.26 459.18,914.31 C459.18,891.41 459.12,868.52 459,845.64 C459,840.12 460.59,837.15 466.95,837.21 C489.53,837.41 512.11,837.34 534.69,837 C541.29,837 543.21,839.43 543,845.7 C542.61,857.13 543,868.59 543,880.05 L542.97,880.02 Z" id="Shape" fill="#FFFFFF" fill-rule="nonzero"></path>
            <path d="M541.420493,1003.02 C541.420493,1014.72 541.420493,1026.45 541.420493,1038.15 C541.420493,1042.68 539.560493,1044.45 535.090493,1044.45 C511.660493,1044.45 488.200493,1044.45 464.770493,1044.69 C459.310493,1044.69 457.600493,1042.26 457.630493,1037.31 C457.630493,1014.41 457.570493,991.52 457.450493,968.64 C457.450493,963.12 459.040493,960.15 465.400493,960.21 C487.980493,960.41 510.560493,960.34 533.140493,960 C539.740493,960 541.660493,962.43 541.450493,968.7 C541.060493,980.13 541.450493,991.59 541.450493,1003.05 L541.420493,1003.02 Z" id="Shape-Copy-6" fill="#FFFFFF" fill-rule="nonzero"></path>
            <path d="M1063.95,451.41 L1054.38,442.41 C1054.77,441.9 1055.01,441.3 1055.37,441.18 C1066.77,438.18 1066.77,438.18 1063.95,451.53 L1063.95,451.41 Z" id="Shape" fill="#FFFFFF" fill-rule="nonzero"></path>
            <path d="M528.27,451.89 L519.78,462.27 C517.29,452.37 518.7,450.6 528.27,451.89 Z" id="Shape" fill="#FFFFFF" fill-rule="nonzero"></path>
            <path d="M158.25,129.51 C138.96,129.51 119.64,129.51 100.35,129.36 C98.01,129.36 95.7,127.2 93.39,126.06 C95.5518028,124.895448 97.894744,124.104325 100.32,123.72 C138.32,124.6 176.38,125.6 214.5,126.72 C216.864092,127.31043 219.100684,128.327062 221.1,129.72 C219.093729,131.020995 216.867468,131.946063 214.53,132.45 C195.78,132.66 177.03,132.45 158.25,132.45 L158.25,129.51 Z" id="Shape" fill="#000000" fill-rule="nonzero"></path>
            <path d="M95.07,111.33 C97.139412,110.309526 99.3565371,109.621104 101.64,109.29 C138.92,110.13 176.19,111.13 213.45,112.29 C215.803942,112.704334 218.086868,113.451841 220.23,114.51 L219.75,118.17 L95.49,114.78 L95.07,111.33 Z" id="Shape" fill="#000000" fill-rule="nonzero"></path>
            <path d="M219.54,145.26 C217.127575,146.12166 214.619049,146.685826 212.07,146.94 C175.81,146.12 139.56,145.19 103.32,144.15 C100.276468,143.808256 97.2662787,143.216253 94.32,142.38 L94.77,138.18 L219.06,141.48 L219.54,145.26 Z" id="Shape" fill="#000000" fill-rule="nonzero"></path>
            <path d="M213.9,159.36 C211.538358,160.379559 209.043137,161.056401 206.49,161.37 C173.05,160.63 139.62,159.74 106.2,158.7 C103.670518,158.2323 101.224073,157.39323 98.94,156.21 L99.51,152.85 L213.27,155.85 L213.9,159.36 Z" id="Shape" fill="#000000" fill-rule="nonzero"></path>
            <path d="M101.49,100.38 C106.95,93.21 209.49,95.91 214.68,103.38 L101.49,100.38 Z" id="Shape" fill="#000000" fill-rule="nonzero"></path>
            <path d="M109.11,167.61 L203.22,170.13 L203.76,173.13 C201.242872,174.305669 198.562667,175.09456 195.81,175.47 C169.11,174.93 142.42,174.2 115.74,173.28 C113.121363,172.754978 110.600922,171.823731 108.27,170.52 L109.11,167.61 Z" id="Shape" fill="#000000" fill-rule="nonzero"></path>
            <path d="M204.63,86.82 L112.35,86.82 L111.57,83.61 C113.79,82.62 116.04,80.76 118.26,80.82 C144.94,81.3 171.61,81.97 198.27,82.83 C200.725646,83.3324069 203.085339,84.2236217 205.26,85.47 L204.63,86.82 Z" id="Shape" fill="#000000" fill-rule="nonzero"></path>
            <path d="M127.47,184.14 L185.88,184.14 C176.7,191.61 134.55,190.62 127.47,184.14 Z" id="Shape" fill="#000000" fill-rule="nonzero"></path>
            <path d="M132.36,72.18 C141.75,64.62 177.84,65.91 185.31,72.18 L132.36,72.18 Z" id="Shape" fill="#000000" fill-rule="nonzero"></path>
            <g id="Group-34">
                <path d="M303.53506,207.861386 L420,207.861386 L420,74.9192715 L354.184056,74.9192715 C322.256627,73.3839085 271.619964,67.14456 224.999207,31.1124773 C191.161262,4.96049892 157.946177,0 138.068929,0 C80.9187551,0 31.9076957,34.993637 11.094307,84.8167247 C3.96533598,101.037792 0,118.976383 0,137.84685 C0,151.039323 1.94258295,163.774534 5.54283667,175.788533 C11.8269383,198.257622 23.6218086,218.40446 39.3647475,234.676334 L38.8874271,234.66766 C78.5259863,280.244025 101.750645,302.876688 105.85042,336.303983 C109.52591,366.277639 98.0689874,445.266428 95.6614179,461.274354 C94.4502329,467.500071 94.0777503,473.767921 94.8362827,479.953984 C99.8339628,520.707401 133.564603,550.071374 170.173966,545.538397 C206.784563,541.00666 232.411857,504.295498 227.414177,463.542081 C226.225193,453.845378 222.004546,444.474583 216.108961,435.727103 C210.915172,426.185299 187.141657,381.545765 179.689539,350.393634 C176.174389,335.699255 170.132031,293.831802 192.35148,262.947336 C228.936175,220.530919 264.197447,210.139027 303.53506,207.861386" id="Fill-1" fill="#000000"></path>
                <path d="M147,75.6 C110.714895,75.6 81.2,105.113933 81.2,141.40062 C81.2,177.686067 110.714895,207.2 147,207.2 C183.285105,207.2 212.8,177.686067 212.8,141.40062 C212.8,105.113933 183.285105,75.6 147,75.6" id="Fill-3" fill="#FFFFFF"></path>
                <g id="Group-7" transform="translate(467.600000, 78.400000)">
                    <mask id="mask-2" fill="white">
                        <use xlink:href="#path-1"></use>
                    </mask>
                    <g id="Clip-6"></g>
                    <path d="M167.424476,30.3773983 C156.679888,30.3773983 151.118594,24.5600483 146.651771,19.8861483 C142.811241,15.8680317 140.035535,12.9651317 134.137006,12.9651317 C128.237241,12.9651317 125.462771,15.8680317 121.622241,19.8861483 C117.154182,24.5600483 111.592888,30.3773983 100.849535,30.3773983 C90.1061824,30.3773983 84.5461235,24.5600483 80.0780647,19.884865 C76.2375353,15.8680317 73.4643,12.9651317 67.5657706,12.9651317 C61.6672412,12.9651317 58.8927706,15.8680317 55.0534765,19.8861483 C50.5854176,24.5600483 45.0253588,30.3773983 34.2820059,30.3773983 C23.5386529,30.3773983 17.9798294,24.5600483 13.5117706,19.884865 C9.67124118,15.8680317 6.89800588,12.9651317 0.999476471,12.9651317 L0.999476471,0.873565 C11.7428294,0.873565 17.3028882,6.690915 21.7709471,11.3660983 C25.6102412,15.3829317 28.3847118,18.2858317 34.2820059,18.2858317 C40.1805353,18.2858317 42.9550059,15.3829317 46.7943,11.3660983 C51.2623588,6.690915 56.8224176,0.873565 67.5657706,0.873565 C78.3091235,0.873565 83.8691824,6.690915 88.3372412,11.3660983 C92.1765353,15.3829317 94.9510059,18.2858317 100.849535,18.2858317 C106.7493,18.2858317 109.523771,15.3829317 113.3643,11.3660983 C117.832359,6.690915 123.392418,0.873565 134.137006,0.873565 C144.880359,0.873565 150.441653,6.690915 154.909712,11.3660983 C158.750241,15.3829317 161.524712,18.2858317 167.424476,18.2858317 L167.424476,30.3773983 Z" id="Fill-5" fill="#000000" mask="url(#mask-2)"></path>
                </g>
                <g id="Group-10" transform="translate(467.600000, 182.000000)">
                    <mask id="mask-4" fill="white">
                        <use xlink:href="#path-3"></use>
                    </mask>
                    <g id="Clip-9"></g>
                    <path d="M167.424476,30.1519167 C156.679888,30.1519167 151.118594,24.3345667 146.651771,19.6593833 C142.810006,15.64255 140.035535,12.73965 134.137006,12.73965 C128.237241,12.73965 125.462771,15.64255 121.622241,19.6593833 C117.154182,24.3345667 111.592888,30.1519167 100.849535,30.1519167 C90.1049471,30.1519167 84.5461235,24.3345667 80.0780647,19.6593833 C76.2375353,15.64255 73.4643,12.73965 67.5657706,12.73965 C61.6672412,12.73965 58.8927706,15.64255 55.0534765,19.6593833 C50.5854176,24.3345667 45.0253588,30.1519167 34.2820059,30.1519167 C23.5386529,30.1519167 17.9798294,24.3345667 13.5117706,19.6593833 C9.67124118,15.64255 6.89800588,12.73965 0.999476471,12.73965 L0.999476471,0.648083333 C11.7428294,0.648083333 17.3028882,6.46543333 21.7709471,11.1406167 C25.6102412,15.15745 28.3847118,18.06035 34.2820059,18.06035 C40.1805353,18.06035 42.9550059,15.15745 46.7943,11.1406167 C51.2623588,6.46543333 56.8224176,0.648083333 67.5657706,0.648083333 C78.3091235,0.648083333 83.8691824,6.46543333 88.3372412,11.1406167 C92.1765353,15.15745 94.9510059,18.06035 100.849535,18.06035 C106.7493,18.06035 109.523771,15.15745 113.3643,11.1393333 C117.832359,6.46543333 123.392418,0.648083333 134.137006,0.648083333 C144.880359,0.648083333 150.441653,6.46543333 154.909712,11.1406167 C158.750241,15.15745 161.524712,18.06035 167.424476,18.06035 L167.424476,30.1519167 Z" id="Fill-8" fill="#000000" mask="url(#mask-4)"></path>
                </g>
                <g id="Group-13" transform="translate(467.600000, 131.600000)">
                    <mask id="mask-6" fill="white">
                        <use xlink:href="#path-5"></use>
                    </mask>
                    <g id="Clip-12"></g>
                    <path d="M167.424476,30.2647217 C156.679888,30.2647217 151.118594,24.4473717 146.651771,19.7734717 C142.811241,15.755355 140.035535,12.852455 134.137006,12.852455 C128.237241,12.852455 125.462771,15.755355 121.622241,19.7734717 C117.154182,24.4473717 111.592888,30.2647217 100.849535,30.2647217 C90.1061824,30.2647217 84.5461235,24.4473717 80.0780647,19.7721883 C76.2375353,15.755355 73.4643,12.852455 67.5657706,12.852455 C61.6672412,12.852455 58.8927706,15.755355 55.0534765,19.7734717 C50.5854176,24.4473717 45.0253588,30.2647217 34.2820059,30.2647217 C23.5386529,30.2647217 17.9798294,24.4473717 13.5117706,19.7721883 C9.67124118,15.755355 6.89800588,12.852455 0.999476471,12.852455 L0.999476471,0.760888333 C11.7428294,0.760888333 17.3028882,6.57823833 21.7709471,11.2534217 C25.6102412,15.270255 28.3847118,18.173155 34.2820059,18.173155 C40.1805353,18.173155 42.9550059,15.270255 46.7943,11.2534217 C51.2623588,6.57823833 56.8224176,0.760888333 67.5657706,0.760888333 C78.3091235,0.760888333 83.8691824,6.57823833 88.3372412,11.2534217 C92.1765353,15.270255 94.9510059,18.173155 100.849535,18.173155 C106.7493,18.173155 109.523771,15.270255 113.3643,11.2534217 C117.832359,6.57823833 123.392418,0.760888333 134.137006,0.760888333 C144.880359,0.760888333 150.441653,6.57823833 154.909712,11.2534217 C158.750241,15.270255 161.524712,18.173155 167.424476,18.173155 L167.424476,30.2647217 Z" id="Fill-11" fill="#000000" mask="url(#mask-6)"></path>
                </g>
                <polygon id="Fill-14" fill="#000000" points="72.8394814 204.4 72.8 199.639697 223.960519 198.8 224 203.560303"></polygon>
                <polygon id="Fill-16" fill="#000000" points="72.8394814 187.6 72.8 182.839697 223.960519 182 224 186.760303"></polygon>
                <polygon id="Fill-18" fill="#000000" points="72.8394814 173.6 72.8 168.839697 223.960519 168 224 172.760303"></polygon>
                <polygon id="Fill-20" fill="#000000" points="72.8394814 159.6 72.8 154.839697 223.960519 154 224 158.760303"></polygon>
                <polygon id="Fill-22" fill="#000000" points="72.8394814 142.8 72.8 138.039697 223.960519 137.2 224 141.960303"></polygon>
                <polygon id="Fill-24" fill="#000000" points="72.8394814 128.8 72.8 124.039697 223.960519 123.2 224 127.960303"></polygon>
                <polygon id="Fill-26" fill="#000000" points="72.8394814 114.8 72.8 110.039697 223.960519 109.2 224 113.960303"></polygon>
                <polygon id="Fill-28" fill="#000000" points="72.8394814 98 72.8 93.2396969 223.960519 92.4 224 97.1603031"></polygon>
                <polygon id="Fill-30" fill="#000000" points="72.8394814 84 72.8 79.2396969 223.960519 78.4 224 83.1603031"></polygon>
                <path d="M147,206.554224 C111.071005,206.554224 81.8457761,177.330223 81.8457761,141.4 C81.8457761,105.471005 111.071005,76.2470039 147,76.2470039 C182.928995,76.2470039 212.154224,105.471005 212.154224,141.4 C212.154224,177.330223 182.928995,206.554224 147,206.554224 M147,64.4 C104.542813,64.4 70,98.9440412 70,141.4 C70,183.857187 104.542813,218.4 147,218.4 C189.457187,218.4 224,183.857187 224,141.4 C224,98.9440412 189.457187,64.4 147,64.4" id="Fill-32" fill="#FFFFFF"></path>
            </g>
            <g id="Logo/Secondary" transform="translate(681.000000, 42.000000)" fill="#000000" fill-rule="nonzero">
                <g id="logo-made-wavy">
                    <path d="M72.0710709,1.93269247 C67.044448,12.7278756 52.7556274,24.9114419 52.3302208,35.6869055 C51.7430391,50.5637198 65.3392458,55.5141682 77.1785557,64.9302482 C105.683355,87.5992352 74.7806885,99.8303097 81.3436893,127.878984 C88.9474754,102.035311 126.880889,92.7422386 110.337281,64.9580875 C106.544793,58.587836 95.0956946,50.7098759 96.4927222,41.830862 C98.2893093,30.4255851 130.299518,9.57063957 137.630223,1.93269239 L181.517241,1.93269231 C162.956629,28.1139166 143.333062,34.8993364 168.917328,62.3934951 C184.953442,79.6249472 183.950253,83.7784964 169.74352,101.553974 C155.831017,118.960531 157.371022,124.764642 170.260414,140.6413 C189.689411,164.573494 177.136391,174.765493 167.935235,201 L129.647922,201 C133.118143,191.144367 140.119526,181.361787 142.925227,171.6744 C147.246313,156.749977 141.046604,152.188118 132.32587,140.265495 C125.173337,130.48531 119.729481,127.243397 122.920746,115.345158 C126.199973,103.120993 139.757409,91.6472776 145.148498,79.6446667 C134.887759,95.1003059 108.799575,108.520299 109.721953,128.327817 C113.799278,136.1154 118.326579,143.6373 123.302835,150.895962 C126.442508,161.252652 123.579442,169.99716 114.715782,177.12351 L82.7793855,177.12351 C87.9724319,147.569421 65.3860874,149.997011 52.9268014,128.327817 C43.007236,111.074401 61.246699,97.0686736 64.1601827,79.5437997 C58.6073694,91.6054682 44.6514469,103.043224 41.2737856,115.335878 C37.9934856,127.275876 43.4865335,130.464406 50.7140535,140.265495 C59.4757548,152.145149 65.9122778,156.737242 61.2958904,171.6744 C58.2991437,181.371117 50.8231124,191.093404 47.1430998,201 L10.6067065,201 C20.8708684,174.613537 34.8115168,165.155773 14.583248,140.6413 C1.33751054,124.588327 -0.132103104,118.861984 14.5070343,101.465817 C29.6232218,83.5036844 30.7424172,79.401073 13.3737397,62.2914177 C-14.97286,34.3692806 7.47520686,28.005989 27.9086198,1.93269231 L72.0710709,1.93269231 L72.0710709,1.93269247 Z" id="Shape"></path>
                    <path d="M274.703775,170.100945 C268.521524,179.820002 260.261114,189.796768 256.866387,201 L214.344828,201 C225.208943,181.367216 244.850753,166.32226 232.518026,143.73152 C220.270681,121.298162 222.628649,119.330078 239.100404,100.676672 C256.028492,81.5066837 257.649248,79.8336447 244.138073,57.411871 C228.97345,32.2480006 257.80481,18.7665572 272.406655,0 L316.896511,0 C310.082371,25.6302652 295.248866,35.4216645 317.196006,57.4923748 C334.980707,75.3763307 340.114366,77.6125413 331.625764,100.801382 C323.192092,123.83867 328.297699,126.037569 345.926787,143.73152 C364.750593,162.625144 357.927171,176.606771 358.129657,201 L313.326177,201 C311.174214,188.64016 316.346483,182.460836 318.100563,170.100945 L274.703775,170.100945 Z M272.215849,46.8313014 C284.030221,64.9717238 294.944627,73.2694941 282.915017,92.7484185 C270.324874,113.133213 254.785779,112.042002 267.194501,138.00105 L298.744326,138.00105 C279.121235,114.074215 291.35333,116.758063 298.509095,92.7787341 C304.891384,71.3900247 286.661978,61.4098369 272.215849,46.8313014 Z" id="Shape"></path>
                    <path d="M453.040614,1.93269231 C469.946892,2.88375704 495.722261,3.98914656 498.842361,24.3161502 C502.46866,47.949942 544.412728,77.7520375 523.088119,98.9767477 C515.679296,106.348987 511.404646,115.295188 511.608492,125.819942 C515.548056,133.877716 520.079171,141.592067 525.202449,148.965517 C527.892422,161.107151 524.976066,166.210663 516.929804,175.628917 C502.790286,192.180485 480.277883,201.155685 458.746164,200.997956 L406.115318,200.997956 C411.468343,175.112736 420.282369,163.133471 402.881517,140.639843 C391.018467,125.301541 389.066174,119.243383 400.870792,101.849762 C412.51837,84.6858127 413.397998,80.1970778 401.209142,62.7257395 C382.981332,36.6005092 395.453421,28.4418184 407.374187,1.93269239 L453.040614,1.93269239 Z M459.690954,170.25753 C469.525025,170.25753 479.592923,166.515732 483.73052,160.408932 C488.640775,153.160757 482.526717,147.266229 478.797628,140.071438 C469.773944,122.660468 467.921891,119.771164 479.428337,101.799934 C497.002035,74.3536127 475.507945,60.9777332 457.138951,41.0300863 C451.862712,35.6435439 445.648413,32.6730931 436.697437,32.6730931 L432.537202,32.6730931 C431.782084,53.1195219 444.338557,56.7557886 449.755928,73.4708846 C454.168345,87.0914143 448.065912,91.2124426 441.93095,101.90312 C435.882869,112.443003 430.510672,118.105565 435.691565,130.254259 C444.14552,150.069671 455.496557,146.861429 455.562535,170.25753 L459.690954,170.25753 Z" id="Shape"></path>
                    <path d="M660.142659,1.93269231 C658.959057,13.3936982 653.072168,23.8489598 649.855607,34.7624599 L604.249138,34.7624599 C601.171712,53.7708344 618.806514,65.3071879 620.95951,83.4189562 C636.054832,83.4317159 651.148537,83.4386252 666.24305,83.4386252 C664.037209,94.9483498 655.359246,104.253022 650.363039,114.537819 C635.208911,114.540139 620.055591,114.542459 604.902271,114.542459 C597.87644,135.19794 629.577859,146.702974 626.664221,168.169123 L672,168.169123 C670.580466,181.301544 667.513649,187.867679 667.513649,201 L581.923578,201 C584.9812,175.723603 591.411895,162.160933 575.409321,140.6413 C564.242297,125.62418 562.178015,119.38155 572.523773,102.030671 C582.526999,85.2527675 583.192459,80.3951166 573.537827,62.9282411 C559.868607,38.1933984 568.308213,27.6024708 575.817327,1.93269231 L660.142659,1.93269231 Z" id="Shape"></path>
                </g>
            </g>
        </g>
    </g>
</svg>