<svg width="24" height="24" xmlns="http://www.w3.org/2000/svg" xmlns:xlink="http://www.w3.org/1999/xlink"><defs><path id="a" d="M0 0h24v24H0z"/><path d="M1.057 15.768a.585.585 0 0 1-.414.164.585.585 0 0 1-.414-.164.544.544 0 0 1 0-.794L7.514 8 .23 1.026a.544.544 0 0 1 0-.794.605.605 0 0 1 .828 0l7.7 7.371a.544.544 0 0 1 0 .794l-7.7 7.37z" id="c"/></defs><g fill="none" fill-rule="evenodd"><mask id="b" fill="#fff"><use xlink:href="#a"/></mask><path mask="url(#b)" d="M-5 29h34V-5H-5z"/><use fill="#999" xlink:href="#c" transform="translate(7 4)"/></g></svg>