<svg width="16" height="16" xmlns="http://www.w3.org/2000/svg" xmlns:xlink="http://www.w3.org/1999/xlink"><defs><path d="M9.65 9.65A2.248 2.248 0 0 0 10.333 8c0-.644-.228-1.194-.683-1.65A2.248 2.248 0 0 0 8 5.667c-.644 0-1.194.228-1.65.683A2.248 2.248 0 0 0 5.667 8c0 .644.228 1.194.683 1.65a2.248 2.248 0 0 0 1.65.683c.644 0 1.194-.228 1.65-.683zm.893-4.193c.699.699 1.048 1.546 1.048 2.543 0 .997-.35 1.844-1.048 2.543-.699.699-1.546 1.048-2.543 1.048-.997 0-1.844-.35-2.543-1.048C4.758 9.844 4.409 8.997 4.409 8c0-.997.35-1.844 1.048-2.543C6.156 4.758 7.003 4.409 8 4.409c.997 0 1.844.35 2.543 1.048zm1.786-1.786a.808.808 0 0 1 .247.592.81.81 0 0 1-.247.592.808.808 0 0 1-.592.247.808.808 0 0 1-.592-.247.808.808 0 0 1-.247-.592c0-.23.082-.428.247-.592a.808.808 0 0 1 .592-.247.81.81 0 0 1 .592.247zM8.693 2.258H8l-.697-.005a49.417 49.417 0 0 0-.962 0c-.219.003-.512.012-.88.028-.367.015-.68.045-.938.09a3.655 3.655 0 0 0-.652.17 2.365 2.365 0 0 0-.802.528c-.23.23-.407.498-.529.802a3.655 3.655 0 0 0-.168.652 7.223 7.223 0 0 0-.091.939c-.016.367-.025.66-.028.88a49.9 49.9 0 0 0 0 .96L2.258 8l-.005.697a49.45 49.45 0 0 0 0 .962c.003.219.012.512.028.88.015.367.045.68.09.938.046.258.103.476.17.652a2.375 2.375 0 0 0 1.33 1.331c.176.066.394.123.652.168.258.046.571.076.939.091.367.016.66.025.88.028.218.003.538.003.96 0L8 13.742l.697.005c.423.003.743.003.962 0 .219-.003.512-.012.88-.028.367-.015.68-.045.938-.09.258-.046.476-.103.652-.17a2.375 2.375 0 0 0 1.331-1.33c.066-.176.123-.394.168-.652.046-.258.076-.571.091-.939.016-.367.025-.66.028-.88a49.9 49.9 0 0 0 0-.96L13.742 8l.005-.697c.003-.423.003-.743 0-.962a33.731 33.731 0 0 0-.028-.88 7.223 7.223 0 0 0-.09-.938 3.655 3.655 0 0 0-.17-.652 2.365 2.365 0 0 0-.528-.802 2.365 2.365 0 0 0-.802-.529 3.655 3.655 0 0 0-.652-.168 7.223 7.223 0 0 0-.939-.091c-.367-.016-.66-.025-.88-.028-.218-.003-.54-.001-.965.005zm6.261 2.853C14.984 5.645 15 6.609 15 8c0 1.392-.015 2.355-.046 2.89-.06 1.263-.437 2.242-1.13 2.934-.692.693-1.67 1.07-2.935 1.13-.534.03-1.497.046-2.889.046-1.391 0-2.355-.015-2.89-.046-1.263-.06-2.242-.437-2.934-1.13-.693-.692-1.07-1.67-1.13-2.935C1.016 10.355 1 9.392 1 8c0-1.391.015-2.355.046-2.89.06-1.263.437-2.242 1.13-2.934.692-.693 1.67-1.07 2.935-1.13C5.645 1.016 6.609 1 8 1c1.392 0 2.355.015 2.89.046 1.263.06 2.242.437 2.934 1.13.693.692 1.07 1.67 1.13 2.935z" id="a"/></defs><g fill="none" fill-rule="evenodd"><mask id="b" fill="#fff"><use xlink:href="#a"/></mask><path fill="#FBB597" mask="url(#b)" d="M-4 20h24V-4H-4z"/></g></svg>