<svg width="13" height="15" xmlns="http://www.w3.org/2000/svg" xmlns:xlink="http://www.w3.org/1999/xlink"><defs><path d="M5.989 6.294c-.709 0-1.224-.53-1.224-1.118 0-.588.58-1.117 1.224-1.117s1.223.53 1.223 1.117c0 .589-.515 1.118-1.223 1.118zm0 8.706a.612.612 0 0 1-.45-.176C5.344 14.588 0 9.294 0 5.235 0 2.353 2.705 0 5.989 0c3.348 0 6.053 2.353 6.053 5.235 0 4.06-5.345 9.353-5.538 9.589a.772.772 0 0 1-.515.176zm0-13.824c-2.576 0-4.701 1.824-4.701 4.06 0 2.94 3.477 6.94 4.7 8.293 1.289-1.353 4.766-5.353 4.766-8.294C10.754 3 8.63 1.176 5.99 1.176z" id="a"/></defs><g fill="none" fill-rule="evenodd"><mask id="b" fill="#fff"><use xlink:href="#a"/></mask><path fill="#FBB597" mask="url(#b)" d="M-5 20h22.042V-5H-5z"/></g></svg>