<svg xmlns="http://www.w3.org/2000/svg" width="11" height="14" viewBox="0 0 11 14">
    <g fill="none" fill-rule="evenodd">
        <path d="M-7-5h24v24H-7z"/>
        <g fill="#000" fill-rule="nonzero">
            <path d="M.374 13.656a.29.29 0 0 1-.29-.286.426.426 0 0 1 .146-.326.427.427 0 0 1-.006-.649.427.427 0 0 1-.007-.649.427.427 0 0 1-.007-.648.427.427 0 0 1-.006-.649.427.427 0 0 1-.007-.649.427.427 0 0 1-.007-.648.427.427 0 0 1-.006-.65.427.427 0 0 1-.007-.649.426.426 0 0 1-.153-.324c0-.138.072-.232.148-.303a.402.402 0 0 1-.134-.308.402.402 0 0 1 .162-.293.4.4 0 0 1-.118-.314.4.4 0 0 1 .178-.285.401.401 0 0 1-.102-.321.404.404 0 0 1 .196-.276.403.403 0 0 1-.081-.328.398.398 0 0 1 .215-.263.398.398 0 0 1-.058-.335.41.41 0 0 1 .236-.249C.62 4.16.584 4.042.637 3.913a.408.408 0 0 1 .261-.226.402.402 0 0 1 .006-.346c.066-.125.183-.174.287-.198-.026-.103-.035-.23.046-.346.081-.116.207-.15.313-.16-.012-.107-.004-.236.095-.34a.387.387 0 0 1 .3-.114c0-.1.023-.212.118-.299a.388.388 0 0 1 .312-.089c.009-.1.041-.21.146-.288a.388.388 0 0 1 .32-.059.385.385 0 0 1 .177-.274.383.383 0 0 1 .327-.024c.03-.096.086-.199.206-.253a.385.385 0 0 1 .327.013.387.387 0 0 1 .233-.229.382.382 0 0 1 .321.048.386.386 0 0 1 .254-.202.38.38 0 0 1 .312.078.382.382 0 0 1 .27-.178.38.38 0 0 1 .302.102.387.387 0 0 1 .279-.155.381.381 0 0 1 .292.12.386.386 0 0 1 .286-.137.359.359 0 0 0 .437.017.357.357 0 0 0 .435.05c.078.012.15.053.2.115a.321.321 0 0 1 .419.098.321.321 0 0 1 .41.127.321.321 0 0 1 .4.155.312.312 0 0 1 .227.017.317.317 0 0 1 .16.166.312.312 0 0 1 .225.031c.07.038.122.1.148.174a.322.322 0 0 1 .349.195.29.29 0 0 1 .176.514c-.265.286-.48.213-.584.144A.304.304 0 0 1 9.304 2a.32.32 0 0 1-.201-.045.31.31 0 0 1-.132-.15.317.317 0 0 1-.2-.033.312.312 0 0 1-.142-.142.316.316 0 0 1-.2-.018.313.313 0 0 1-.15-.132.325.325 0 0 1-.36-.126.325.325 0 0 1-.366-.1.325.325 0 0 1-.372-.072.75.75 0 0 0-.568.01.319.319 0 0 1-.218-.096.36.36 0 0 1-.506-.014.364.364 0 0 1-.531.05.364.364 0 0 1-.521.09.364.364 0 0 1-.506.139.364.364 0 0 1-.486.187.364.364 0 0 1-.462.24.364.364 0 0 1-.435.29.364.364 0 0 1-.406.334.364.364 0 0 1-.384.371.376.376 0 0 1-.346.42.376.376 0 0 1-.29.468.377.377 0 0 1-.236.505.377.377 0 0 1-.188.53c.058.09.076.2.051.305a.395.395 0 0 1-.196.241c.055.08.097.181.074.304-.023.123-.1.2-.18.256.059.077.11.175.093.3a.404.404 0 0 1-.166.267c.064.073.12.17.11.294a.397.397 0 0 1-.152.276c.068.071.129.164.126.29a.409.409 0 0 1-.144.29.427.427 0 0 1-.002.64.427.427 0 0 1 .007.65.427.427 0 0 1 .007.648.427.427 0 0 1 .007.649.427.427 0 0 1 .006.649.427.427 0 0 1 .007.648.427.427 0 0 1 .007.649.427.427 0 0 1 .007.649c.095.08.15.198.152.322.003.24-.178.36-.254.409l-.006.004a.29.29 0 0 1-.276.207l-.002.003z"/>
            <path d="M1.755 12.842a.29.29 0 0 1-.29-.285.42.42 0 0 1 .115-.3.427.427 0 0 1-.01-.593.427.427 0 0 1-.01-.594.427.427 0 0 1-.01-.594.427.427 0 0 1-.01-.594.427.427 0 0 1-.01-.594.427.427 0 0 1-.01-.594.427.427 0 0 1-.01-.594.42.42 0 0 1-.126-.297v-.004a.398.398 0 0 1 .122-.276.375.375 0 0 1 .03-.552.375.375 0 0 1 .062-.552.375.375 0 0 1 .1-.549.375.375 0 0 1 .144-.542.375.375 0 0 1 .196-.528.396.396 0 0 1 .01-.313.399.399 0 0 1 .247-.197.397.397 0 0 1 .05-.312.401.401 0 0 1 .276-.164.392.392 0 0 1 .1-.303.378.378 0 0 1 .267-.115.363.363 0 0 1 .402-.354.363.363 0 0 1 .441-.31.363.363 0 0 1 .478-.257.363.363 0 0 1 .505-.195.363.363 0 0 1 .52-.135.378.378 0 0 1 .249-.155c.099-.014.2.013.279.075.273.04.551-.012.79-.15.12.084.276.091.401.02.111.093.266.114.398.054.07.013.135.049.182.103a.324.324 0 0 1 .38.106c.14-.043.291.014.369.138a.312.312 0 0 1 .205.024c.065.03.117.081.15.145a.31.31 0 0 1 .201.041c.062.035.11.09.138.156a.322.322 0 0 1 .312.197.29.29 0 0 1 .131.521c-.265.244-.474.138-.552.083a.304.304 0 0 1-.108-.14.32.32 0 0 1-.288-.182.318.318 0 0 1-.173-.038.313.313 0 0 1-.126-.12.317.317 0 0 1-.31-.134.324.324 0 0 1-.318-.104.708.708 0 0 0-.497-.053.278.278 0 0 0-.328-.03.317.317 0 0 1-.196-.078.359.359 0 0 1-.457-.008.372.372 0 0 1-.231.118.376.376 0 0 1-.249-.066.361.361 0 0 1-.467.095.361.361 0 0 1-.45.144.361.361 0 0 1-.427.196.361.361 0 0 1-.4.248.361.361 0 0 1-.372.295.362.362 0 0 1-.348.334.374.374 0 0 1-.308.38.375.375 0 0 1-.252.43.375.375 0 0 1-.2.465.374.374 0 0 1-.153.487.374.374 0 0 1-.11.503.374.374 0 0 1-.076.513.374.374 0 0 1-.043.52c.065.072.1.166.1.263a.399.399 0 0 1-.117.262.427.427 0 0 1 .003.586.427.427 0 0 1 .01.594.427.427 0 0 1 .01.595.427.427 0 0 1 .01.593.427.427 0 0 1 .01.594.427.427 0 0 1 .01.594.427.427 0 0 1 .01.594.42.42 0 0 1 .125.295.459.459 0 0 1-.21.382.29.29 0 0 1-.275.213h-.01z"/>
            <path d="M3.165 11.833a.29.29 0 0 1-.29-.284.428.428 0 0 1 .093-.276.439.439 0 0 1-.01-.551.439.439 0 0 1-.01-.55.439.439 0 0 1-.011-.551.439.439 0 0 1-.01-.551.439.439 0 0 1-.01-.552.439.439 0 0 1-.01-.552.385.385 0 0 1 .014-.52.385.385 0 0 1 .053-.516.385.385 0 0 1 .097-.514.385.385 0 0 1 .15-.507.385.385 0 0 1 .214-.49.384.384 0 0 1 .293-.458.406.406 0 0 1 .104-.28.392.392 0 0 1 .243-.116.383.383 0 0 1 .128-.237.391.391 0 0 1 .26-.087.37.37 0 0 1 .433-.27.37.37 0 0 1 .469-.203.392.392 0 0 1 .22-.163.386.386 0 0 1 .27.032.392.392 0 0 1 .237-.132c.09-.01.182.011.258.062a.37.37 0 0 1 .47-.038.327.327 0 0 1 .402.006.32.32 0 0 1 .196-.026.4.4 0 0 0 .373.089.323.323 0 0 1 .163.11.324.324 0 0 1 .345.147.325.325 0 0 1 .326.181.331.331 0 0 1 .298.195.29.29 0 0 1 .1.536c-.249.177-.436.075-.506.022a.311.311 0 0 1-.1-.126.328.328 0 0 1-.264-.163.324.324 0 0 1-.276-.135.324.324 0 0 1-.287-.104.65.65 0 0 0-.45-.051.265.265 0 0 0-.293-.018.386.386 0 0 1-.225-.075.381.381 0 0 1-.215.093.386.386 0 0 1-.226-.054.381.381 0 0 1-.2.11.386.386 0 0 1-.226-.027.37.37 0 0 1-.403.138.37.37 0 0 1-.376.197.37.37 0 0 1-.347.253.371.371 0 0 1-.321.304.383.383 0 0 1-.272.349.383.383 0 0 1-.212.4.384.384 0 0 1-.157.436.384.384 0 0 1-.11.458.384.384 0 0 1-.069.469.384.384 0 0 1-.032.477.402.402 0 0 1 .083.238.43.43 0 0 1-.092.273.439.439 0 0 1 .01.553.439.439 0 0 1 .011.55.439.439 0 0 1 .01.551.438.438 0 0 1 .011.55.439.439 0 0 1 .01.551.428.428 0 0 1 .103.274.45.45 0 0 1-.156.346.29.29 0 0 1-.278.227h-.003z"/>
            <path d="M4.526 10.84a.29.29 0 0 1-.29-.284.466.466 0 0 1 .075-.268.484.484 0 0 1-.01-.533.484.484 0 0 1-.01-.533.484.484 0 0 1-.01-.533.484.484 0 0 1-.01-.535.425.425 0 0 1 .023-.512.424.424 0 0 1 .082-.508.424.424 0 0 1 .156-.502c-.04-.2.069-.4.258-.475a.461.461 0 0 1 .114-.271.438.438 0 0 1 .234-.124.43.43 0 0 1 .148-.22.435.435 0 0 1 .26-.082.404.404 0 0 1 .466-.21c.06-.07.14-.12.23-.141a.43.43 0 0 1 .26.031.439.439 0 0 1 .244-.098.414.414 0 0 1 .225.055.343.343 0 0 1 .401.02.342.342 0 0 1 .366.094.341.341 0 0 1 .343.151h.002c.065 0 .129.018.184.052a.356.356 0 0 1 .126.138.29.29 0 0 1 .059.56.424.424 0 0 1-.432-.04.33.33 0 0 1-.096-.111.352.352 0 0 1-.254-.134.348.348 0 0 1-.265-.093.347.347 0 0 1-.274-.047.346.346 0 0 1-.138.03.44.44 0 0 1-.213-.06.43.43 0 0 1-.198.083.438.438 0 0 1-.21-.027.426.426 0 0 1-.172.11.436.436 0 0 1-.203.013.408.408 0 0 1-.339.2.437.437 0 0 1-.114.174.431.431 0 0 1-.19.096.428.428 0 0 1-.237.331.428.428 0 0 1-.164.396.427.427 0 0 1-.1.433.427.427 0 0 1-.044.451.456.456 0 0 1-.01.49c.11.16.115.37.01.534.11.16.115.369.011.533.11.16.114.37.01.533.055.077.084.17.085.265a.473.473 0 0 1-.1.303.29.29 0 0 1-.283.26l-.006.005z"/>
        </g>
    </g>
</svg>
