<svg xmlns="http://www.w3.org/2000/svg" width="24" height="24" viewBox="0 0 24 24">
    <g fill="none" fill-rule="nonzero">
        <path stroke="#323232" d="M7.984 6.495a5.346 5.346 0 0 0-3.91-.098C1.284 7.413-.155 10.527.869 13.34a5.436 5.436 0 0 0 3.858 3.434c.948 1.475 2.164 2.82 3.319 4.015 1.044 1.073 2.459 2.382 3.931 1.115 1.23-1.058.709-2.48-.178-3.518-.68-.796-1.533-1.802-2.232-2.868a5.417 5.417 0 0 0 1.475-2.274l5.393-3.326 2.423-.585-1.802-4.95-2.232 1.11-6.839 1.002zM4.5 8.56c-.08.14-.164.302-.253.495a5.1 5.1 0 0 0-.437 1.38c-.06.319-.111.595-.356 1.125a3.945 3.945 0 0 1-.598.965A3.262 3.262 0 0 1 4.5 8.56zm-.363 5.647a3.268 3.268 0 0 1-.716-.653c.08-.113.158-.21.24-.312.218-.268.466-.572.767-1.224a5.1 5.1 0 0 0 .437-1.38c.06-.32.11-.595.355-1.125s.421-.747.625-.998c.07-.086.143-.176.22-.279.348.017.689.09 1.01.214-.102.158-.2.278-.305.407-.218.269-.465.573-.766 1.225-.301.652-.373 1.038-.437 1.38-.06.319-.11.594-.356 1.124a3.99 3.99 0 0 1-.625.999c-.136.168-.284.35-.449.622zm2.227.225c-.08.098-.164.201-.252.325a3.222 3.222 0 0 1-.984-.103c.098-.147.191-.262.291-.385.218-.268.465-.572.766-1.224s.373-1.039.437-1.38c.06-.32.111-.595.356-1.125s.421-.747.625-.998c.123-.152.255-.315.402-.545.222.186.422.403.591.648l-.048.06a5.073 5.073 0 0 0-.766 1.224c-.301.652-.374 1.039-.437 1.38-.06.319-.111.595-.356 1.125s-.421.747-.625.998zm1.475-.287a7.14 7.14 0 0 0 .124-.253c.3-.652.373-1.039.437-1.38.06-.32.11-.595.355-1.125a4.46 4.46 0 0 1 .337-.616c.3 1.289-.213 2.619-1.253 3.374zm4.178-7.111a.291.291 0 0 1-.24.335l-2.03.327a.293.293 0 0 1-.095-.578l2.03-.327a.293.293 0 0 1 .335.243zm2.098-.338a.291.291 0 0 1-.24.336l-.914.147a.293.293 0 0 1-.094-.578l.913-.147a.293.293 0 0 1 .335.242z"/>
        <path fill="#323232" d="M18.228 5.135c.317-.116.489-.108.688-.098.218.01.466.022.875-.127.408-.148.59-.317.751-.465.147-.135.273-.252.59-.368.318-.115.49-.107.689-.098.219.01.467.023.875-.126a.242.242 0 0 0 .144-.31.242.242 0 0 0-.31-.147c-.318.116-.49.108-.688.098-.22-.01-.467-.022-.876.127-.408.148-.59.317-.751.465a1.491 1.491 0 0 1-.59.368c-.318.115-.49.107-.689.098-.218-.01-.466-.023-.875.126a.242.242 0 0 0-.143.31.242.242 0 0 0 .31.147zM23.084 4.919c-.318.115-.49.107-.688.098-.22-.01-.467-.023-.876.126a1.96 1.96 0 0 0-.751.466 1.491 1.491 0 0 1-.59.367c-.318.116-.49.108-.689.098-.218-.01-.466-.022-.875.126a.242.242 0 0 0-.143.311.242.242 0 0 0 .31.146c.317-.116.489-.107.688-.098.218.01.466.022.875-.126a1.96 1.96 0 0 0 .751-.466c.146-.135.273-.252.59-.367.318-.116.49-.108.689-.098.219.01.467.022.875-.127a.242.242 0 0 0 .144-.31.242.242 0 0 0-.31-.146zM23.638 6.441c-.318.116-.49.108-.688.098-.22-.01-.467-.022-.876.126a1.96 1.96 0 0 0-.751.466 1.491 1.491 0 0 1-.59.367c-.318.116-.49.108-.688.098-.22-.01-.467-.022-.876.127a.242.242 0 0 0-.143.31.242.242 0 0 0 .31.146c.317-.115.489-.107.688-.098.219.01.466.023.875-.126a1.96 1.96 0 0 0 .751-.466c.147-.135.273-.251.59-.367.318-.116.49-.107.689-.098.219.01.467.022.875-.126a.242.242 0 0 0 .144-.311.242.242 0 0 0-.31-.146z"/>
    </g>
</svg>
