<svg xmlns="http://www.w3.org/2000/svg" width="64" height="64" viewBox="0 0 64 64">
    <path fill="#000" fill-rule="nonzero" d="M51.58 18.33l1.2-1.2a2.7 2.7 0 1 0-1.41-1.41l-1.19 1.19a26.16 26.16 0 0 0-16.9-7V8.62h4a1 1 0 0 0 1-1V3a1 1 0 0 0-1-1h-10a1 1 0 0 0-1 1v4.62a1 1 0 0 0 1 1h4v1.25a26.16 26.16 0 0 0-16.63 6.78l-.92-.92a2.7 2.7 0 1 0-1.41 1.41l.91.91c-9.825 10.355-9.58 26.662.553 36.716 10.132 10.054 26.44 10.173 36.719.268C60.78 45.129 61.263 28.827 51.59 18.33h-.01zM28.25 4h8v2.62h-8V4zm25.58 10a.69.69 0 1 1 0 1.38.69.69 0 0 1 0-1.38zm-43.28.69a.69.69 0 1 1 .69.69.69.69 0 0 1-.68-.72l-.01.03zm21.71 45.68C18.863 60.364 8.006 49.5 8.01 36.103c.004-13.397 10.866-24.255 24.263-24.253 13.397.002 24.257 10.863 24.257 24.26-.017 13.395-10.875 24.249-24.27 24.26zm-1-41.4V16a1 1 0 0 1 2 0v3a1 1 0 0 1-2 0v-.03zm2 34.53v3a1 1 0 0 1-2 0v-3a1 1 0 0 1 2 0zM16 36.23a1 1 0 0 1-1 1h-3a1 1 0 0 1 0-2h3a1 1 0 0 1 1 1zm37.49 0a1 1 0 0 1-1 1h-3a1 1 0 0 1 0-2h3a1 1 0 0 1 1 1zM20.76 23.32a1 1 0 1 1-1.41 1.41l-1.92-1.92a1 1 0 0 1 1.41-1.41l1.92 1.92zM47.1 49.65a1 1 0 1 1-1.41 1.41l-1.92-1.92a1 1 0 0 1 1.41-1.41l1.92 1.92zm-26.34-1.92a1 1 0 0 1 0 1.41l-1.92 1.92a1 1 0 0 1-1.41-1.41l1.92-1.92a1 1 0 0 1 1.41 0zM47.1 21.4a1 1 0 0 1 0 1.41l-1.92 1.92a1 1 0 0 1-1.41-1.41l1.92-1.92a1 1 0 0 1 1.41 0zm-8.22 19.91a1 1 0 1 1-1.41 1.41l-5.91-5.91a1 1 0 0 1-.29-.71V23.67a1 1 0 0 1 2 0v12l5.61 5.64z"/>
</svg>
