<svg xmlns="http://www.w3.org/2000/svg" width="13" height="14" viewBox="0 0 13 14">
    <g fill="none" fill-rule="evenodd">
        <path fill-rule="nonzero" d="M-6-5h24v24H-6z"/>
        <g fill="#000" fill-rule="nonzero">
            <path d="M5.307 2.522H1.312c-.715 0-1.3.57-1.3 1.273v8.582c0 .7.583 1.273 1.3 1.273h3.995c.715 0 1.299-.57 1.299-1.273V3.795c0-.702-.582-1.273-1.3-1.273zM.735 3.795c0-.313.26-.565.577-.565h3.995c.319 0 .576.254.576.565v1.708H.735V3.795zM4.637.901a.573.573 0 0 0-.58-.568H2.562c-.32 0-.58.254-.58.568v1.087h2.655V.9h.001zM9.79 1.337h2.237a.291.291 0 0 0 .295-.289V.622a.291.291 0 0 0-.295-.289H9.316c-.791 0-1.432.63-1.432 1.405v10.513c0 .775.64 1.403 1.432 1.403h2.71a.291.291 0 0 0 .294-.289v-.427a.291.291 0 0 0-.294-.29H9.79a.291.291 0 0 1-.295-.288v-.257c0-.16.132-.288.295-.288h2.236a.291.291 0 0 0 .295-.29v-.337a.291.291 0 0 0-.295-.289H9.791a.291.291 0 0 1-.295-.289v-.256c0-.16.132-.29.295-.29h2.236a.291.291 0 0 0 .295-.288v-.338a.291.291 0 0 0-.295-.289H9.791a.291.291 0 0 1-.295-.289v-.256c0-.16.132-.289.295-.289h2.236a.291.291 0 0 0 .295-.289v-.338a.291.291 0 0 0-.295-.288H9.791a.291.291 0 0 1-.295-.29v-.256c0-.16.132-.289.295-.289h2.236a.291.291 0 0 0 .295-.288v-.338a.291.291 0 0 0-.295-.29H9.791a.291.291 0 0 1-.295-.288v-.257c0-.16.132-.288.295-.288h2.236a.291.291 0 0 0 .295-.29V4.19a.291.291 0 0 0-.295-.289H9.791a.291.291 0 0 1-.295-.289v-.256c0-.16.132-.29.295-.29h2.236a.291.291 0 0 0 .295-.288V2.44a.291.291 0 0 0-.295-.289H9.791a.291.291 0 0 1-.295-.288v-.257c0-.139.132-.268.295-.268z"/>
        </g>
    </g>
</svg>
