<svg xmlns="http://www.w3.org/2000/svg" width="7" height="14" viewBox="0 0 7 14">
    <g fill="none" fill-rule="nonzero">
        <path d="M-9-5h24v24H-9z"/>
        <path fill="#000" d="M5.592 11.059c-.053 1.983-1.907 2.718-3.046 2.595C1.408 13.53.331 12.546.618 11.592c.288-.954 1.231-.851 1.231-.851s-1.201 1.108-.092 1.62c.564.01 1.005-.184 1.056-1.117C2.874 10.126.71 9.572.805 7.743c.044-.852.37-1.29.876-1.984C-.838 3.952.22.336.22.336s4.545-.006 4.544 0C4.414 2.802 6.182 2.5 6.189 4.299c.008 2.042-1.59 3.168-1.53 4.326.041.804.954 1.684.933 2.434z"/>
    </g>
</svg>
